<svg width="36" height="36" viewBox="0 0 36 36" fill="none" xmlns="http://www.w3.org/2000/svg">
<path d="M0 18C0 8.05888 8.05888 0 18 0C27.9411 0 36 8.05888 36 18C36 27.9411 27.9411 36 18 36C8.05888 36 0 27.9411 0 18Z" fill="#F6F6F6"/>
<path d="M18.1596 17.62C18.1296 17.62 18.1096 17.62 18.0796 17.62C18.0296 17.61 17.9596 17.61 17.8996 17.62C14.9996 17.53 12.8096 15.25 12.8096 12.44C12.8096 9.58 15.1396 7.25 17.9996 7.25C20.8596 7.25 23.1896 9.58 23.1896 12.44C23.1796 15.25 20.9796 17.53 18.1896 17.62C18.1796 17.62 18.1696 17.62 18.1596 17.62ZM17.9996 8.75C15.9696 8.75 14.3096 10.41 14.3096 12.44C14.3096 14.44 15.8696 16.05 17.8596 16.12C17.9096 16.11 18.0496 16.11 18.1796 16.12C20.1396 16.03 21.6796 14.42 21.6896 12.44C21.6896 10.41 20.0296 8.75 17.9996 8.75Z" fill="#DDDDDD"/>
<path d="M18.1696 28.55C16.2096 28.55 14.2396 28.05 12.7496 27.05C11.3596 26.13 10.5996 24.87 10.5996 23.5C10.5996 22.13 11.3596 20.86 12.7496 19.93C15.7496 17.94 20.6096 17.94 23.5896 19.93C24.9696 20.85 25.7396 22.11 25.7396 23.48C25.7396 24.85 24.9796 26.12 23.5896 27.05C22.0896 28.05 20.1296 28.55 18.1696 28.55ZM13.5796 21.19C12.6196 21.83 12.0996 22.65 12.0996 23.51C12.0996 24.36 12.6296 25.18 13.5796 25.81C16.0696 27.48 20.2696 27.48 22.7596 25.81C23.7196 25.17 24.2396 24.35 24.2396 23.49C24.2396 22.64 23.7096 21.82 22.7596 21.19C20.2696 19.53 16.0696 19.53 13.5796 21.19Z" fill="#DDDDDD"/>
</svg>
