<svg width="60" height="60" viewBox="0 0 60 60" fill="none" xmlns="http://www.w3.org/2000/svg">
<path d="M28.0916 55.5776C29.2379 56.2317 30.6293 56.1945 31.7712 55.5327C38.4639 51.654 49.7993 42.9741 54.2851 31.7412C60.9528 16.9305 45.2971 5.10766 34.477 13.6111C33.402 14.4559 32.0634 15.417 31.0947 16.3374C30.5737 16.8325 29.6638 16.883 29.1274 16.4046C27.8414 15.2576 25.9356 13.8376 24.695 12.9983C15.4706 6.75742 -1.31344 14.984 5.84604 32.5414C8.43934 40.334 20.6879 51.353 28.0916 55.5776Z" fill="url(#paint0_linear_1215_23903)"/>
<path d="M28.0916 55.5776C29.2379 56.2317 30.6293 56.1945 31.7712 55.5327C38.4639 51.654 49.7993 42.9741 54.2851 31.7412C60.9528 16.9305 45.2971 5.10766 34.477 13.6111C33.402 14.4559 32.0634 15.417 31.0947 16.3374C30.5737 16.8325 29.6638 16.883 29.1274 16.4046C27.8414 15.2576 25.9356 13.8376 24.695 12.9983C15.4706 6.75742 -1.31344 14.984 5.84604 32.5414C8.43934 40.334 20.6879 51.353 28.0916 55.5776Z" fill="url(#paint1_radial_1215_23903)"/>
<path d="M28.0916 55.5776C29.2379 56.2317 30.6293 56.1945 31.7712 55.5327C38.4639 51.654 49.7993 42.9741 54.2851 31.7412C60.9528 16.9305 45.2971 5.10766 34.477 13.6111C33.402 14.4559 32.0634 15.417 31.0947 16.3374C30.5737 16.8325 29.6638 16.883 29.1274 16.4046C27.8414 15.2576 25.9356 13.8376 24.695 12.9983C15.4706 6.75742 -1.31344 14.984 5.84604 32.5414C8.43934 40.334 20.6879 51.353 28.0916 55.5776Z" fill="url(#paint2_radial_1215_23903)"/>
<path d="M28.0916 55.5776C29.2379 56.2317 30.6293 56.1945 31.7712 55.5327C38.4639 51.654 49.7993 42.9741 54.2851 31.7412C60.9528 16.9305 45.2971 5.10766 34.477 13.6111C33.402 14.4559 32.0634 15.417 31.0947 16.3374C30.5737 16.8325 29.6638 16.883 29.1274 16.4046C27.8414 15.2576 25.9356 13.8376 24.695 12.9983C15.4706 6.75742 -1.31344 14.984 5.84604 32.5414C8.43934 40.334 20.6879 51.353 28.0916 55.5776Z" fill="url(#paint3_linear_1215_23903)"/>
<path d="M28.0916 55.5776C29.2379 56.2317 30.6293 56.1945 31.7712 55.5327C38.4639 51.654 49.7993 42.9741 54.2851 31.7412C60.9528 16.9305 45.2971 5.10766 34.477 13.6111C33.402 14.4559 32.0634 15.417 31.0947 16.3374C30.5737 16.8325 29.6638 16.883 29.1274 16.4046C27.8414 15.2576 25.9356 13.8376 24.695 12.9983C15.4706 6.75742 -1.31344 14.984 5.84604 32.5414C8.43934 40.334 20.6879 51.353 28.0916 55.5776Z" fill="url(#paint4_radial_1215_23903)"/>
<path d="M28.0916 55.5776C29.2379 56.2317 30.6293 56.1945 31.7712 55.5327C38.4639 51.654 49.7993 42.9741 54.2851 31.7412C60.9528 16.9305 45.2971 5.10766 34.477 13.6111C33.402 14.4559 32.0634 15.417 31.0947 16.3374C30.5737 16.8325 29.6638 16.883 29.1274 16.4046C27.8414 15.2576 25.9356 13.8376 24.695 12.9983C15.4706 6.75742 -1.31344 14.984 5.84604 32.5414C8.43934 40.334 20.6879 51.353 28.0916 55.5776Z" fill="url(#paint5_linear_1215_23903)"/>
<path d="M28.0916 55.5776C29.2379 56.2317 30.6293 56.1945 31.7712 55.5327C38.4639 51.654 49.7993 42.9741 54.2851 31.7412C60.9528 16.9305 45.2971 5.10766 34.477 13.6111C33.402 14.4559 32.0634 15.417 31.0947 16.3374C30.5737 16.8325 29.6638 16.883 29.1274 16.4046C27.8414 15.2576 25.9356 13.8376 24.695 12.9983C15.4706 6.75742 -1.31344 14.984 5.84604 32.5414C8.43934 40.334 20.6879 51.353 28.0916 55.5776Z" fill="url(#paint6_radial_1215_23903)"/>
<path d="M28.0916 55.5776C29.2379 56.2317 30.6293 56.1945 31.7712 55.5327C38.4639 51.654 49.7993 42.9741 54.2851 31.7412C60.9528 16.9305 45.2971 5.10766 34.477 13.6111C33.402 14.4559 32.0634 15.417 31.0947 16.3374C30.5737 16.8325 29.6638 16.883 29.1274 16.4046C27.8414 15.2576 25.9356 13.8376 24.695 12.9983C15.4706 6.75742 -1.31344 14.984 5.84604 32.5414C8.43934 40.334 20.6879 51.353 28.0916 55.5776Z" fill="url(#paint7_radial_1215_23903)"/>
<path d="M28.0916 55.5776C29.2379 56.2317 30.6293 56.1945 31.7712 55.5327C38.4639 51.654 49.7993 42.9741 54.2851 31.7412C60.9528 16.9305 45.2971 5.10766 34.477 13.6111C33.402 14.4559 32.0634 15.417 31.0947 16.3374C30.5737 16.8325 29.6638 16.883 29.1274 16.4046C27.8414 15.2576 25.9356 13.8376 24.695 12.9983C15.4706 6.75742 -1.31344 14.984 5.84604 32.5414C8.43934 40.334 20.6879 51.353 28.0916 55.5776Z" fill="url(#paint8_radial_1215_23903)"/>
<path d="M28.0916 55.5776C29.2379 56.2317 30.6293 56.1945 31.7712 55.5327C38.4639 51.654 49.7993 42.9741 54.2851 31.7412C60.9528 16.9305 45.2971 5.10766 34.477 13.6111C33.402 14.4559 32.0634 15.417 31.0947 16.3374C30.5737 16.8325 29.6638 16.883 29.1274 16.4046C27.8414 15.2576 25.9356 13.8376 24.695 12.9983C15.4706 6.75742 -1.31344 14.984 5.84604 32.5414C8.43934 40.334 20.6879 51.353 28.0916 55.5776Z" fill="url(#paint9_radial_1215_23903)"/>
<path d="M28.0916 55.5776C29.2379 56.2317 30.6293 56.1945 31.7712 55.5327C38.4639 51.654 49.7993 42.9741 54.2851 31.7412C60.9528 16.9305 45.2971 5.10766 34.477 13.6111C33.402 14.4559 32.0634 15.417 31.0947 16.3374C30.5737 16.8325 29.6638 16.883 29.1274 16.4046C27.8414 15.2576 25.9356 13.8376 24.695 12.9983C15.4706 6.75742 -1.31344 14.984 5.84604 32.5414C8.43934 40.334 20.6879 51.353 28.0916 55.5776Z" fill="url(#paint10_radial_1215_23903)"/>
<defs>
<linearGradient id="paint0_linear_1215_23903" x1="7.745" y1="21.1865" x2="53.4128" y2="21.1865" gradientUnits="userSpaceOnUse">
<stop stop-color="#4FA8DB"/>
<stop offset="1" stop-color="#5CC8FF"/>
</linearGradient>
<radialGradient id="paint1_radial_1215_23903" cx="0" cy="0" r="1" gradientUnits="userSpaceOnUse" gradientTransform="translate(46.4583 53.6018) rotate(45.3648) scale(94.0344 43.0125)">
<stop offset="0.520683" stop-color="#50A5C3" stop-opacity="0"/>
<stop offset="0.579924" stop-color="#5599B1"/>
</radialGradient>
<radialGradient id="paint2_radial_1215_23903" cx="0" cy="0" r="1" gradientUnits="userSpaceOnUse" gradientTransform="translate(52.0219 15.3981) rotate(119.571) scale(46.7391 46.7679)">
<stop offset="0.225474" stop-color="#55C9F7"/>
<stop offset="1" stop-color="#55C9F7" stop-opacity="0"/>
</radialGradient>
<linearGradient id="paint3_linear_1215_23903" x1="26.9857" y1="22.8073" x2="47.9651" y2="22.8073" gradientUnits="userSpaceOnUse">
<stop offset="0.0552486" stop-color="#40A6D6" stop-opacity="0"/>
<stop offset="0.154909" stop-color="#42A2CD"/>
<stop offset="0.668508" stop-color="#46B4E4"/>
<stop offset="1" stop-color="#4ABCEB" stop-opacity="0"/>
</linearGradient>
<radialGradient id="paint4_radial_1215_23903" cx="0" cy="0" r="1" gradientUnits="userSpaceOnUse" gradientTransform="translate(53.6531 49.4317) rotate(-157.775) scale(66.1224 49.7734)">
<stop offset="0.171908" stop-color="#5AAEFF"/>
<stop offset="0.811263" stop-color="#59B2FF" stop-opacity="0"/>
</radialGradient>
<linearGradient id="paint5_linear_1215_23903" x1="30.0002" y1="61.2421" x2="37.6378" y2="31.1327" gradientUnits="userSpaceOnUse">
<stop offset="0.243656" stop-color="#5E83FF"/>
<stop offset="1" stop-color="#598BFF" stop-opacity="0"/>
</linearGradient>
<radialGradient id="paint6_radial_1215_23903" cx="0" cy="0" r="1" gradientUnits="userSpaceOnUse" gradientTransform="translate(49.5878 18.1765) rotate(134.467) scale(21.3374 12.0348)">
<stop offset="0.163623" stop-color="#78DBFF"/>
<stop offset="1" stop-color="#5DBCF3" stop-opacity="0"/>
</radialGradient>
<radialGradient id="paint7_radial_1215_23903" cx="0" cy="0" r="1" gradientUnits="userSpaceOnUse" gradientTransform="translate(23.9755 19.5582) rotate(74.3717) scale(22.3635 12.9693)">
<stop offset="0.227664" stop-color="#66CDFE"/>
<stop offset="0.755379" stop-color="#58B7F2" stop-opacity="0"/>
</radialGradient>
<radialGradient id="paint8_radial_1215_23903" cx="0" cy="0" r="1" gradientUnits="userSpaceOnUse" gradientTransform="translate(39.9675 1.39008) rotate(125.756) scale(20.8279 7.3049)">
<stop offset="0.230453" stop-color="#518BA9"/>
<stop offset="1" stop-color="#518BA9" stop-opacity="0"/>
</radialGradient>
<radialGradient id="paint9_radial_1215_23903" cx="0" cy="0" r="1" gradientUnits="userSpaceOnUse" gradientTransform="translate(39.1561 42.488) rotate(117.801) scale(19.6313 16.053)">
<stop stop-color="#45A1EC"/>
<stop offset="1" stop-color="#47B0F1" stop-opacity="0"/>
</radialGradient>
<radialGradient id="paint10_radial_1215_23903" cx="0" cy="0" r="1" gradientUnits="userSpaceOnUse" gradientTransform="translate(15.6268 14.7035) rotate(136.69) scale(85.0612 66.1865)">
<stop offset="0.56698" stop-color="#4D9BD4" stop-opacity="0"/>
<stop offset="0.670829" stop-color="#5390C8"/>
</radialGradient>
</defs>
</svg>
