<svg width="60" height="60" viewBox="0 0 60 60" fill="none" xmlns="http://www.w3.org/2000/svg">
<path d="M55.6283 25.5127C52.0019 18.4057 43.6617 10.0026 30.3222 10.0026C16.9457 10.0026 8.70116 17.9663 5.0904 25.5869C4.1071 27.1825 4.07 29.0934 5.01619 30.7075C9.71005 38.8151 16.9828 46.2177 30.3222 46.2177C32.0975 46.2177 33.8437 46.14 35.4401 45.9133C36.3028 45.7908 37.1911 45.8998 37.9577 46.3139C40.1219 47.4825 42.2981 48.7501 45.0717 50.3178C45.9252 50.8002 46.9641 50.1509 46.9085 49.1676L46.5027 42.7766C46.4425 41.8287 46.8717 40.9223 47.5983 40.3106C50.8406 37.5809 53.3829 34.1449 55.5541 30.6147C56.5374 29.0192 56.5745 27.1268 55.6283 25.5127Z" fill="url(#paint0_radial_1215_23968)"/>
<path d="M55.6283 25.5127C52.0019 18.4057 43.6617 10.0026 30.3222 10.0026C16.9457 10.0026 8.70116 17.9663 5.0904 25.5869C4.1071 27.1825 4.07 29.0934 5.01619 30.7075C9.71005 38.8151 16.9828 46.2177 30.3222 46.2177C32.0975 46.2177 33.8437 46.14 35.4401 45.9133C36.3028 45.7908 37.1911 45.8998 37.9577 46.3139C40.1219 47.4825 42.2981 48.7501 45.0717 50.3178C45.9252 50.8002 46.9641 50.1509 46.9085 49.1676L46.5027 42.7766C46.4425 41.8287 46.8717 40.9223 47.5983 40.3106C50.8406 37.5809 53.3829 34.1449 55.5541 30.6147C56.5374 29.0192 56.5745 27.1268 55.6283 25.5127Z" fill="url(#paint1_radial_1215_23968)"/>
<path d="M55.6283 25.5127C52.0019 18.4057 43.6617 10.0026 30.3222 10.0026C16.9457 10.0026 8.70116 17.9663 5.0904 25.5869C4.1071 27.1825 4.07 29.0934 5.01619 30.7075C9.71005 38.8151 16.9828 46.2177 30.3222 46.2177C32.0975 46.2177 33.8437 46.14 35.4401 45.9133C36.3028 45.7908 37.1911 45.8998 37.9577 46.3139C40.1219 47.4825 42.2981 48.7501 45.0717 50.3178C45.9252 50.8002 46.9641 50.1509 46.9085 49.1676L46.5027 42.7766C46.4425 41.8287 46.8717 40.9223 47.5983 40.3106C50.8406 37.5809 53.3829 34.1449 55.5541 30.6147C56.5374 29.0192 56.5745 27.1268 55.6283 25.5127Z" fill="url(#paint2_radial_1215_23968)"/>
<path d="M55.6283 25.5127C52.0019 18.4057 43.6617 10.0026 30.3222 10.0026C16.9457 10.0026 8.70116 17.9663 5.0904 25.5869C4.1071 27.1825 4.07 29.0934 5.01619 30.7075C9.71005 38.8151 16.9828 46.2177 30.3222 46.2177C32.0975 46.2177 33.8437 46.14 35.4401 45.9133C36.3028 45.7908 37.1911 45.8998 37.9577 46.3139C40.1219 47.4825 42.2981 48.7501 45.0717 50.3178C45.9252 50.8002 46.9641 50.1509 46.9085 49.1676L46.5027 42.7766C46.4425 41.8287 46.8717 40.9223 47.5983 40.3106C50.8406 37.5809 53.3829 34.1449 55.5541 30.6147C56.5374 29.0192 56.5745 27.1268 55.6283 25.5127Z" fill="url(#paint3_radial_1215_23968)"/>
<path d="M55.6283 25.5127C52.0019 18.4057 43.6617 10.0026 30.3222 10.0026C16.9457 10.0026 8.70116 17.9663 5.0904 25.5869C4.1071 27.1825 4.07 29.0934 5.01619 30.7075C9.71005 38.8151 16.9828 46.2177 30.3222 46.2177C32.0975 46.2177 33.8437 46.14 35.4401 45.9133C36.3028 45.7908 37.1911 45.8998 37.9577 46.3139C40.1219 47.4825 42.2981 48.7501 45.0717 50.3178C45.9252 50.8002 46.9641 50.1509 46.9085 49.1676L46.5027 42.7766C46.4425 41.8287 46.8717 40.9223 47.5983 40.3106C50.8406 37.5809 53.3829 34.1449 55.5541 30.6147C56.5374 29.0192 56.5745 27.1268 55.6283 25.5127Z" fill="url(#paint4_radial_1215_23968)"/>
<path d="M55.6283 25.5127C52.0019 18.4057 43.6617 10.0026 30.3222 10.0026C16.9457 10.0026 8.70116 17.9663 5.0904 25.5869C4.1071 27.1825 4.07 29.0934 5.01619 30.7075C9.71005 38.8151 16.9828 46.2177 30.3222 46.2177C32.0975 46.2177 33.8437 46.14 35.4401 45.9133C36.3028 45.7908 37.1911 45.8998 37.9577 46.3139C40.1219 47.4825 42.2981 48.7501 45.0717 50.3178C45.9252 50.8002 46.9641 50.1509 46.9085 49.1676L46.5027 42.7766C46.4425 41.8287 46.8717 40.9223 47.5983 40.3106C50.8406 37.5809 53.3829 34.1449 55.5541 30.6147C56.5374 29.0192 56.5745 27.1268 55.6283 25.5127Z" fill="url(#paint5_radial_1215_23968)"/>
<path d="M55.6283 25.5127C52.0019 18.4057 43.6617 10.0026 30.3222 10.0026C16.9457 10.0026 8.70116 17.9663 5.0904 25.5869C4.1071 27.1825 4.07 29.0934 5.01619 30.7075C9.71005 38.8151 16.9828 46.2177 30.3222 46.2177C32.0975 46.2177 33.8437 46.14 35.4401 45.9133C36.3028 45.7908 37.1911 45.8998 37.9577 46.3139C40.1219 47.4825 42.2981 48.7501 45.0717 50.3178C45.9252 50.8002 46.9641 50.1509 46.9085 49.1676L46.5027 42.7766C46.4425 41.8287 46.8717 40.9223 47.5983 40.3106C50.8406 37.5809 53.3829 34.1449 55.5541 30.6147C56.5374 29.0192 56.5745 27.1268 55.6283 25.5127Z" fill="url(#paint6_radial_1215_23968)"/>
<path d="M55.6283 25.5127C52.0019 18.4057 43.6617 10.0026 30.3222 10.0026C16.9457 10.0026 8.70116 17.9663 5.0904 25.5869C4.1071 27.1825 4.07 29.0934 5.01619 30.7075C9.71005 38.8151 16.9828 46.2177 30.3222 46.2177C32.0975 46.2177 33.8437 46.14 35.4401 45.9133C36.3028 45.7908 37.1911 45.8998 37.9577 46.3139C40.1219 47.4825 42.2981 48.7501 45.0717 50.3178C45.9252 50.8002 46.9641 50.1509 46.9085 49.1676L46.5027 42.7766C46.4425 41.8287 46.8717 40.9223 47.5983 40.3106C50.8406 37.5809 53.3829 34.1449 55.5541 30.6147C56.5374 29.0192 56.5745 27.1268 55.6283 25.5127Z" fill="url(#paint7_radial_1215_23968)"/>
<path d="M55.6283 25.5127C52.0019 18.4057 43.6617 10.0026 30.3222 10.0026C16.9457 10.0026 8.70116 17.9663 5.0904 25.5869C4.1071 27.1825 4.07 29.0934 5.01619 30.7075C9.71005 38.8151 16.9828 46.2177 30.3222 46.2177C32.0975 46.2177 33.8437 46.14 35.4401 45.9133C36.3028 45.7908 37.1911 45.8998 37.9577 46.3139C40.1219 47.4825 42.2981 48.7501 45.0717 50.3178C45.9252 50.8002 46.9641 50.1509 46.9085 49.1676L46.5027 42.7766C46.4425 41.8287 46.8717 40.9223 47.5983 40.3106C50.8406 37.5809 53.3829 34.1449 55.5541 30.6147C56.5374 29.0192 56.5745 27.1268 55.6283 25.5127Z" fill="url(#paint8_radial_1215_23968)"/>
<defs>
<radialGradient id="paint0_radial_1215_23968" cx="0" cy="0" r="1" gradientUnits="userSpaceOnUse" gradientTransform="translate(30.3223 28.1615) rotate(90) scale(27.0703 30.1126)">
<stop stop-color="#D7D0F5"/>
<stop offset="1" stop-color="#9784EC"/>
</radialGradient>
<radialGradient id="paint1_radial_1215_23968" cx="0" cy="0" r="1" gradientUnits="userSpaceOnUse" gradientTransform="translate(41.8213 43.0736) rotate(148.857) scale(4.02203 9.51429)">
<stop stop-color="#F4F1F7" stop-opacity="0.8"/>
<stop offset="1" stop-color="#F4F1F7" stop-opacity="0"/>
</radialGradient>
<radialGradient id="paint2_radial_1215_23968" cx="0" cy="0" r="1" gradientUnits="userSpaceOnUse" gradientTransform="translate(30.3223 27.9271) rotate(90) scale(31.6406 50.127)">
<stop offset="0.338542" stop-color="#B1A2F0"/>
<stop offset="0.78125" stop-color="#B1A2F0" stop-opacity="0"/>
</radialGradient>
<radialGradient id="paint3_radial_1215_23968" cx="0" cy="0" r="1" gradientUnits="userSpaceOnUse" gradientTransform="translate(30.3223 27.9271) rotate(90) scale(31.6406 50.127)">
<stop offset="0.338542" stop-color="#E2D0EC"/>
<stop offset="0.78125" stop-color="#E2D0EC" stop-opacity="0"/>
</radialGradient>
<radialGradient id="paint4_radial_1215_23968" cx="0" cy="0" r="1" gradientUnits="userSpaceOnUse" gradientTransform="translate(37.7601 19.7023) rotate(111.937) scale(43.3563 43.3563)">
<stop stop-color="white"/>
<stop offset="0.681565" stop-color="white" stop-opacity="0"/>
</radialGradient>
<radialGradient id="paint5_radial_1215_23968" cx="0" cy="0" r="1" gradientUnits="userSpaceOnUse" gradientTransform="translate(37.2672 20.3654) rotate(100.105) scale(39.582 54.5344)">
<stop stop-color="#F4F1F7"/>
<stop offset="0.370498" stop-color="#F4F1F7" stop-opacity="0"/>
</radialGradient>
<radialGradient id="paint6_radial_1215_23968" cx="0" cy="0" r="1" gradientUnits="userSpaceOnUse" gradientTransform="translate(38.9221 42.2381) rotate(-61.6501) scale(36.6286 52.9722)">
<stop offset="0.618897" stop-color="#CECECE" stop-opacity="0"/>
<stop offset="1" stop-color="#CECECE"/>
</radialGradient>
<radialGradient id="paint7_radial_1215_23968" cx="0" cy="0" r="1" gradientUnits="userSpaceOnUse" gradientTransform="translate(8.77374 43.8615) rotate(-8.98519) scale(54.9412 79.4559)">
<stop offset="0.781471" stop-color="#CECECE" stop-opacity="0"/>
<stop offset="1" stop-color="#CECECE"/>
</radialGradient>
<radialGradient id="paint8_radial_1215_23968" cx="0" cy="0" r="1" gradientUnits="userSpaceOnUse" gradientTransform="translate(41.0156 8.12242) rotate(145.504) scale(74.7917 66.376)">
<stop offset="0.444341" stop-opacity="0"/>
<stop offset="1" stop-opacity="0.4"/>
</radialGradient>
</defs>
</svg>
