<svg width="60" height="60" viewBox="0 0 60 60" fill="none" xmlns="http://www.w3.org/2000/svg">
<g clip-path="url(#clip0_1216_23997)">
<rect x="3.75" y="3.75" width="52.5" height="52.5" rx="3.6" fill="url(#paint0_linear_1216_23997)"/>
<rect x="3.75" y="3.75" width="52.5" height="52.5" rx="3.6" fill="url(#paint1_radial_1216_23997)"/>
<rect x="3.75" y="3.75" width="52.5" height="52.5" rx="3.6" fill="url(#paint2_radial_1216_23997)"/>
<rect x="3.75" y="3.75" width="52.5" height="52.5" rx="3.6" fill="url(#paint3_linear_1216_23997)"/>
<rect x="3.75" y="3.75" width="52.5" height="52.5" rx="3.6" fill="url(#paint4_linear_1216_23997)"/>
<rect x="3.75" y="3.75" width="52.5" height="52.5" rx="3.6" fill="url(#paint5_linear_1216_23997)"/>
<rect x="3.75" y="3.75" width="52.5" height="52.5" rx="3.6" fill="url(#paint6_linear_1216_23997)"/>
<path d="M41.0704 20.0136C41.0276 20.052 41.0257 20.1185 41.0664 20.1592L43.3951 22.4879C43.4337 22.5265 43.4962 22.527 43.5354 22.4889L46.0092 20.0883C46.5665 19.5474 47.4568 19.5607 47.9977 20.118C48.5386 20.6754 48.5252 21.5657 47.9679 22.1066L45.5266 24.4758C45.4865 24.5147 45.486 24.5788 45.5255 24.6183L47.7339 26.8267C48.283 27.3759 48.283 28.2662 47.7339 28.8154C47.1847 29.3646 46.2943 29.3646 45.7451 28.8154L43.635 26.7052C43.5937 26.6639 43.526 26.6667 43.4878 26.7109C42.469 27.8905 41.1844 28.9783 39.2102 28.9783C36.6001 28.9783 34.3469 26.8765 34.3469 24.1882C34.3469 22.5943 35.2798 21.3531 36.1423 20.5049C36.3306 20.3197 36.5275 20.142 36.7268 19.9727C36.773 19.9335 36.7746 19.8626 36.7297 19.8218C36.7043 19.7988 36.6783 19.7752 36.6516 19.7511L36.5834 19.6893C36.3248 19.4549 36.0105 19.167 35.7202 18.8379C35.1126 18.1489 34.552 17.2126 34.552 15.9119C34.552 13.4606 36.5392 11.4734 38.9905 11.4734C41.4418 11.4734 43.429 13.4606 43.429 15.9119C43.429 17.4411 42.5147 18.5983 41.706 19.413C41.5009 19.6196 41.2856 19.8205 41.0704 20.0136ZM38.9905 14.2859C38.0925 14.2859 37.3645 15.0139 37.3645 15.9119C37.3645 16.3103 37.5071 16.6119 37.8296 16.9776C38.0044 17.1758 38.2119 17.3694 38.4724 17.6056L38.5481 17.6741C38.6672 17.7818 38.799 17.9009 38.9329 18.0277C38.9706 18.0634 39.0294 18.0648 39.0683 18.0304C39.2995 17.8262 39.5137 17.6293 39.71 17.4315C40.4028 16.7337 40.6165 16.2723 40.6165 15.9119C40.6165 15.0139 39.8885 14.2859 38.9905 14.2859ZM41.4967 24.6963C41.53 24.6567 41.5276 24.5979 41.4911 24.5613L38.8706 21.9409C38.8483 21.9186 38.8147 21.9124 38.7853 21.9239C38.7779 21.9268 38.7709 21.9308 38.7646 21.9358C38.5386 22.1178 38.3195 22.3084 38.1143 22.5102C37.4351 23.1782 37.1594 23.7314 37.1594 24.1882C37.1594 25.2456 38.0746 26.1658 39.2102 26.1658C40.0586 26.1658 40.5923 25.7714 41.4967 24.6963Z" fill="#FCF2FF"/>
<path d="M14.1467 11.6638C13.629 11.6638 13.2092 12.0836 13.2092 12.6013C13.2092 13.1191 13.629 13.5388 14.1467 13.5388L28.2422 13.5388C28.76 13.5388 29.1797 13.1191 29.1797 12.6013C29.1797 12.0836 28.76 11.6638 28.2422 11.6638L14.1467 11.6638Z" fill="#FCF2FF"/>
<path d="M13.255 17.2742C13.255 16.2386 14.0945 15.3992 15.13 15.3992H27.2589C28.2944 15.3992 29.1339 16.2386 29.1339 17.2742C29.1339 18.3097 28.2944 19.1492 27.2589 19.1492H23.1695C23.1142 19.1492 23.0695 19.1939 23.0695 19.2492V26.825C23.0695 27.8605 22.23 28.7 21.1945 28.7C20.1589 28.7 19.3195 27.8605 19.3195 26.825V19.2492C19.3195 19.1939 19.2747 19.1492 19.2195 19.1492H15.13C14.0945 19.1492 13.255 18.3097 13.255 17.2742Z" fill="#FCF2FF"/>
<path d="M20.4382 34.1199C16.8482 34.1199 13.938 37.0301 13.938 40.6201C13.938 44.2101 16.8482 47.1204 20.4382 47.1204C21.2149 47.1204 21.8445 47.75 21.8445 48.5266C21.8445 49.3033 21.2149 49.9329 20.4382 49.9329C15.2949 49.9329 11.1255 45.7634 11.1255 40.6201C11.1255 35.4768 15.2949 31.3074 20.4382 31.3074C25.5815 31.3074 29.751 35.4768 29.751 40.6201C29.751 41.9897 29.4544 43.2937 28.9207 44.4685C28.8983 44.518 28.8733 44.5655 28.846 44.6111C28.6217 45.0897 28.1355 45.4211 27.572 45.4211H23.3698C22.9605 45.4211 22.5922 45.2464 22.3352 44.9674C22.3034 44.9328 22.2526 44.922 22.2104 44.9426C21.6019 45.2397 20.9182 45.4064 20.1955 45.4064C17.6558 45.4064 15.5969 43.3476 15.5969 40.8079C15.5969 38.2682 17.6558 36.2093 20.1955 36.2093C20.942 36.2093 21.6469 36.3872 22.2703 36.7029C22.3106 36.7233 22.3595 36.7148 22.3921 36.6833C22.6451 36.4385 22.9898 36.2878 23.3698 36.2878C24.1464 36.2878 24.776 36.9174 24.776 37.6941V40.3984C24.7879 40.5333 24.794 40.6699 24.794 40.8079C24.794 40.9459 24.7879 41.0824 24.776 41.2174V42.5086C24.776 42.5639 24.8208 42.6086 24.876 42.6086H26.5562C26.5996 42.6086 26.6382 42.5806 26.651 42.5391C26.8377 41.9337 26.9385 41.2896 26.9385 40.6201C26.9385 37.0301 24.0282 34.1199 20.4382 34.1199ZM20.1955 39.0218C19.2091 39.0218 18.4094 39.8215 18.4094 40.8079C18.4094 41.7943 19.2091 42.5939 20.1955 42.5939C21.093 42.5939 21.836 41.9318 21.9625 41.0693C21.9632 41.0647 21.9635 41.0599 21.9635 41.0552V40.5605C21.9635 40.5558 21.9632 40.5511 21.9625 40.5464C21.836 39.6839 21.093 39.0218 20.1955 39.0218Z" fill="#FCF2FF"/>
<path d="M45.3941 32.4974C46.2902 33.0164 46.5959 34.1635 46.0769 35.0596L38.4157 48.2871C37.8967 49.1832 36.7496 49.4889 35.8535 48.9699C34.9574 48.4509 34.6517 47.3038 35.1707 46.4077L42.8318 33.1801C43.3508 32.2841 44.498 31.9784 45.3941 32.4974Z" fill="#FCF2FF"/>
<path d="M34.2748 35.1199C34.2748 33.5666 35.534 32.3074 37.0873 32.3074C38.6406 32.3074 39.8998 33.5666 39.8998 35.1199C39.8998 36.6732 38.6406 37.9324 37.0873 37.9324C35.534 37.9324 34.2748 36.6732 34.2748 35.1199ZM37.0873 34.1824C36.5696 34.1824 36.1498 34.6021 36.1498 35.1199C36.1498 35.6376 36.5696 36.0574 37.0873 36.0574C37.6051 36.0574 38.0248 35.6376 38.0248 35.1199C38.0248 34.6021 37.6051 34.1824 37.0873 34.1824Z" fill="#FCF2FF"/>
<path d="M44.6606 43.5427C43.1073 43.5427 41.8481 44.8019 41.8481 46.3552C41.8481 47.9085 43.1073 49.1677 44.6606 49.1677C46.2139 49.1677 47.4731 47.9085 47.4731 46.3552C47.4731 44.8019 46.2139 43.5427 44.6606 43.5427ZM43.7231 46.3552C43.7231 45.8374 44.1428 45.4177 44.6606 45.4177C45.1783 45.4177 45.5981 45.8374 45.5981 46.3552C45.5981 46.873 45.1783 47.2927 44.6606 47.2927C44.1428 47.2927 43.7231 46.873 43.7231 46.3552Z" fill="#FCF2FF"/>
</g>
<defs>
<linearGradient id="paint0_linear_1216_23997" x1="30" y1="3.75" x2="30" y2="56.25" gradientUnits="userSpaceOnUse">
<stop stop-color="#5BB3FD"/>
<stop offset="1" stop-color="#5194EC"/>
</linearGradient>
<radialGradient id="paint1_radial_1216_23997" cx="0" cy="0" r="1" gradientUnits="userSpaceOnUse" gradientTransform="translate(53.4375 6.5625) rotate(135) scale(6.62913 7.74266)">
<stop stop-color="#7AD3FE" stop-opacity="0.7"/>
<stop offset="1" stop-color="#7AD3FE" stop-opacity="0"/>
</radialGradient>
<radialGradient id="paint2_radial_1216_23997" cx="0" cy="0" r="1" gradientUnits="userSpaceOnUse" gradientTransform="translate(5.625 54.375) rotate(-40.6013) scale(8.64332 10.0952)">
<stop stop-color="#3F70D6" stop-opacity="0.7"/>
<stop offset="1" stop-color="#3F70D6" stop-opacity="0"/>
</radialGradient>
<linearGradient id="paint3_linear_1216_23997" x1="56.25" y1="30" x2="47.8125" y2="30" gradientUnits="userSpaceOnUse">
<stop stop-color="#7AD3FE" stop-opacity="0"/>
<stop offset="0.479167" stop-color="#7AD3FE" stop-opacity="0.1"/>
<stop offset="1" stop-color="#7AD3FE" stop-opacity="0"/>
</linearGradient>
<linearGradient id="paint4_linear_1216_23997" x1="30" y1="3.75" x2="30" y2="11.25" gradientUnits="userSpaceOnUse">
<stop stop-color="#7AD3FE" stop-opacity="0"/>
<stop offset="0.479167" stop-color="#7AD3FE" stop-opacity="0.13"/>
<stop offset="1" stop-color="#7AD3FE" stop-opacity="0"/>
</linearGradient>
<linearGradient id="paint5_linear_1216_23997" x1="30" y1="3.75" x2="30" y2="56.25" gradientUnits="userSpaceOnUse">
<stop stop-color="#3F70D6" stop-opacity="0.35"/>
<stop offset="0.058296" stop-color="#3F70D6" stop-opacity="0"/>
<stop offset="0.872197" stop-color="#3F70D6" stop-opacity="0"/>
<stop offset="0.939462" stop-color="#3F70D6" stop-opacity="0.438597"/>
<stop offset="1" stop-color="#3F70D6"/>
</linearGradient>
<linearGradient id="paint6_linear_1216_23997" x1="56.0648" y1="29.5291" x2="4.27109" y2="29.5291" gradientUnits="userSpaceOnUse">
<stop stop-color="#3F70D6" stop-opacity="0.35"/>
<stop offset="0.058296" stop-color="#3F70D6" stop-opacity="0"/>
<stop offset="0.872197" stop-color="#3F70D6" stop-opacity="0"/>
<stop offset="0.939462" stop-color="#3F70D6" stop-opacity="0.438597"/>
<stop offset="1" stop-color="#3F70D6"/>
</linearGradient>
<clipPath id="clip0_1216_23997">
<rect width="60" height="60" fill="white"/>
</clipPath>
</defs>
</svg>
