<svg width="60" height="60" viewBox="0 0 60 60" fill="none" xmlns="http://www.w3.org/2000/svg">
<path d="M7.56592 5.81543C7.56592 4.7799 8.40538 3.94043 9.44092 3.94043H47.2339C48.2694 3.94043 49.1089 4.7799 49.1089 5.81543V52.3096C49.1089 54.3806 47.43 56.0596 45.3589 56.0596H15.0659C10.9238 56.0596 7.56592 52.7017 7.56592 48.5596V5.81543Z" fill="url(#paint0_linear_1216_23994)"/>
<path d="M7.56592 5.81543C7.56592 4.7799 8.40538 3.94043 9.44092 3.94043H47.2339C48.2694 3.94043 49.1089 4.7799 49.1089 5.81543V52.3096C49.1089 54.3806 47.43 56.0596 45.3589 56.0596H15.0659C10.9238 56.0596 7.56592 52.7017 7.56592 48.5596V5.81543Z" fill="url(#paint1_radial_1216_23994)"/>
<path d="M7.56592 5.81543C7.56592 4.7799 8.40538 3.94043 9.44092 3.94043H47.2339C48.2694 3.94043 49.1089 4.7799 49.1089 5.81543V52.3096C49.1089 54.3806 47.43 56.0596 45.3589 56.0596H15.0659C10.9238 56.0596 7.56592 52.7017 7.56592 48.5596V5.81543Z" fill="url(#paint2_linear_1216_23994)" fill-opacity="0.74"/>
<path d="M7.56592 5.81543C7.56592 4.7799 8.40538 3.94043 9.44092 3.94043H47.2339C48.2694 3.94043 49.1089 4.7799 49.1089 5.81543V52.3096C49.1089 54.3806 47.43 56.0596 45.3589 56.0596H15.0659C10.9238 56.0596 7.56592 52.7017 7.56592 48.5596V5.81543Z" fill="url(#paint3_linear_1216_23994)" fill-opacity="0.39"/>
<path d="M7.56592 5.81543C7.56592 4.7799 8.40538 3.94043 9.44092 3.94043H47.2339C48.2694 3.94043 49.1089 4.7799 49.1089 5.81543V52.3096C49.1089 54.3806 47.43 56.0596 45.3589 56.0596H15.0659C10.9238 56.0596 7.56592 52.7017 7.56592 48.5596V5.81543Z" fill="url(#paint4_linear_1216_23994)"/>
<path d="M7.56592 5.81543C7.56592 4.7799 8.40538 3.94043 9.44092 3.94043H47.2339C48.2694 3.94043 49.1089 4.7799 49.1089 5.81543V52.3096C49.1089 54.3806 47.43 56.0596 45.3589 56.0596H15.0659C10.9238 56.0596 7.56592 52.7017 7.56592 48.5596V5.81543Z" fill="url(#paint5_linear_1216_23994)"/>
<path d="M7.56592 5.81543C7.56592 4.7799 8.40538 3.94043 9.44092 3.94043H47.2339C48.2694 3.94043 49.1089 4.7799 49.1089 5.81543V52.3096C49.1089 54.3806 47.43 56.0596 45.3589 56.0596H15.0659C10.9238 56.0596 7.56592 52.7017 7.56592 48.5596V5.81543Z" fill="url(#paint6_linear_1216_23994)"/>
<path d="M7.56592 5.81543C7.56592 4.7799 8.40538 3.94043 9.44092 3.94043H47.2339C48.2694 3.94043 49.1089 4.7799 49.1089 5.81543V52.3096C49.1089 54.3806 47.43 56.0596 45.3589 56.0596H15.0659C10.9238 56.0596 7.56592 52.7017 7.56592 48.5596V5.81543Z" fill="url(#paint7_linear_1216_23994)"/>
<path d="M7.56592 5.81543C7.56592 4.7799 8.40538 3.94043 9.44092 3.94043H47.2339C48.2694 3.94043 49.1089 4.7799 49.1089 5.81543V52.3096C49.1089 54.3806 47.43 56.0596 45.3589 56.0596H15.0659C10.9238 56.0596 7.56592 52.7017 7.56592 48.5596V5.81543Z" fill="url(#paint8_linear_1216_23994)"/>
<path d="M24.2651 47.915C23.2296 47.915 22.3901 48.7545 22.3901 49.79V49.9597C22.3901 52.3315 19.2914 55.4974 16.1426 55.9691V56.0596H47.8753C51.6632 56.0596 54.7339 52.9889 54.7339 49.201C54.7339 48.4908 54.1581 47.915 53.4479 47.915H24.2651Z" fill="url(#paint9_linear_1216_23994)"/>
<path d="M24.2651 47.915C23.2296 47.915 22.3901 48.7545 22.3901 49.79V49.9597C22.3901 52.3315 19.2914 55.4974 16.1426 55.9691V56.0596H47.8753C51.6632 56.0596 54.7339 52.9889 54.7339 49.201C54.7339 48.4908 54.1581 47.915 53.4479 47.915H24.2651Z" fill="url(#paint10_linear_1216_23994)"/>
<path d="M24.2651 47.915C23.2296 47.915 22.3901 48.7545 22.3901 49.79V49.9597C22.3901 52.3315 19.2914 55.4974 16.1426 55.9691V56.0596H47.8753C51.6632 56.0596 54.7339 52.9889 54.7339 49.201C54.7339 48.4908 54.1581 47.915 53.4479 47.915H24.2651Z" fill="url(#paint11_radial_1216_23994)"/>
<path d="M24.2651 47.915C23.2296 47.915 22.3901 48.7545 22.3901 49.79V49.9597C22.3901 52.3315 19.2914 55.4974 16.1426 55.9691V56.0596H47.8753C51.6632 56.0596 54.7339 52.9889 54.7339 49.201C54.7339 48.4908 54.1581 47.915 53.4479 47.915H24.2651Z" fill="url(#paint12_linear_1216_23994)"/>
<path d="M24.2651 47.915C23.2296 47.915 22.3901 48.7545 22.3901 49.79V49.9597C22.3901 52.3315 19.2914 55.4974 16.1426 55.9691V56.0596H47.8753C51.6632 56.0596 54.7339 52.9889 54.7339 49.201C54.7339 48.4908 54.1581 47.915 53.4479 47.915H24.2651Z" fill="url(#paint13_linear_1216_23994)"/>
<path d="M24.2651 47.915C23.2296 47.915 22.3901 48.7545 22.3901 49.79V49.9597C22.3901 52.3315 19.2914 55.4974 16.1426 55.9691V56.0596H47.8753C51.6632 56.0596 54.7339 52.9889 54.7339 49.201C54.7339 48.4908 54.1581 47.915 53.4479 47.915H24.2651Z" fill="url(#paint14_radial_1216_23994)"/>
<path fill-rule="evenodd" clip-rule="evenodd" d="M15.8267 18.8086C15.544 18.8086 15.3149 19.0377 15.3149 19.3203V20.2158C15.3149 20.4984 15.544 20.7275 15.8267 20.7275H40.8921C41.1747 20.7275 41.4038 20.4984 41.4038 20.2158V19.3203C41.4038 19.0377 41.1747 18.8086 40.8921 18.8086H15.8267ZM15.8267 24.4336C15.544 24.4336 15.3149 24.6627 15.3149 24.9453V25.8408C15.3149 26.1234 15.544 26.3525 15.8267 26.3525H40.8921C41.1747 26.3525 41.4038 26.1234 41.4038 25.8408V24.9453C41.4038 24.6627 41.1747 24.4336 40.8921 24.4336H15.8267ZM15.3149 30.5703C15.3149 30.2877 15.544 30.0586 15.8267 30.0586H40.8921C41.1747 30.0586 41.4038 30.2877 41.4038 30.5703V31.4658C41.4038 31.7484 41.1747 31.9775 40.8921 31.9775H15.8267C15.544 31.9775 15.3149 31.7484 15.3149 31.4658V30.5703ZM15.8267 35.6836C15.544 35.6836 15.3149 35.9127 15.3149 36.1953V37.0908C15.3149 37.3734 15.544 37.6025 15.8267 37.6025H31.6343C31.9169 37.6025 32.146 37.3734 32.146 37.0908V36.1953C32.146 35.9127 31.9169 35.6836 31.6343 35.6836H15.8267Z" fill="#9C96A2"/>
<defs>
<linearGradient id="paint0_linear_1216_23994" x1="11.2573" y1="34.7314" x2="47.7026" y2="34.7314" gradientUnits="userSpaceOnUse">
<stop stop-color="#EAE3F2"/>
<stop offset="0.829582" stop-color="#E0D9E7"/>
</linearGradient>
<radialGradient id="paint1_radial_1216_23994" cx="0" cy="0" r="1" gradientUnits="userSpaceOnUse" gradientTransform="translate(15.769 56.0596) rotate(-90) scale(9.96094 25.5469)">
<stop offset="0.276471" stop-color="#EAE7ED"/>
<stop offset="1" stop-color="#EAE7EE" stop-opacity="0"/>
</radialGradient>
<linearGradient id="paint2_linear_1216_23994" x1="48.9978" y1="20.0928" x2="48.2863" y2="20.0928" gradientUnits="userSpaceOnUse">
<stop stop-color="white"/>
<stop offset="1" stop-color="white" stop-opacity="0"/>
</linearGradient>
<linearGradient id="paint3_linear_1216_23994" x1="29.6625" y1="3.66767" x2="29.6625" y2="4.55195" gradientUnits="userSpaceOnUse">
<stop stop-color="white"/>
<stop offset="1" stop-color="white" stop-opacity="0"/>
</linearGradient>
<linearGradient id="paint4_linear_1216_23994" x1="7.24589" y1="12.9122" x2="8.08415" y2="12.9122" gradientUnits="userSpaceOnUse">
<stop stop-color="#BDB3C8"/>
<stop offset="1" stop-color="#BDB3C8" stop-opacity="0"/>
</linearGradient>
<linearGradient id="paint5_linear_1216_23994" x1="8.66752" y1="54.275" x2="9.73385" y2="53.8279" gradientUnits="userSpaceOnUse">
<stop stop-color="#BDB3C8"/>
<stop offset="1" stop-color="#BDB3C8" stop-opacity="0"/>
</linearGradient>
<linearGradient id="paint6_linear_1216_23994" x1="10.5085" y1="55.4217" x2="11.3455" y2="54.4705" gradientUnits="userSpaceOnUse">
<stop stop-color="#BDB3C8"/>
<stop offset="1" stop-color="#BDB3C8" stop-opacity="0"/>
</linearGradient>
<linearGradient id="paint7_linear_1216_23994" x1="13.5333" y1="56.9626" x2="13.9518" y2="55.4597" gradientUnits="userSpaceOnUse">
<stop stop-color="#BDB3C8"/>
<stop offset="1" stop-color="#BDB3C8" stop-opacity="0"/>
</linearGradient>
<linearGradient id="paint8_linear_1216_23994" x1="15.9303" y1="56.43" x2="15.9684" y2="55.669" gradientUnits="userSpaceOnUse">
<stop stop-color="#BDB3C8"/>
<stop offset="1" stop-color="#BDB3C8" stop-opacity="0"/>
</linearGradient>
<linearGradient id="paint9_linear_1216_23994" x1="35.4382" y1="48.6182" x2="35.4382" y2="56.0596" gradientUnits="userSpaceOnUse">
<stop stop-color="#DFD5EA"/>
<stop offset="1" stop-color="#C8B2DE"/>
</linearGradient>
<linearGradient id="paint10_linear_1216_23994" x1="31.2964" y1="56.3525" x2="31.2964" y2="54.126" gradientUnits="userSpaceOnUse">
<stop stop-color="#AB89CA"/>
<stop offset="1" stop-color="#C8B3DE" stop-opacity="0"/>
</linearGradient>
<radialGradient id="paint11_radial_1216_23994" cx="0" cy="0" r="1" gradientUnits="userSpaceOnUse" gradientTransform="translate(25.6128 60.6299) rotate(-24.3434) scale(31.7699 14.9142)">
<stop offset="0.94891" stop-color="#E7DFEF" stop-opacity="0"/>
<stop offset="0.995179" stop-color="#FFFCFF"/>
</radialGradient>
<linearGradient id="paint12_linear_1216_23994" x1="22.6153" y1="48.4612" x2="23.0595" y2="48.9796" gradientUnits="userSpaceOnUse">
<stop stop-color="#A8A1AE"/>
<stop offset="1" stop-color="#C6BFCD" stop-opacity="0"/>
</linearGradient>
<linearGradient id="paint13_linear_1216_23994" x1="21.7115" y1="49.3996" x2="22.446" y2="50.0777" gradientUnits="userSpaceOnUse">
<stop stop-color="#A8A1AE"/>
<stop offset="1" stop-color="#C6BFCD" stop-opacity="0"/>
</linearGradient>
<radialGradient id="paint14_radial_1216_23994" cx="0" cy="0" r="1" gradientUnits="userSpaceOnUse" gradientTransform="translate(19.5643 50.5485) rotate(24.1022) scale(4.70445 22.2912)">
<stop stop-color="#A8A1AE"/>
<stop offset="1" stop-color="#C6BFCD" stop-opacity="0"/>
</radialGradient>
</defs>
</svg>
