<svg width="60" height="60" viewBox="0 0 60 60" fill="none" xmlns="http://www.w3.org/2000/svg">
<g clip-path="url(#clip0_1216_24000)">
<path d="M66 35.5C66 52.0685 52.5685 65.5 36 65.5C19.4315 65.5 6 52.0685 6 35.5C6 18.9315 19.4315 5.5 36 5.5C52.5685 5.5 66 18.9315 66 35.5Z" fill="url(#paint0_linear_1216_24000)"/>
<path d="M66 35.5C66 52.0685 52.5685 65.5 36 65.5C19.4315 65.5 6 52.0685 6 35.5C6 18.9315 19.4315 5.5 36 5.5C52.5685 5.5 66 18.9315 66 35.5Z" fill="url(#paint1_radial_1216_24000)"/>
<path d="M66 35.5C66 52.0685 52.5685 65.5 36 65.5C19.4315 65.5 6 52.0685 6 35.5C6 18.9315 19.4315 5.5 36 5.5C52.5685 5.5 66 18.9315 66 35.5Z" fill="url(#paint2_linear_1216_24000)"/>
<path fill-rule="evenodd" clip-rule="evenodd" d="M30 56.25C44.4975 56.25 56.25 44.4975 56.25 30C56.25 15.5025 44.4975 3.75 30 3.75C15.5025 3.75 3.75 15.5025 3.75 30C3.75 44.4975 15.5025 56.25 30 56.25ZM50.4 29.8688C50.4 34.3077 48.9703 38.4194 46.5567 41.7745C46.3908 42.0051 46.0586 42.0275 45.8577 41.8267L17.9301 13.9174C17.7291 13.7165 17.7514 13.3841 17.9821 13.2181C21.3371 10.8046 25.4487 9.37503 29.8875 9.37503C41.1938 9.35628 50.4 18.5625 50.4 29.8688ZM9.375 29.8688C9.375 25.4119 10.8219 21.2995 13.2369 17.9444C13.4029 17.7138 13.7352 17.6915 13.9361 17.8924L41.8629 45.8192C42.0642 46.0204 42.0413 46.3534 41.81 46.5192C38.4383 48.9343 34.3265 50.3813 29.8875 50.3813C18.5812 50.3813 9.375 41.175 9.375 29.8688Z" fill="url(#paint3_linear_1216_24000)"/>
<path fill-rule="evenodd" clip-rule="evenodd" d="M30 56.25C44.4975 56.25 56.25 44.4975 56.25 30C56.25 15.5025 44.4975 3.75 30 3.75C15.5025 3.75 3.75 15.5025 3.75 30C3.75 44.4975 15.5025 56.25 30 56.25ZM50.4 29.8688C50.4 34.3077 48.9703 38.4194 46.5567 41.7745C46.3908 42.0051 46.0586 42.0275 45.8577 41.8267L17.9301 13.9174C17.7291 13.7165 17.7514 13.3841 17.9821 13.2181C21.3371 10.8046 25.4487 9.37503 29.8875 9.37503C41.1938 9.35628 50.4 18.5625 50.4 29.8688ZM9.375 29.8688C9.375 25.4119 10.8219 21.2995 13.2369 17.9444C13.4029 17.7138 13.7352 17.6915 13.9361 17.8924L41.8629 45.8192C42.0642 46.0204 42.0413 46.3534 41.81 46.5192C38.4383 48.9343 34.3265 50.3813 29.8875 50.3813C18.5812 50.3813 9.375 41.175 9.375 29.8688Z" fill="url(#paint4_radial_1216_24000)"/>
<path fill-rule="evenodd" clip-rule="evenodd" d="M30 56.25C44.4975 56.25 56.25 44.4975 56.25 30C56.25 15.5025 44.4975 3.75 30 3.75C15.5025 3.75 3.75 15.5025 3.75 30C3.75 44.4975 15.5025 56.25 30 56.25ZM50.4 29.8688C50.4 34.3077 48.9703 38.4194 46.5567 41.7745C46.3908 42.0051 46.0586 42.0275 45.8577 41.8267L17.9301 13.9174C17.7291 13.7165 17.7514 13.3841 17.9821 13.2181C21.3371 10.8046 25.4487 9.37503 29.8875 9.37503C41.1938 9.35628 50.4 18.5625 50.4 29.8688ZM9.375 29.8688C9.375 25.4119 10.8219 21.2995 13.2369 17.9444C13.4029 17.7138 13.7352 17.6915 13.9361 17.8924L41.8629 45.8192C42.0642 46.0204 42.0413 46.3534 41.81 46.5192C38.4383 48.9343 34.3265 50.3813 29.8875 50.3813C18.5812 50.3813 9.375 41.175 9.375 29.8688Z" fill="url(#paint5_radial_1216_24000)"/>
<path fill-rule="evenodd" clip-rule="evenodd" d="M30 56.25C44.4975 56.25 56.25 44.4975 56.25 30C56.25 15.5025 44.4975 3.75 30 3.75C15.5025 3.75 3.75 15.5025 3.75 30C3.75 44.4975 15.5025 56.25 30 56.25ZM50.4 29.8688C50.4 34.3077 48.9703 38.4194 46.5567 41.7745C46.3908 42.0051 46.0586 42.0275 45.8577 41.8267L17.9301 13.9174C17.7291 13.7165 17.7514 13.3841 17.9821 13.2181C21.3371 10.8046 25.4487 9.37503 29.8875 9.37503C41.1938 9.35628 50.4 18.5625 50.4 29.8688ZM9.375 29.8688C9.375 25.4119 10.8219 21.2995 13.2369 17.9444C13.4029 17.7138 13.7352 17.6915 13.9361 17.8924L41.8629 45.8192C42.0642 46.0204 42.0413 46.3534 41.81 46.5192C38.4383 48.9343 34.3265 50.3813 29.8875 50.3813C18.5812 50.3813 9.375 41.175 9.375 29.8688Z" fill="url(#paint6_radial_1216_24000)"/>
<path fill-rule="evenodd" clip-rule="evenodd" d="M30 56.25C44.4975 56.25 56.25 44.4975 56.25 30C56.25 15.5025 44.4975 3.75 30 3.75C15.5025 3.75 3.75 15.5025 3.75 30C3.75 44.4975 15.5025 56.25 30 56.25ZM50.4 29.8688C50.4 34.3077 48.9703 38.4194 46.5567 41.7745C46.3908 42.0051 46.0586 42.0275 45.8577 41.8267L17.9301 13.9174C17.7291 13.7165 17.7514 13.3841 17.9821 13.2181C21.3371 10.8046 25.4487 9.37503 29.8875 9.37503C41.1938 9.35628 50.4 18.5625 50.4 29.8688ZM9.375 29.8688C9.375 25.4119 10.8219 21.2995 13.2369 17.9444C13.4029 17.7138 13.7352 17.6915 13.9361 17.8924L41.8629 45.8192C42.0642 46.0204 42.0413 46.3534 41.81 46.5192C38.4383 48.9343 34.3265 50.3813 29.8875 50.3813C18.5812 50.3813 9.375 41.175 9.375 29.8688Z" fill="url(#paint7_radial_1216_24000)"/>
<path fill-rule="evenodd" clip-rule="evenodd" d="M30 56.25C44.4975 56.25 56.25 44.4975 56.25 30C56.25 15.5025 44.4975 3.75 30 3.75C15.5025 3.75 3.75 15.5025 3.75 30C3.75 44.4975 15.5025 56.25 30 56.25ZM50.4 29.8688C50.4 34.3077 48.9703 38.4194 46.5567 41.7745C46.3908 42.0051 46.0586 42.0275 45.8577 41.8267L17.9301 13.9174C17.7291 13.7165 17.7514 13.3841 17.9821 13.2181C21.3371 10.8046 25.4487 9.37503 29.8875 9.37503C41.1938 9.35628 50.4 18.5625 50.4 29.8688ZM9.375 29.8688C9.375 25.4119 10.8219 21.2995 13.2369 17.9444C13.4029 17.7138 13.7352 17.6915 13.9361 17.8924L41.8629 45.8192C42.0642 46.0204 42.0413 46.3534 41.81 46.5192C38.4383 48.9343 34.3265 50.3813 29.8875 50.3813C18.5812 50.3813 9.375 41.175 9.375 29.8688Z" fill="url(#paint8_radial_1216_24000)"/>
<path fill-rule="evenodd" clip-rule="evenodd" d="M30 56.25C44.4975 56.25 56.25 44.4975 56.25 30C56.25 15.5025 44.4975 3.75 30 3.75C15.5025 3.75 3.75 15.5025 3.75 30C3.75 44.4975 15.5025 56.25 30 56.25ZM50.4 29.8688C50.4 34.3077 48.9703 38.4194 46.5567 41.7745C46.3908 42.0051 46.0586 42.0275 45.8577 41.8267L17.9301 13.9174C17.7291 13.7165 17.7514 13.3841 17.9821 13.2181C21.3371 10.8046 25.4487 9.37503 29.8875 9.37503C41.1938 9.35628 50.4 18.5625 50.4 29.8688ZM9.375 29.8688C9.375 25.4119 10.8219 21.2995 13.2369 17.9444C13.4029 17.7138 13.7352 17.6915 13.9361 17.8924L41.8629 45.8192C42.0642 46.0204 42.0413 46.3534 41.81 46.5192C38.4383 48.9343 34.3265 50.3813 29.8875 50.3813C18.5812 50.3813 9.375 41.175 9.375 29.8688Z" fill="url(#paint9_radial_1216_24000)"/>
<path fill-rule="evenodd" clip-rule="evenodd" d="M30 56.25C44.4975 56.25 56.25 44.4975 56.25 30C56.25 15.5025 44.4975 3.75 30 3.75C15.5025 3.75 3.75 15.5025 3.75 30C3.75 44.4975 15.5025 56.25 30 56.25ZM50.4 29.8688C50.4 34.3077 48.9703 38.4194 46.5567 41.7745C46.3908 42.0051 46.0586 42.0275 45.8577 41.8267L17.9301 13.9174C17.7291 13.7165 17.7514 13.3841 17.9821 13.2181C21.3371 10.8046 25.4487 9.37503 29.8875 9.37503C41.1938 9.35628 50.4 18.5625 50.4 29.8688ZM9.375 29.8688C9.375 25.4119 10.8219 21.2995 13.2369 17.9444C13.4029 17.7138 13.7352 17.6915 13.9361 17.8924L41.8629 45.8192C42.0642 46.0204 42.0413 46.3534 41.81 46.5192C38.4383 48.9343 34.3265 50.3813 29.8875 50.3813C18.5812 50.3813 9.375 41.175 9.375 29.8688Z" fill="url(#paint10_radial_1216_24000)"/>
<path fill-rule="evenodd" clip-rule="evenodd" d="M30 56.25C44.4975 56.25 56.25 44.4975 56.25 30C56.25 15.5025 44.4975 3.75 30 3.75C15.5025 3.75 3.75 15.5025 3.75 30C3.75 44.4975 15.5025 56.25 30 56.25ZM50.4 29.8688C50.4 34.3077 48.9703 38.4194 46.5567 41.7745C46.3908 42.0051 46.0586 42.0275 45.8577 41.8267L17.9301 13.9174C17.7291 13.7165 17.7514 13.3841 17.9821 13.2181C21.3371 10.8046 25.4487 9.37503 29.8875 9.37503C41.1938 9.35628 50.4 18.5625 50.4 29.8688ZM9.375 29.8688C9.375 25.4119 10.8219 21.2995 13.2369 17.9444C13.4029 17.7138 13.7352 17.6915 13.9361 17.8924L41.8629 45.8192C42.0642 46.0204 42.0413 46.3534 41.81 46.5192C38.4383 48.9343 34.3265 50.3813 29.8875 50.3813C18.5812 50.3813 9.375 41.175 9.375 29.8688Z" fill="url(#paint11_radial_1216_24000)"/>
</g>
<defs>
<linearGradient id="paint0_linear_1216_24000" x1="49.5874" y1="10.6261" x2="22.3232" y2="39.9347" gradientUnits="userSpaceOnUse">
<stop stop-color="#FFF7FF"/>
<stop offset="1" stop-color="#FBF2FF"/>
</linearGradient>
<radialGradient id="paint1_radial_1216_24000" cx="0" cy="0" r="1" gradientUnits="userSpaceOnUse" gradientTransform="translate(31.8431 34.2902) rotate(135) scale(29.3721)">
<stop offset="0.864583" stop-color="#E9D6EA" stop-opacity="0"/>
<stop offset="0.920139" stop-color="#E9D6EA"/>
</radialGradient>
<linearGradient id="paint2_linear_1216_24000" x1="32.997" y1="33.1364" x2="27.2277" y2="38.9056" gradientUnits="userSpaceOnUse">
<stop offset="0.04375" stop-color="#E9D6EA" stop-opacity="0"/>
<stop offset="0.36875" stop-color="#E9D6EA"/>
<stop offset="0.6375" stop-color="#E9D6EA" stop-opacity="0"/>
</linearGradient>
<linearGradient id="paint3_linear_1216_24000" x1="53.3804" y1="30" x2="20.4503" y2="30" gradientUnits="userSpaceOnUse">
<stop stop-color="#FF5075"/>
<stop offset="1" stop-color="#FF4B51"/>
</linearGradient>
<radialGradient id="paint4_radial_1216_24000" cx="0" cy="0" r="1" gradientUnits="userSpaceOnUse" gradientTransform="translate(28.3646 32.3228) rotate(124.228) scale(30.7675)">
<stop offset="0.90345" stop-color="#FF74A7" stop-opacity="0"/>
<stop offset="0.926991" stop-color="#FF74A7"/>
</radialGradient>
<radialGradient id="paint5_radial_1216_24000" cx="0" cy="0" r="1" gradientUnits="userSpaceOnUse" gradientTransform="translate(31.2215 28.8951) rotate(135.971) scale(28.0441 26.9345)">
<stop offset="0.940798" stop-color="#D52555" stop-opacity="0"/>
<stop offset="1" stop-color="#CB1043"/>
</radialGradient>
<radialGradient id="paint6_radial_1216_24000" cx="0" cy="0" r="1" gradientUnits="userSpaceOnUse" gradientTransform="translate(29.707 30.293) rotate(131.082) scale(21.2214 21.7502)">
<stop offset="0.863069" stop-color="#FF74A7" stop-opacity="0"/>
<stop offset="0.946938" stop-color="#FF74A7"/>
<stop offset="1" stop-color="#FF74A7" stop-opacity="0"/>
</radialGradient>
<radialGradient id="paint7_radial_1216_24000" cx="0" cy="0" r="1" gradientUnits="userSpaceOnUse" gradientTransform="translate(30.7617 29.1797) rotate(131.539) scale(20.5878 21.1009)">
<stop offset="0.863069" stop-color="#D52555" stop-opacity="0"/>
<stop offset="0.946938" stop-color="#D52555"/>
<stop offset="1" stop-color="#D52555" stop-opacity="0"/>
</radialGradient>
<radialGradient id="paint8_radial_1216_24000" cx="0" cy="0" r="1" gradientUnits="userSpaceOnUse" gradientTransform="translate(31.1719 27.2461) rotate(44.7708) scale(20.7162 0.951774)">
<stop offset="0.470889" stop-color="#FF74A7"/>
<stop offset="1" stop-color="#FF74A7" stop-opacity="0"/>
</radialGradient>
<radialGradient id="paint9_radial_1216_24000" cx="0" cy="0" r="1" gradientUnits="userSpaceOnUse" gradientTransform="translate(27.1875 31.1719) rotate(45.2247) scale(21.1305 0.970809)">
<stop offset="0.470889" stop-color="#D52555" stop-opacity="0.5"/>
<stop offset="1" stop-color="#D52555" stop-opacity="0"/>
</radialGradient>
<radialGradient id="paint10_radial_1216_24000" cx="0" cy="0" r="1" gradientUnits="userSpaceOnUse" gradientTransform="translate(15.3369 15.3223) rotate(133.414) scale(3.36764 5.37708)">
<stop offset="0.70344" stop-color="#FF4B51"/>
<stop offset="1" stop-color="#FF4B51" stop-opacity="0"/>
</radialGradient>
<radialGradient id="paint11_radial_1216_24000" cx="0" cy="0" r="1" gradientUnits="userSpaceOnUse" gradientTransform="translate(44.4727 44.458) rotate(133.952) scale(3.398 5.42554)">
<stop offset="0.70344" stop-color="#FF4F6D"/>
<stop offset="1" stop-color="#FF4F6D" stop-opacity="0"/>
</radialGradient>
<clipPath id="clip0_1216_24000">
<rect width="60" height="60" fill="white"/>
</clipPath>
</defs>
</svg>
