<svg width="60" height="60" viewBox="0 0 60 60" fill="none" xmlns="http://www.w3.org/2000/svg">
<path fill-rule="evenodd" clip-rule="evenodd" d="M50.5885 8.99055C51.355 9.97748 51.4742 11.3213 50.8932 12.4277L41.9166 29.5226L52.015 27.1362C53.7283 26.7314 55.4453 27.792 55.8502 29.5052C56.255 31.2185 55.1944 32.9355 53.4811 33.3404L36.5759 37.3353C35.3605 37.6225 34.0894 37.1735 33.324 36.1867C32.5587 35.1998 32.4401 33.857 33.0207 32.7513L41.9912 15.6682L31.8059 18.0904C30.0933 18.4978 28.3747 17.4396 27.9674 15.7269C27.5601 14.0143 28.6183 12.2957 30.3309 11.8884L47.3336 7.8448C48.5494 7.55567 49.8219 8.00362 50.5885 8.99055Z" fill="url(#paint0_linear_1216_23991)"/>
<path fill-rule="evenodd" clip-rule="evenodd" d="M50.5885 8.99055C51.355 9.97748 51.4742 11.3213 50.8932 12.4277L41.9166 29.5226L52.015 27.1362C53.7283 26.7314 55.4453 27.792 55.8502 29.5052C56.255 31.2185 55.1944 32.9355 53.4811 33.3404L36.5759 37.3353C35.3605 37.6225 34.0894 37.1735 33.324 36.1867C32.5587 35.1998 32.4401 33.857 33.0207 32.7513L41.9912 15.6682L31.8059 18.0904C30.0933 18.4978 28.3747 17.4396 27.9674 15.7269C27.5601 14.0143 28.6183 12.2957 30.3309 11.8884L47.3336 7.8448C48.5494 7.55567 49.8219 8.00362 50.5885 8.99055Z" fill="url(#paint1_linear_1216_23991)"/>
<path fill-rule="evenodd" clip-rule="evenodd" d="M50.5885 8.99055C51.355 9.97748 51.4742 11.3213 50.8932 12.4277L41.9166 29.5226L52.015 27.1362C53.7283 26.7314 55.4453 27.792 55.8502 29.5052C56.255 31.2185 55.1944 32.9355 53.4811 33.3404L36.5759 37.3353C35.3605 37.6225 34.0894 37.1735 33.324 36.1867C32.5587 35.1998 32.4401 33.857 33.0207 32.7513L41.9912 15.6682L31.8059 18.0904C30.0933 18.4978 28.3747 17.4396 27.9674 15.7269C27.5601 14.0143 28.6183 12.2957 30.3309 11.8884L47.3336 7.8448C48.5494 7.55567 49.8219 8.00362 50.5885 8.99055Z" fill="url(#paint2_radial_1216_23991)"/>
<path fill-rule="evenodd" clip-rule="evenodd" d="M50.5885 8.99055C51.355 9.97748 51.4742 11.3213 50.8932 12.4277L41.9166 29.5226L52.015 27.1362C53.7283 26.7314 55.4453 27.792 55.8502 29.5052C56.255 31.2185 55.1944 32.9355 53.4811 33.3404L36.5759 37.3353C35.3605 37.6225 34.0894 37.1735 33.324 36.1867C32.5587 35.1998 32.4401 33.857 33.0207 32.7513L41.9912 15.6682L31.8059 18.0904C30.0933 18.4978 28.3747 17.4396 27.9674 15.7269C27.5601 14.0143 28.6183 12.2957 30.3309 11.8884L47.3336 7.8448C48.5494 7.55567 49.8219 8.00362 50.5885 8.99055Z" fill="url(#paint3_linear_1216_23991)"/>
<path fill-rule="evenodd" clip-rule="evenodd" d="M50.5885 8.99055C51.355 9.97748 51.4742 11.3213 50.8932 12.4277L41.9166 29.5226L52.015 27.1362C53.7283 26.7314 55.4453 27.792 55.8502 29.5052C56.255 31.2185 55.1944 32.9355 53.4811 33.3404L36.5759 37.3353C35.3605 37.6225 34.0894 37.1735 33.324 36.1867C32.5587 35.1998 32.4401 33.857 33.0207 32.7513L41.9912 15.6682L31.8059 18.0904C30.0933 18.4978 28.3747 17.4396 27.9674 15.7269C27.5601 14.0143 28.6183 12.2957 30.3309 11.8884L47.3336 7.8448C48.5494 7.55567 49.8219 8.00362 50.5885 8.99055Z" fill="url(#paint4_radial_1216_23991)"/>
<path fill-rule="evenodd" clip-rule="evenodd" d="M50.5885 8.99055C51.355 9.97748 51.4742 11.3213 50.8932 12.4277L41.9166 29.5226L52.015 27.1362C53.7283 26.7314 55.4453 27.792 55.8502 29.5052C56.255 31.2185 55.1944 32.9355 53.4811 33.3404L36.5759 37.3353C35.3605 37.6225 34.0894 37.1735 33.324 36.1867C32.5587 35.1998 32.4401 33.857 33.0207 32.7513L41.9912 15.6682L31.8059 18.0904C30.0933 18.4978 28.3747 17.4396 27.9674 15.7269C27.5601 14.0143 28.6183 12.2957 30.3309 11.8884L47.3336 7.8448C48.5494 7.55567 49.8219 8.00362 50.5885 8.99055Z" fill="url(#paint5_radial_1216_23991)"/>
<path fill-rule="evenodd" clip-rule="evenodd" d="M50.5885 8.99055C51.355 9.97748 51.4742 11.3213 50.8932 12.4277L41.9166 29.5226L52.015 27.1362C53.7283 26.7314 55.4453 27.792 55.8502 29.5052C56.255 31.2185 55.1944 32.9355 53.4811 33.3404L36.5759 37.3353C35.3605 37.6225 34.0894 37.1735 33.324 36.1867C32.5587 35.1998 32.4401 33.857 33.0207 32.7513L41.9912 15.6682L31.8059 18.0904C30.0933 18.4978 28.3747 17.4396 27.9674 15.7269C27.5601 14.0143 28.6183 12.2957 30.3309 11.8884L47.3336 7.8448C48.5494 7.55567 49.8219 8.00362 50.5885 8.99055Z" fill="url(#paint6_radial_1216_23991)"/>
<path fill-rule="evenodd" clip-rule="evenodd" d="M50.5885 8.99055C51.355 9.97748 51.4742 11.3213 50.8932 12.4277L41.9166 29.5226L52.015 27.1362C53.7283 26.7314 55.4453 27.792 55.8502 29.5052C56.255 31.2185 55.1944 32.9355 53.4811 33.3404L36.5759 37.3353C35.3605 37.6225 34.0894 37.1735 33.324 36.1867C32.5587 35.1998 32.4401 33.857 33.0207 32.7513L41.9912 15.6682L31.8059 18.0904C30.0933 18.4978 28.3747 17.4396 27.9674 15.7269C27.5601 14.0143 28.6183 12.2957 30.3309 11.8884L47.3336 7.8448C48.5494 7.55567 49.8219 8.00362 50.5885 8.99055Z" fill="url(#paint7_radial_1216_23991)"/>
<path fill-rule="evenodd" clip-rule="evenodd" d="M50.5885 8.99055C51.355 9.97748 51.4742 11.3213 50.8932 12.4277L41.9166 29.5226L52.015 27.1362C53.7283 26.7314 55.4453 27.792 55.8502 29.5052C56.255 31.2185 55.1944 32.9355 53.4811 33.3404L36.5759 37.3353C35.3605 37.6225 34.0894 37.1735 33.324 36.1867C32.5587 35.1998 32.4401 33.857 33.0207 32.7513L41.9912 15.6682L31.8059 18.0904C30.0933 18.4978 28.3747 17.4396 27.9674 15.7269C27.5601 14.0143 28.6183 12.2957 30.3309 11.8884L47.3336 7.8448C48.5494 7.55567 49.8219 8.00362 50.5885 8.99055Z" fill="url(#paint8_radial_1216_23991)"/>
<path fill-rule="evenodd" clip-rule="evenodd" d="M33.2404 26.8529C33.6179 27.6749 33.4803 28.6416 32.8884 29.3256L23.7431 39.8935L31.2537 39.8768C32.5279 39.8739 33.5632 40.9046 33.566 42.1788C33.5688 43.453 32.5382 44.4882 31.264 44.491L18.6908 44.519C17.7869 44.521 16.9651 43.995 16.5884 43.1733C16.2118 42.3516 16.3496 41.3857 16.9411 40.7022L26.0801 30.1415L18.5024 30.1692C17.2282 30.1739 16.1915 29.1447 16.1868 27.8705C16.1822 26.5964 17.2113 25.5597 18.4855 25.555L31.1354 25.5087C32.0399 25.5054 32.8629 26.031 33.2404 26.8529Z" fill="url(#paint9_linear_1216_23991)"/>
<path fill-rule="evenodd" clip-rule="evenodd" d="M33.2404 26.8529C33.6179 27.6749 33.4803 28.6416 32.8884 29.3256L23.7431 39.8935L31.2537 39.8768C32.5279 39.8739 33.5632 40.9046 33.566 42.1788C33.5688 43.453 32.5382 44.4882 31.264 44.491L18.6908 44.519C17.7869 44.521 16.9651 43.995 16.5884 43.1733C16.2118 42.3516 16.3496 41.3857 16.9411 40.7022L26.0801 30.1415L18.5024 30.1692C17.2282 30.1739 16.1915 29.1447 16.1868 27.8705C16.1822 26.5964 17.2113 25.5597 18.4855 25.555L31.1354 25.5087C32.0399 25.5054 32.8629 26.031 33.2404 26.8529Z" fill="url(#paint10_linear_1216_23991)"/>
<path fill-rule="evenodd" clip-rule="evenodd" d="M33.2404 26.8529C33.6179 27.6749 33.4803 28.6416 32.8884 29.3256L23.7431 39.8935L31.2537 39.8768C32.5279 39.8739 33.5632 40.9046 33.566 42.1788C33.5688 43.453 32.5382 44.4882 31.264 44.491L18.6908 44.519C17.7869 44.521 16.9651 43.995 16.5884 43.1733C16.2118 42.3516 16.3496 41.3857 16.9411 40.7022L26.0801 30.1415L18.5024 30.1692C17.2282 30.1739 16.1915 29.1447 16.1868 27.8705C16.1822 26.5964 17.2113 25.5597 18.4855 25.555L31.1354 25.5087C32.0399 25.5054 32.8629 26.031 33.2404 26.8529Z" fill="url(#paint11_radial_1216_23991)"/>
<path fill-rule="evenodd" clip-rule="evenodd" d="M33.2404 26.8529C33.6179 27.6749 33.4803 28.6416 32.8884 29.3256L23.7431 39.8935L31.2537 39.8768C32.5279 39.8739 33.5632 40.9046 33.566 42.1788C33.5688 43.453 32.5382 44.4882 31.264 44.491L18.6908 44.519C17.7869 44.521 16.9651 43.995 16.5884 43.1733C16.2118 42.3516 16.3496 41.3857 16.9411 40.7022L26.0801 30.1415L18.5024 30.1692C17.2282 30.1739 16.1915 29.1447 16.1868 27.8705C16.1822 26.5964 17.2113 25.5597 18.4855 25.555L31.1354 25.5087C32.0399 25.5054 32.8629 26.031 33.2404 26.8529Z" fill="url(#paint12_linear_1216_23991)"/>
<path fill-rule="evenodd" clip-rule="evenodd" d="M33.2404 26.8529C33.6179 27.6749 33.4803 28.6416 32.8884 29.3256L23.7431 39.8935L31.2537 39.8768C32.5279 39.8739 33.5632 40.9046 33.566 42.1788C33.5688 43.453 32.5382 44.4882 31.264 44.491L18.6908 44.519C17.7869 44.521 16.9651 43.995 16.5884 43.1733C16.2118 42.3516 16.3496 41.3857 16.9411 40.7022L26.0801 30.1415L18.5024 30.1692C17.2282 30.1739 16.1915 29.1447 16.1868 27.8705C16.1822 26.5964 17.2113 25.5597 18.4855 25.555L31.1354 25.5087C32.0399 25.5054 32.8629 26.031 33.2404 26.8529Z" fill="url(#paint13_radial_1216_23991)"/>
<path fill-rule="evenodd" clip-rule="evenodd" d="M33.2404 26.8529C33.6179 27.6749 33.4803 28.6416 32.8884 29.3256L23.7431 39.8935L31.2537 39.8768C32.5279 39.8739 33.5632 40.9046 33.566 42.1788C33.5688 43.453 32.5382 44.4882 31.264 44.491L18.6908 44.519C17.7869 44.521 16.9651 43.995 16.5884 43.1733C16.2118 42.3516 16.3496 41.3857 16.9411 40.7022L26.0801 30.1415L18.5024 30.1692C17.2282 30.1739 16.1915 29.1447 16.1868 27.8705C16.1822 26.5964 17.2113 25.5597 18.4855 25.555L31.1354 25.5087C32.0399 25.5054 32.8629 26.031 33.2404 26.8529Z" fill="url(#paint14_radial_1216_23991)"/>
<path fill-rule="evenodd" clip-rule="evenodd" d="M33.2404 26.8529C33.6179 27.6749 33.4803 28.6416 32.8884 29.3256L23.7431 39.8935L31.2537 39.8768C32.5279 39.8739 33.5632 40.9046 33.566 42.1788C33.5688 43.453 32.5382 44.4882 31.264 44.491L18.6908 44.519C17.7869 44.521 16.9651 43.995 16.5884 43.1733C16.2118 42.3516 16.3496 41.3857 16.9411 40.7022L26.0801 30.1415L18.5024 30.1692C17.2282 30.1739 16.1915 29.1447 16.1868 27.8705C16.1822 26.5964 17.2113 25.5597 18.4855 25.555L31.1354 25.5087C32.0399 25.5054 32.8629 26.031 33.2404 26.8529Z" fill="url(#paint15_radial_1216_23991)"/>
<path fill-rule="evenodd" clip-rule="evenodd" d="M33.2404 26.8529C33.6179 27.6749 33.4803 28.6416 32.8884 29.3256L23.7431 39.8935L31.2537 39.8768C32.5279 39.8739 33.5632 40.9046 33.566 42.1788C33.5688 43.453 32.5382 44.4882 31.264 44.491L18.6908 44.519C17.7869 44.521 16.9651 43.995 16.5884 43.1733C16.2118 42.3516 16.3496 41.3857 16.9411 40.7022L26.0801 30.1415L18.5024 30.1692C17.2282 30.1739 16.1915 29.1447 16.1868 27.8705C16.1822 26.5964 17.2113 25.5597 18.4855 25.555L31.1354 25.5087C32.0399 25.5054 32.8629 26.031 33.2404 26.8529Z" fill="url(#paint16_radial_1216_23991)"/>
<path fill-rule="evenodd" clip-rule="evenodd" d="M33.2404 26.8529C33.6179 27.6749 33.4803 28.6416 32.8884 29.3256L23.7431 39.8935L31.2537 39.8768C32.5279 39.8739 33.5632 40.9046 33.566 42.1788C33.5688 43.453 32.5382 44.4882 31.264 44.491L18.6908 44.519C17.7869 44.521 16.9651 43.995 16.5884 43.1733C16.2118 42.3516 16.3496 41.3857 16.9411 40.7022L26.0801 30.1415L18.5024 30.1692C17.2282 30.1739 16.1915 29.1447 16.1868 27.8705C16.1822 26.5964 17.2113 25.5597 18.4855 25.555L31.1354 25.5087C32.0399 25.5054 32.8629 26.031 33.2404 26.8529Z" fill="url(#paint17_radial_1216_23991)"/>
<path fill-rule="evenodd" clip-rule="evenodd" d="M18.6253 35.8056C18.7469 36.4562 18.4771 37.1178 17.9352 37.4979L9.56263 43.3701L14.8963 44.6955C15.8012 44.9204 16.3524 45.8362 16.1275 46.7411C15.9027 47.646 14.9868 48.1972 14.082 47.9724L5.15317 45.7535C4.51126 45.5939 4.02164 45.0743 3.9006 44.424C3.77956 43.7737 4.0494 43.1127 4.59092 42.7329L12.9578 36.8647L7.57451 35.5351C6.66932 35.3115 6.11676 34.3965 6.34034 33.4913C6.56391 32.5861 7.47895 32.0336 8.38414 32.2571L17.3706 34.4767C18.0132 34.6354 18.5038 35.155 18.6253 35.8056Z" fill="url(#paint18_linear_1216_23991)"/>
<path fill-rule="evenodd" clip-rule="evenodd" d="M18.6253 35.8056C18.7469 36.4562 18.4771 37.1178 17.9352 37.4979L9.56263 43.3701L14.8963 44.6955C15.8012 44.9204 16.3524 45.8362 16.1275 46.7411C15.9027 47.646 14.9868 48.1972 14.082 47.9724L5.15317 45.7535C4.51126 45.5939 4.02164 45.0743 3.9006 44.424C3.77956 43.7737 4.0494 43.1127 4.59092 42.7329L12.9578 36.8647L7.57451 35.5351C6.66932 35.3115 6.11676 34.3965 6.34034 33.4913C6.56391 32.5861 7.47895 32.0336 8.38414 32.2571L17.3706 34.4767C18.0132 34.6354 18.5038 35.155 18.6253 35.8056Z" fill="url(#paint19_linear_1216_23991)"/>
<path fill-rule="evenodd" clip-rule="evenodd" d="M18.6253 35.8056C18.7469 36.4562 18.4771 37.1178 17.9352 37.4979L9.56263 43.3701L14.8963 44.6955C15.8012 44.9204 16.3524 45.8362 16.1275 46.7411C15.9027 47.646 14.9868 48.1972 14.082 47.9724L5.15317 45.7535C4.51126 45.5939 4.02164 45.0743 3.9006 44.424C3.77956 43.7737 4.0494 43.1127 4.59092 42.7329L12.9578 36.8647L7.57451 35.5351C6.66932 35.3115 6.11676 34.3965 6.34034 33.4913C6.56391 32.5861 7.47895 32.0336 8.38414 32.2571L17.3706 34.4767C18.0132 34.6354 18.5038 35.155 18.6253 35.8056Z" fill="url(#paint20_radial_1216_23991)"/>
<path fill-rule="evenodd" clip-rule="evenodd" d="M18.6253 35.8056C18.7469 36.4562 18.4771 37.1178 17.9352 37.4979L9.56263 43.3701L14.8963 44.6955C15.8012 44.9204 16.3524 45.8362 16.1275 46.7411C15.9027 47.646 14.9868 48.1972 14.082 47.9724L5.15317 45.7535C4.51126 45.5939 4.02164 45.0743 3.9006 44.424C3.77956 43.7737 4.0494 43.1127 4.59092 42.7329L12.9578 36.8647L7.57451 35.5351C6.66932 35.3115 6.11676 34.3965 6.34034 33.4913C6.56391 32.5861 7.47895 32.0336 8.38414 32.2571L17.3706 34.4767C18.0132 34.6354 18.5038 35.155 18.6253 35.8056Z" fill="url(#paint21_linear_1216_23991)"/>
<path fill-rule="evenodd" clip-rule="evenodd" d="M18.6253 35.8056C18.7469 36.4562 18.4771 37.1178 17.9352 37.4979L9.56263 43.3701L14.8963 44.6955C15.8012 44.9204 16.3524 45.8362 16.1275 46.7411C15.9027 47.646 14.9868 48.1972 14.082 47.9724L5.15317 45.7535C4.51126 45.5939 4.02164 45.0743 3.9006 44.424C3.77956 43.7737 4.0494 43.1127 4.59092 42.7329L12.9578 36.8647L7.57451 35.5351C6.66932 35.3115 6.11676 34.3965 6.34034 33.4913C6.56391 32.5861 7.47895 32.0336 8.38414 32.2571L17.3706 34.4767C18.0132 34.6354 18.5038 35.155 18.6253 35.8056Z" fill="url(#paint22_radial_1216_23991)"/>
<path fill-rule="evenodd" clip-rule="evenodd" d="M18.6253 35.8056C18.7469 36.4562 18.4771 37.1178 17.9352 37.4979L9.56263 43.3701L14.8963 44.6955C15.8012 44.9204 16.3524 45.8362 16.1275 46.7411C15.9027 47.646 14.9868 48.1972 14.082 47.9724L5.15317 45.7535C4.51126 45.5939 4.02164 45.0743 3.9006 44.424C3.77956 43.7737 4.0494 43.1127 4.59092 42.7329L12.9578 36.8647L7.57451 35.5351C6.66932 35.3115 6.11676 34.3965 6.34034 33.4913C6.56391 32.5861 7.47895 32.0336 8.38414 32.2571L17.3706 34.4767C18.0132 34.6354 18.5038 35.155 18.6253 35.8056Z" fill="url(#paint23_radial_1216_23991)"/>
<path fill-rule="evenodd" clip-rule="evenodd" d="M18.6253 35.8056C18.7469 36.4562 18.4771 37.1178 17.9352 37.4979L9.56263 43.3701L14.8963 44.6955C15.8012 44.9204 16.3524 45.8362 16.1275 46.7411C15.9027 47.646 14.9868 48.1972 14.082 47.9724L5.15317 45.7535C4.51126 45.5939 4.02164 45.0743 3.9006 44.424C3.77956 43.7737 4.0494 43.1127 4.59092 42.7329L12.9578 36.8647L7.57451 35.5351C6.66932 35.3115 6.11676 34.3965 6.34034 33.4913C6.56391 32.5861 7.47895 32.0336 8.38414 32.2571L17.3706 34.4767C18.0132 34.6354 18.5038 35.155 18.6253 35.8056Z" fill="url(#paint24_radial_1216_23991)"/>
<path fill-rule="evenodd" clip-rule="evenodd" d="M18.6253 35.8056C18.7469 36.4562 18.4771 37.1178 17.9352 37.4979L9.56263 43.3701L14.8963 44.6955C15.8012 44.9204 16.3524 45.8362 16.1275 46.7411C15.9027 47.646 14.9868 48.1972 14.082 47.9724L5.15317 45.7535C4.51126 45.5939 4.02164 45.0743 3.9006 44.424C3.77956 43.7737 4.0494 43.1127 4.59092 42.7329L12.9578 36.8647L7.57451 35.5351C6.66932 35.3115 6.11676 34.3965 6.34034 33.4913C6.56391 32.5861 7.47895 32.0336 8.38414 32.2571L17.3706 34.4767C18.0132 34.6354 18.5038 35.155 18.6253 35.8056Z" fill="url(#paint25_radial_1216_23991)"/>
<path fill-rule="evenodd" clip-rule="evenodd" d="M18.6253 35.8056C18.7469 36.4562 18.4771 37.1178 17.9352 37.4979L9.56263 43.3701L14.8963 44.6955C15.8012 44.9204 16.3524 45.8362 16.1275 46.7411C15.9027 47.646 14.9868 48.1972 14.082 47.9724L5.15317 45.7535C4.51126 45.5939 4.02164 45.0743 3.9006 44.424C3.77956 43.7737 4.0494 43.1127 4.59092 42.7329L12.9578 36.8647L7.57451 35.5351C6.66932 35.3115 6.11676 34.3965 6.34034 33.4913C6.56391 32.5861 7.47895 32.0336 8.38414 32.2571L17.3706 34.4767C18.0132 34.6354 18.5038 35.155 18.6253 35.8056Z" fill="url(#paint26_radial_1216_23991)"/>
<defs>
<linearGradient id="paint0_linear_1216_23991" x1="38.9062" y1="9.7633" x2="40.3125" y2="15.9742" gradientUnits="userSpaceOnUse">
<stop stop-color="#3D98E4"/>
<stop offset="0.53125" stop-color="#3999FF"/>
<stop offset="1" stop-color="#3472EA"/>
</linearGradient>
<linearGradient id="paint1_linear_1216_23991" x1="44.6191" y1="28.6305" x2="46.0547" y2="35.193" gradientUnits="userSpaceOnUse">
<stop stop-color="#3D98E4" stop-opacity="0"/>
<stop offset="0.0263313" stop-color="#3D98E4"/>
<stop offset="0.53125" stop-color="#3999FF"/>
<stop offset="1" stop-color="#3472EA"/>
</linearGradient>
<radialGradient id="paint2_radial_1216_23991" cx="0" cy="0" r="1" gradientUnits="userSpaceOnUse" gradientTransform="translate(42.7572 27.9449) rotate(116.667) scale(5.93163 1.44425)">
<stop stop-color="#7EC6FD"/>
<stop offset="1" stop-color="#5CB8FF" stop-opacity="0"/>
</radialGradient>
<linearGradient id="paint3_linear_1216_23991" x1="46.2304" y1="22.0973" x2="40.166" y2="18.7867" gradientUnits="userSpaceOnUse">
<stop stop-color="#3D98E4" stop-opacity="0"/>
<stop offset="0.03125" stop-color="#3D98E4"/>
<stop offset="0.53125" stop-color="#3999FF"/>
<stop offset="0.987159" stop-color="#3472EA"/>
<stop offset="1" stop-color="#3472EA" stop-opacity="0"/>
</linearGradient>
<radialGradient id="paint4_radial_1216_23991" cx="0" cy="0" r="1" gradientUnits="userSpaceOnUse" gradientTransform="translate(25.9925 17.1972) rotate(-1.59114) scale(8.44076 12.2044)">
<stop stop-color="#2F6FC8"/>
<stop offset="1" stop-color="#2F6FC8" stop-opacity="0"/>
</radialGradient>
<radialGradient id="paint5_radial_1216_23991" cx="0" cy="0" r="1" gradientUnits="userSpaceOnUse" gradientTransform="translate(46.069 8.05254) rotate(118.425) scale(8.74111 6.04552)">
<stop offset="0.364906" stop-color="#3999FF"/>
<stop offset="1" stop-color="#3999FF" stop-opacity="0"/>
</radialGradient>
<radialGradient id="paint6_radial_1216_23991" cx="0" cy="0" r="1" gradientUnits="userSpaceOnUse" gradientTransform="translate(38.3203 37.4208) rotate(-63.7046) scale(5.68744 4.74575)">
<stop offset="0.364906" stop-color="#3999FF"/>
<stop offset="1" stop-color="#3999FF" stop-opacity="0"/>
</radialGradient>
<radialGradient id="paint7_radial_1216_23991" cx="0" cy="0" r="1" gradientUnits="userSpaceOnUse" gradientTransform="translate(50.4261 9.31455) rotate(124.556) scale(4.23541 3.943)">
<stop stop-color="#7EC6FD"/>
<stop offset="1" stop-color="#5CB8FF" stop-opacity="0"/>
</radialGradient>
<radialGradient id="paint8_radial_1216_23991" cx="0" cy="0" r="1" gradientUnits="userSpaceOnUse" gradientTransform="translate(53.3496 29.5094) rotate(167.106) scale(2.49454 3.21173)">
<stop stop-color="#7EC6FD"/>
<stop offset="1" stop-color="#5CB8FF" stop-opacity="0"/>
</radialGradient>
<linearGradient id="paint9_linear_1216_23991" x1="24.8796" y1="25.4712" x2="24.8466" y2="30.0804" gradientUnits="userSpaceOnUse">
<stop stop-color="#48D4FF"/>
<stop offset="0.53125" stop-color="#48D4FF"/>
<stop offset="1" stop-color="#40AAFE"/>
</linearGradient>
<linearGradient id="paint10_linear_1216_23991" x1="25.7949" y1="39.7104" x2="25.7245" y2="44.5722" gradientUnits="userSpaceOnUse">
<stop stop-color="#3D98E4" stop-opacity="0"/>
<stop offset="0.03125" stop-color="#53D7FF"/>
<stop offset="0.53125" stop-color="#51D6FF"/>
<stop offset="1" stop-color="#41A0FC"/>
</linearGradient>
<radialGradient id="paint11_radial_1216_23991" cx="0" cy="0" r="1" gradientUnits="userSpaceOnUse" gradientTransform="translate(24.5957 38.9202) rotate(129.835) scale(4.29336 1.04536)">
<stop stop-color="white" stop-opacity="0.6"/>
<stop offset="1" stop-color="white" stop-opacity="0"/>
</radialGradient>
<linearGradient id="paint12_linear_1216_23991" x1="28.0078" y1="35.3716" x2="24.2796" y2="32.0385" gradientUnits="userSpaceOnUse">
<stop stop-color="#3D98E4" stop-opacity="0"/>
<stop offset="0.03125" stop-color="#49C5FF"/>
<stop offset="0.53125" stop-color="#48D4FF"/>
<stop offset="0.987159" stop-color="#3EADFA"/>
<stop offset="1" stop-color="#3472EA" stop-opacity="0"/>
</linearGradient>
<radialGradient id="paint13_radial_1216_23991" cx="0" cy="0" r="1" gradientUnits="userSpaceOnUse" gradientTransform="translate(14.5525 28.5811) rotate(11.577) scale(6.10948 8.83362)">
<stop stop-color="#3EAAE1"/>
<stop offset="1" stop-color="#3EAAE1" stop-opacity="0"/>
</radialGradient>
<radialGradient id="paint14_radial_1216_23991" cx="0" cy="0" r="1" gradientUnits="userSpaceOnUse" gradientTransform="translate(30.2098 25.4466) rotate(131.593) scale(6.32688 4.37579)">
<stop offset="0.364906" stop-color="#48D4FF"/>
<stop offset="1" stop-color="#48D4FF" stop-opacity="0"/>
</radialGradient>
<radialGradient id="paint15_radial_1216_23991" cx="0" cy="0" r="1" gradientUnits="userSpaceOnUse" gradientTransform="translate(19.7272 44.5084) rotate(-90) scale(2.86983 16.7576)">
<stop offset="0.326234" stop-color="#41A0FC"/>
<stop offset="1" stop-color="#41A0FC" stop-opacity="0"/>
</radialGradient>
<radialGradient id="paint16_radial_1216_23991" cx="0" cy="0" r="1" gradientUnits="userSpaceOnUse" gradientTransform="translate(33.0725 27.0545) rotate(137.724) scale(3.06562 2.85397)">
<stop stop-color="#CBE8FF"/>
<stop offset="1" stop-color="#CBE8FF" stop-opacity="0"/>
</radialGradient>
<radialGradient id="paint17_radial_1216_23991" cx="0" cy="0" r="1" gradientUnits="userSpaceOnUse" gradientTransform="translate(31.803 41.7694) rotate(-179.726) scale(1.80557 2.32467)">
<stop stop-color="#CBE8FF" stop-opacity="0.6"/>
<stop offset="1" stop-color="#CBE8FF" stop-opacity="0"/>
</radialGradient>
<linearGradient id="paint18_linear_1216_23991" x1="12.9373" y1="33.3362" x2="12.0931" y2="36.6017" gradientUnits="userSpaceOnUse">
<stop stop-color="#94CAF9"/>
<stop offset="0.53125" stop-color="#92C3FA"/>
<stop offset="1" stop-color="#8189FF"/>
</linearGradient>
<linearGradient id="paint19_linear_1216_23991" x1="11.0515" y1="43.6054" x2="10.1359" y2="47.0436" gradientUnits="userSpaceOnUse">
<stop stop-color="#3D98E4" stop-opacity="0"/>
<stop offset="0.0263313" stop-color="#96CDFB"/>
<stop offset="0.53125" stop-color="#96CBFB"/>
<stop offset="1" stop-color="#8596FD"/>
</linearGradient>
<radialGradient id="paint20_radial_1216_23991" cx="0" cy="0" r="1" gradientUnits="userSpaceOnUse" gradientTransform="translate(10.3411 42.8311) rotate(143.918) scale(3.14165 0.764936)">
<stop stop-color="#7EC6FD"/>
<stop offset="1" stop-color="#5CB8FF" stop-opacity="0"/>
</radialGradient>
<linearGradient id="paint21_linear_1216_23991" x1="13.3946" y1="40.92" x2="11.342" y2="37.8905" gradientUnits="userSpaceOnUse">
<stop stop-color="#3D98E4" stop-opacity="0"/>
<stop offset="0.03125" stop-color="#89A6FC"/>
<stop offset="0.53125" stop-color="#92C6F8"/>
<stop offset="0.983855" stop-color="#C6DBF0"/>
<stop offset="0.989204" stop-color="#C6DBF0" stop-opacity="0"/>
</linearGradient>
<radialGradient id="paint22_radial_1216_23991" cx="0" cy="0" r="1" gradientUnits="userSpaceOnUse" gradientTransform="translate(5.05386 33.7046) rotate(25.6604) scale(4.47059 6.46397)">
<stop stop-color="#79A1D3"/>
<stop offset="1" stop-color="#79A1D3" stop-opacity="0"/>
</radialGradient>
<radialGradient id="paint23_radial_1216_23991" cx="0" cy="0" r="1" gradientUnits="userSpaceOnUse" gradientTransform="translate(16.7248 34.2678) rotate(145.676) scale(4.62967 3.20197)">
<stop offset="0.364906" stop-color="#94CAF9"/>
<stop offset="1" stop-color="#94CAF9" stop-opacity="0"/>
</radialGradient>
<radialGradient id="paint24_radial_1216_23991" cx="0" cy="0" r="1" gradientUnits="userSpaceOnUse" gradientTransform="translate(5.24416 45.7396) rotate(-73.1416) scale(2.02042 8.67898)">
<stop offset="0.226355" stop-color="#849BF6"/>
<stop offset="1" stop-color="#849BF6" stop-opacity="0"/>
</radialGradient>
<radialGradient id="paint25_radial_1216_23991" cx="0" cy="0" r="1" gradientUnits="userSpaceOnUse" gradientTransform="translate(18.4703 35.9187) rotate(151.808) scale(2.24326 2.08839)">
<stop stop-color="#D0EBFF"/>
<stop offset="1" stop-color="#D0EBFF" stop-opacity="0"/>
</radialGradient>
<radialGradient id="paint26_radial_1216_23991" cx="0" cy="0" r="1" gradientUnits="userSpaceOnUse" gradientTransform="translate(14.9491 46.1366) rotate(-165.642) scale(1.32122 1.70107)">
<stop stop-color="#D0EBFF"/>
<stop offset="1" stop-color="#D0EBFF" stop-opacity="0"/>
</radialGradient>
</defs>
</svg>
