<svg width="60" height="60" viewBox="0 0 60 60" fill="none" xmlns="http://www.w3.org/2000/svg">
<path d="M24.4449 39.1174C24.4449 41.5589 26.5919 43.5415 29.2358 43.5415C31.8798 43.5415 34.0267 41.5589 34.0267 39.0991V35.9073C34.0267 35.6992 34.1648 35.5164 34.3633 35.4537C40.6437 33.4702 45.0001 27.9728 45.0001 21.678V19.3283C45.0001 11.3796 38.0821 4.7526 29.5738 4.58738C25.2997 4.4956 21.2642 5.98254 18.2028 8.73613C15.1613 11.4897 13.4716 15.1979 13.4716 19.1447C13.4716 21.6046 15.6384 23.5872 18.2823 23.5872C20.9263 23.5872 23.0732 21.6046 23.0732 19.1631C23.0732 17.621 23.7293 16.1708 24.922 15.0877C26.1148 14.0047 27.6852 13.4172 29.375 13.4539C32.7147 13.5274 35.4183 16.1708 35.4183 19.3466V21.678C35.4183 24.4316 33.3111 26.7997 30.3888 27.2953C26.9497 27.8828 24.4449 30.6547 24.4449 33.8856V39.1174Z" fill="url(#paint0_linear_1216_23988)"/>
<path d="M24.4449 39.1174C24.4449 41.5589 26.5919 43.5415 29.2358 43.5415C31.8798 43.5415 34.0267 41.5589 34.0267 39.0991V35.9073C34.0267 35.6992 34.1648 35.5164 34.3633 35.4537C40.6437 33.4702 45.0001 27.9728 45.0001 21.678V19.3283C45.0001 11.3796 38.0821 4.7526 29.5738 4.58738C25.2997 4.4956 21.2642 5.98254 18.2028 8.73613C15.1613 11.4897 13.4716 15.1979 13.4716 19.1447C13.4716 21.6046 15.6384 23.5872 18.2823 23.5872C20.9263 23.5872 23.0732 21.6046 23.0732 19.1631C23.0732 17.621 23.7293 16.1708 24.922 15.0877C26.1148 14.0047 27.6852 13.4172 29.375 13.4539C32.7147 13.5274 35.4183 16.1708 35.4183 19.3466V21.678C35.4183 24.4316 33.3111 26.7997 30.3888 27.2953C26.9497 27.8828 24.4449 30.6547 24.4449 33.8856V39.1174Z" fill="url(#paint1_linear_1216_23988)"/>
<path d="M24.4449 39.1174C24.4449 41.5589 26.5919 43.5415 29.2358 43.5415C31.8798 43.5415 34.0267 41.5589 34.0267 39.0991V35.9073C34.0267 35.6992 34.1648 35.5164 34.3633 35.4537C40.6437 33.4702 45.0001 27.9728 45.0001 21.678V19.3283C45.0001 11.3796 38.0821 4.7526 29.5738 4.58738C25.2997 4.4956 21.2642 5.98254 18.2028 8.73613C15.1613 11.4897 13.4716 15.1979 13.4716 19.1447C13.4716 21.6046 15.6384 23.5872 18.2823 23.5872C20.9263 23.5872 23.0732 21.6046 23.0732 19.1631C23.0732 17.621 23.7293 16.1708 24.922 15.0877C26.1148 14.0047 27.6852 13.4172 29.375 13.4539C32.7147 13.5274 35.4183 16.1708 35.4183 19.3466V21.678C35.4183 24.4316 33.3111 26.7997 30.3888 27.2953C26.9497 27.8828 24.4449 30.6547 24.4449 33.8856V39.1174Z" fill="url(#paint2_radial_1216_23988)"/>
<path d="M24.4449 39.1174C24.4449 41.5589 26.5919 43.5415 29.2358 43.5415C31.8798 43.5415 34.0267 41.5589 34.0267 39.0991V35.9073C34.0267 35.6992 34.1648 35.5164 34.3633 35.4537C40.6437 33.4702 45.0001 27.9728 45.0001 21.678V19.3283C45.0001 11.3796 38.0821 4.7526 29.5738 4.58738C25.2997 4.4956 21.2642 5.98254 18.2028 8.73613C15.1613 11.4897 13.4716 15.1979 13.4716 19.1447C13.4716 21.6046 15.6384 23.5872 18.2823 23.5872C20.9263 23.5872 23.0732 21.6046 23.0732 19.1631C23.0732 17.621 23.7293 16.1708 24.922 15.0877C26.1148 14.0047 27.6852 13.4172 29.375 13.4539C32.7147 13.5274 35.4183 16.1708 35.4183 19.3466V21.678C35.4183 24.4316 33.3111 26.7997 30.3888 27.2953C26.9497 27.8828 24.4449 30.6547 24.4449 33.8856V39.1174Z" fill="url(#paint3_radial_1216_23988)"/>
<path d="M24.4449 39.1174C24.4449 41.5589 26.5919 43.5415 29.2358 43.5415C31.8798 43.5415 34.0267 41.5589 34.0267 39.0991V35.9073C34.0267 35.6992 34.1648 35.5164 34.3633 35.4537C40.6437 33.4702 45.0001 27.9728 45.0001 21.678V19.3283C45.0001 11.3796 38.0821 4.7526 29.5738 4.58738C25.2997 4.4956 21.2642 5.98254 18.2028 8.73613C15.1613 11.4897 13.4716 15.1979 13.4716 19.1447C13.4716 21.6046 15.6384 23.5872 18.2823 23.5872C20.9263 23.5872 23.0732 21.6046 23.0732 19.1631C23.0732 17.621 23.7293 16.1708 24.922 15.0877C26.1148 14.0047 27.6852 13.4172 29.375 13.4539C32.7147 13.5274 35.4183 16.1708 35.4183 19.3466V21.678C35.4183 24.4316 33.3111 26.7997 30.3888 27.2953C26.9497 27.8828 24.4449 30.6547 24.4449 33.8856V39.1174Z" fill="url(#paint4_radial_1216_23988)"/>
<path d="M24.4449 39.1174C24.4449 41.5589 26.5919 43.5415 29.2358 43.5415C31.8798 43.5415 34.0267 41.5589 34.0267 39.0991V35.9073C34.0267 35.6992 34.1648 35.5164 34.3633 35.4537C40.6437 33.4702 45.0001 27.9728 45.0001 21.678V19.3283C45.0001 11.3796 38.0821 4.7526 29.5738 4.58738C25.2997 4.4956 21.2642 5.98254 18.2028 8.73613C15.1613 11.4897 13.4716 15.1979 13.4716 19.1447C13.4716 21.6046 15.6384 23.5872 18.2823 23.5872C20.9263 23.5872 23.0732 21.6046 23.0732 19.1631C23.0732 17.621 23.7293 16.1708 24.922 15.0877C26.1148 14.0047 27.6852 13.4172 29.375 13.4539C32.7147 13.5274 35.4183 16.1708 35.4183 19.3466V21.678C35.4183 24.4316 33.3111 26.7997 30.3888 27.2953C26.9497 27.8828 24.4449 30.6547 24.4449 33.8856V39.1174Z" fill="url(#paint5_radial_1216_23988)"/>
<path d="M24.4449 39.1174C24.4449 41.5589 26.5919 43.5415 29.2358 43.5415C31.8798 43.5415 34.0267 41.5589 34.0267 39.0991V35.9073C34.0267 35.6992 34.1648 35.5164 34.3633 35.4537C40.6437 33.4702 45.0001 27.9728 45.0001 21.678V19.3283C45.0001 11.3796 38.0821 4.7526 29.5738 4.58738C25.2997 4.4956 21.2642 5.98254 18.2028 8.73613C15.1613 11.4897 13.4716 15.1979 13.4716 19.1447C13.4716 21.6046 15.6384 23.5872 18.2823 23.5872C20.9263 23.5872 23.0732 21.6046 23.0732 19.1631C23.0732 17.621 23.7293 16.1708 24.922 15.0877C26.1148 14.0047 27.6852 13.4172 29.375 13.4539C32.7147 13.5274 35.4183 16.1708 35.4183 19.3466V21.678C35.4183 24.4316 33.3111 26.7997 30.3888 27.2953C26.9497 27.8828 24.4449 30.6547 24.4449 33.8856V39.1174Z" fill="url(#paint6_radial_1216_23988)"/>
<path d="M24.4449 39.1174C24.4449 41.5589 26.5919 43.5415 29.2358 43.5415C31.8798 43.5415 34.0267 41.5589 34.0267 39.0991V35.9073C34.0267 35.6992 34.1648 35.5164 34.3633 35.4537C40.6437 33.4702 45.0001 27.9728 45.0001 21.678V19.3283C45.0001 11.3796 38.0821 4.7526 29.5738 4.58738C25.2997 4.4956 21.2642 5.98254 18.2028 8.73613C15.1613 11.4897 13.4716 15.1979 13.4716 19.1447C13.4716 21.6046 15.6384 23.5872 18.2823 23.5872C20.9263 23.5872 23.0732 21.6046 23.0732 19.1631C23.0732 17.621 23.7293 16.1708 24.922 15.0877C26.1148 14.0047 27.6852 13.4172 29.375 13.4539C32.7147 13.5274 35.4183 16.1708 35.4183 19.3466V21.678C35.4183 24.4316 33.3111 26.7997 30.3888 27.2953C26.9497 27.8828 24.4449 30.6547 24.4449 33.8856V39.1174Z" fill="url(#paint7_radial_1216_23988)"/>
<path d="M24.4449 39.1174C24.4449 41.5589 26.5919 43.5415 29.2358 43.5415C31.8798 43.5415 34.0267 41.5589 34.0267 39.0991V35.9073C34.0267 35.6992 34.1648 35.5164 34.3633 35.4537C40.6437 33.4702 45.0001 27.9728 45.0001 21.678V19.3283C45.0001 11.3796 38.0821 4.7526 29.5738 4.58738C25.2997 4.4956 21.2642 5.98254 18.2028 8.73613C15.1613 11.4897 13.4716 15.1979 13.4716 19.1447C13.4716 21.6046 15.6384 23.5872 18.2823 23.5872C20.9263 23.5872 23.0732 21.6046 23.0732 19.1631C23.0732 17.621 23.7293 16.1708 24.922 15.0877C26.1148 14.0047 27.6852 13.4172 29.375 13.4539C32.7147 13.5274 35.4183 16.1708 35.4183 19.3466V21.678C35.4183 24.4316 33.3111 26.7997 30.3888 27.2953C26.9497 27.8828 24.4449 30.6547 24.4449 33.8856V39.1174Z" fill="url(#paint8_radial_1216_23988)"/>
<path d="M24.4449 39.1174C24.4449 41.5589 26.5919 43.5415 29.2358 43.5415C31.8798 43.5415 34.0267 41.5589 34.0267 39.0991V35.9073C34.0267 35.6992 34.1648 35.5164 34.3633 35.4537C40.6437 33.4702 45.0001 27.9728 45.0001 21.678V19.3283C45.0001 11.3796 38.0821 4.7526 29.5738 4.58738C25.2997 4.4956 21.2642 5.98254 18.2028 8.73613C15.1613 11.4897 13.4716 15.1979 13.4716 19.1447C13.4716 21.6046 15.6384 23.5872 18.2823 23.5872C20.9263 23.5872 23.0732 21.6046 23.0732 19.1631C23.0732 17.621 23.7293 16.1708 24.922 15.0877C26.1148 14.0047 27.6852 13.4172 29.375 13.4539C32.7147 13.5274 35.4183 16.1708 35.4183 19.3466V21.678C35.4183 24.4316 33.3111 26.7997 30.3888 27.2953C26.9497 27.8828 24.4449 30.6547 24.4449 33.8856V39.1174Z" fill="url(#paint9_radial_1216_23988)"/>
<path d="M24.375 51.5625C24.375 54.1402 26.4848 56.25 29.0625 56.25C31.6402 56.25 33.75 54.1402 33.75 51.5625C33.75 48.9848 31.6402 46.875 29.0625 46.875C26.4848 46.875 24.375 48.9848 24.375 51.5625Z" fill="url(#paint10_radial_1216_23988)"/>
<defs>
<linearGradient id="paint0_linear_1216_23988" x1="15.3516" y1="27.6563" x2="39.2578" y2="12.4219" gradientUnits="userSpaceOnUse">
<stop stop-color="#ED1F28"/>
<stop offset="1" stop-color="#FF76A6"/>
</linearGradient>
<linearGradient id="paint1_linear_1216_23988" x1="29.2358" y1="43.5415" x2="29.2358" y2="4.58337" gradientUnits="userSpaceOnUse">
<stop stop-color="#ED1F28"/>
<stop offset="1" stop-color="#F41585" stop-opacity="0"/>
</linearGradient>
<radialGradient id="paint2_radial_1216_23988" cx="0" cy="0" r="1" gradientUnits="userSpaceOnUse" gradientTransform="translate(24.5411 34.9309) rotate(90) scale(8.61065 3.19187)">
<stop stop-color="#D53C46"/>
<stop offset="1" stop-color="#D53C46" stop-opacity="0"/>
</radialGradient>
<radialGradient id="paint3_radial_1216_23988" cx="0" cy="0" r="1" gradientUnits="userSpaceOnUse" gradientTransform="translate(28.1085 27.0451) rotate(135.347) scale(10.9532 4.06024)">
<stop stop-color="#D53C46"/>
<stop offset="1" stop-color="#D53C46" stop-opacity="0"/>
</radialGradient>
<radialGradient id="paint4_radial_1216_23988" cx="0" cy="0" r="1" gradientUnits="userSpaceOnUse" gradientTransform="translate(15.586 25.6641) rotate(102.123) scale(10.0683)">
<stop stop-color="#D53C46"/>
<stop offset="1" stop-color="#D53C46" stop-opacity="0"/>
</radialGradient>
<radialGradient id="paint5_radial_1216_23988" cx="0" cy="0" r="1" gradientUnits="userSpaceOnUse" gradientTransform="translate(29.2358 43.5416) rotate(-180) scale(6.3842 5.57282)">
<stop stop-color="#D53C46"/>
<stop offset="1" stop-color="#D53C46" stop-opacity="0"/>
</radialGradient>
<radialGradient id="paint6_radial_1216_23988" cx="0" cy="0" r="1" gradientUnits="userSpaceOnUse" gradientTransform="translate(33.6621 39.6973) rotate(93.0234) scale(8.33191 3.08854)">
<stop stop-color="#C5232E"/>
<stop offset="1" stop-color="#C5232E" stop-opacity="0"/>
</radialGradient>
<radialGradient id="paint7_radial_1216_23988" cx="0" cy="0" r="1" gradientUnits="userSpaceOnUse" gradientTransform="translate(39.6387 33.8965) rotate(156.402) scale(6.07435 4.87514)">
<stop stop-color="#C5232E"/>
<stop offset="1" stop-color="#C5232E" stop-opacity="0"/>
</radialGradient>
<radialGradient id="paint8_radial_1216_23988" cx="0" cy="0" r="1" gradientUnits="userSpaceOnUse" gradientTransform="translate(29.2358 24.0625) rotate(90) scale(23.2813 21.0326)">
<stop offset="0.749923" stop-color="#C5232E" stop-opacity="0"/>
<stop offset="1" stop-color="#C5232E"/>
</radialGradient>
<radialGradient id="paint9_radial_1216_23988" cx="0" cy="0" r="1" gradientUnits="userSpaceOnUse" gradientTransform="translate(29.2358 20.0043) rotate(90) scale(11.8707 11.0549)">
<stop offset="0.408399" stop-color="#D12A63"/>
<stop offset="0.859649" stop-color="#D12A63" stop-opacity="0"/>
</radialGradient>
<radialGradient id="paint10_radial_1216_23988" cx="0" cy="0" r="1" gradientUnits="userSpaceOnUse" gradientTransform="translate(31.0547 50.1562) rotate(135) scale(7.04345)">
<stop stop-color="#FF7479"/>
<stop offset="0.611765" stop-color="#FF3B50"/>
<stop offset="1" stop-color="#DD3650"/>
</radialGradient>
</defs>
</svg>
