<svg width="60" height="60" viewBox="0 0 60 60" fill="none" xmlns="http://www.w3.org/2000/svg">
<path fill-rule="evenodd" clip-rule="evenodd" d="M24.1385 12.4108C24.0382 13.6019 22.6003 14.1969 21.6881 13.4245C20.4949 12.4141 19.2294 11.4248 18.2892 10.8966C15.7356 9.46225 14.204 9.18245 11.7325 11.5906L11.6654 11.6582C11.6533 11.6701 11.6415 11.6824 11.6295 11.6947L11.5988 11.7261C9.19058 14.1976 9.46952 15.7283 10.9039 18.2819C11.4381 19.2329 12.444 20.5164 13.4662 21.7215C14.2404 22.6341 13.6438 24.0744 12.4511 24.1724C10.8772 24.3017 9.25985 24.498 8.21045 24.7925C5.39054 25.5839 4.10967 26.469 4.06494 29.9194L4.06524 30.0146C4.06513 30.0317 4.06541 30.0487 4.06569 30.0659L4.06616 30.1099C4.11089 33.5603 5.39054 34.4454 8.21045 35.2368C9.24456 35.527 10.8302 35.7219 12.3823 35.8512C13.5735 35.9504 14.1692 37.388 13.3976 38.3009C12.3992 39.4823 11.4261 40.7298 10.9039 41.6595C9.46952 44.2131 9.19058 45.7438 11.5988 48.2153L11.6295 48.2467C11.6415 48.259 11.6533 48.2713 11.6654 48.2832L11.7325 48.3508C14.204 50.759 15.7356 50.4792 18.2892 49.0448C19.2419 48.5096 20.5285 47.5009 21.7356 46.4767C22.6482 45.7023 24.0887 46.2989 24.1866 47.4918C24.3159 49.0676 24.5123 50.6876 24.8071 51.7383C25.5985 54.5582 26.4837 55.8391 29.9341 55.8838L30.0293 55.8835C30.0608 55.8837 30.0926 55.8826 30.1245 55.8826C33.5749 55.8378 34.4601 54.5582 35.2515 51.7383C35.5384 50.7157 35.7321 49.1539 35.8615 47.6185C35.9618 46.4274 37.3997 45.8324 38.3119 46.6048C39.5051 47.6152 40.7706 48.6045 41.7108 49.1327C44.2644 50.5671 45.796 50.8468 48.2675 48.4387L48.3346 48.3711L48.3569 48.3486L48.3705 48.3346L48.4012 48.3032C50.8094 45.8317 50.5305 44.301 49.0961 41.7474C48.5619 40.7964 47.556 39.5129 46.5338 38.3078C45.7596 37.3952 46.3562 35.9549 47.5489 35.8569C49.1228 35.7276 50.7402 35.5313 51.7896 35.2368C54.6095 34.4454 55.8903 33.5603 55.9351 30.1099L55.9348 30.0146C55.9349 29.9977 55.9346 29.9805 55.9343 29.9634L55.9338 29.9194C55.8891 26.469 54.6095 25.5839 51.7896 24.7925C50.7554 24.5023 49.1698 24.3074 47.6177 24.1781C46.4265 24.0789 45.8308 22.6413 46.6024 21.7284C47.6008 20.547 48.5739 19.2995 49.0961 18.3698C50.5305 15.8162 50.8094 14.2855 48.4012 11.814L48.3705 11.7826C48.3586 11.7703 48.3467 11.758 48.3346 11.7461L48.2675 11.6785C45.796 9.27034 44.2644 9.55014 41.7108 10.9845C40.7581 11.5197 39.4715 12.5284 38.2644 13.5526C37.3518 14.327 35.9113 13.7304 35.8134 12.5375C35.6841 10.9617 35.4877 9.34171 35.1929 8.29102C34.4015 5.4711 33.5163 4.19024 30.0659 4.14551L29.9707 4.14581C29.9537 4.1457 29.9366 4.14598 29.9195 4.14625L29.8755 4.14672C26.4251 4.19145 25.5399 5.4711 24.7485 8.29102C24.4616 9.31358 24.2679 10.8754 24.1385 12.4108ZM29.9927 40.1514C35.591 40.1514 40.1294 35.613 40.1294 30.0146C40.1294 24.4163 35.591 19.8779 29.9927 19.8779C24.3943 19.8779 19.856 24.4163 19.856 30.0146C19.856 35.613 24.3943 40.1514 29.9927 40.1514Z" fill="url(#paint0_linear_1215_23976)"/>
<path fill-rule="evenodd" clip-rule="evenodd" d="M24.1385 12.4108C24.0382 13.6019 22.6003 14.1969 21.6881 13.4245C20.4949 12.4141 19.2294 11.4248 18.2892 10.8966C15.7356 9.46225 14.204 9.18245 11.7325 11.5906L11.6654 11.6582C11.6533 11.6701 11.6415 11.6824 11.6295 11.6947L11.5988 11.7261C9.19058 14.1976 9.46952 15.7283 10.9039 18.2819C11.4381 19.2329 12.444 20.5164 13.4662 21.7215C14.2404 22.6341 13.6438 24.0744 12.4511 24.1724C10.8772 24.3017 9.25985 24.498 8.21045 24.7925C5.39054 25.5839 4.10967 26.469 4.06494 29.9194L4.06524 30.0146C4.06513 30.0317 4.06541 30.0487 4.06569 30.0659L4.06616 30.1099C4.11089 33.5603 5.39054 34.4454 8.21045 35.2368C9.24456 35.527 10.8302 35.7219 12.3823 35.8512C13.5735 35.9504 14.1692 37.388 13.3976 38.3009C12.3992 39.4823 11.4261 40.7298 10.9039 41.6595C9.46952 44.2131 9.19058 45.7438 11.5988 48.2153L11.6295 48.2467C11.6415 48.259 11.6533 48.2713 11.6654 48.2832L11.7325 48.3508C14.204 50.759 15.7356 50.4792 18.2892 49.0448C19.2419 48.5096 20.5285 47.5009 21.7356 46.4767C22.6482 45.7023 24.0887 46.2989 24.1866 47.4918C24.3159 49.0676 24.5123 50.6876 24.8071 51.7383C25.5985 54.5582 26.4837 55.8391 29.9341 55.8838L30.0293 55.8835C30.0608 55.8837 30.0926 55.8826 30.1245 55.8826C33.5749 55.8378 34.4601 54.5582 35.2515 51.7383C35.5384 50.7157 35.7321 49.1539 35.8615 47.6185C35.9618 46.4274 37.3997 45.8324 38.3119 46.6048C39.5051 47.6152 40.7706 48.6045 41.7108 49.1327C44.2644 50.5671 45.796 50.8468 48.2675 48.4387L48.3346 48.3711L48.3569 48.3486L48.3705 48.3346L48.4012 48.3032C50.8094 45.8317 50.5305 44.301 49.0961 41.7474C48.5619 40.7964 47.556 39.5129 46.5338 38.3078C45.7596 37.3952 46.3562 35.9549 47.5489 35.8569C49.1228 35.7276 50.7402 35.5313 51.7896 35.2368C54.6095 34.4454 55.8903 33.5603 55.9351 30.1099L55.9348 30.0146C55.9349 29.9977 55.9346 29.9805 55.9343 29.9634L55.9338 29.9194C55.8891 26.469 54.6095 25.5839 51.7896 24.7925C50.7554 24.5023 49.1698 24.3074 47.6177 24.1781C46.4265 24.0789 45.8308 22.6413 46.6024 21.7284C47.6008 20.547 48.5739 19.2995 49.0961 18.3698C50.5305 15.8162 50.8094 14.2855 48.4012 11.814L48.3705 11.7826C48.3586 11.7703 48.3467 11.758 48.3346 11.7461L48.2675 11.6785C45.796 9.27034 44.2644 9.55014 41.7108 10.9845C40.7581 11.5197 39.4715 12.5284 38.2644 13.5526C37.3518 14.327 35.9113 13.7304 35.8134 12.5375C35.6841 10.9617 35.4877 9.34171 35.1929 8.29102C34.4015 5.4711 33.5163 4.19024 30.0659 4.14551L29.9707 4.14581C29.9537 4.1457 29.9366 4.14598 29.9195 4.14625L29.8755 4.14672C26.4251 4.19145 25.5399 5.4711 24.7485 8.29102C24.4616 9.31358 24.2679 10.8754 24.1385 12.4108ZM29.9927 40.1514C35.591 40.1514 40.1294 35.613 40.1294 30.0146C40.1294 24.4163 35.591 19.8779 29.9927 19.8779C24.3943 19.8779 19.856 24.4163 19.856 30.0146C19.856 35.613 24.3943 40.1514 29.9927 40.1514Z" fill="url(#paint1_radial_1215_23976)"/>
<path fill-rule="evenodd" clip-rule="evenodd" d="M24.1385 12.4108C24.0382 13.6019 22.6003 14.1969 21.6881 13.4245C20.4949 12.4141 19.2294 11.4248 18.2892 10.8966C15.7356 9.46225 14.204 9.18245 11.7325 11.5906L11.6654 11.6582C11.6533 11.6701 11.6415 11.6824 11.6295 11.6947L11.5988 11.7261C9.19058 14.1976 9.46952 15.7283 10.9039 18.2819C11.4381 19.2329 12.444 20.5164 13.4662 21.7215C14.2404 22.6341 13.6438 24.0744 12.4511 24.1724C10.8772 24.3017 9.25985 24.498 8.21045 24.7925C5.39054 25.5839 4.10967 26.469 4.06494 29.9194L4.06524 30.0146C4.06513 30.0317 4.06541 30.0487 4.06569 30.0659L4.06616 30.1099C4.11089 33.5603 5.39054 34.4454 8.21045 35.2368C9.24456 35.527 10.8302 35.7219 12.3823 35.8512C13.5735 35.9504 14.1692 37.388 13.3976 38.3009C12.3992 39.4823 11.4261 40.7298 10.9039 41.6595C9.46952 44.2131 9.19058 45.7438 11.5988 48.2153L11.6295 48.2467C11.6415 48.259 11.6533 48.2713 11.6654 48.2832L11.7325 48.3508C14.204 50.759 15.7356 50.4792 18.2892 49.0448C19.2419 48.5096 20.5285 47.5009 21.7356 46.4767C22.6482 45.7023 24.0887 46.2989 24.1866 47.4918C24.3159 49.0676 24.5123 50.6876 24.8071 51.7383C25.5985 54.5582 26.4837 55.8391 29.9341 55.8838L30.0293 55.8835C30.0608 55.8837 30.0926 55.8826 30.1245 55.8826C33.5749 55.8378 34.4601 54.5582 35.2515 51.7383C35.5384 50.7157 35.7321 49.1539 35.8615 47.6185C35.9618 46.4274 37.3997 45.8324 38.3119 46.6048C39.5051 47.6152 40.7706 48.6045 41.7108 49.1327C44.2644 50.5671 45.796 50.8468 48.2675 48.4387L48.3346 48.3711L48.3569 48.3486L48.3705 48.3346L48.4012 48.3032C50.8094 45.8317 50.5305 44.301 49.0961 41.7474C48.5619 40.7964 47.556 39.5129 46.5338 38.3078C45.7596 37.3952 46.3562 35.9549 47.5489 35.8569C49.1228 35.7276 50.7402 35.5313 51.7896 35.2368C54.6095 34.4454 55.8903 33.5603 55.9351 30.1099L55.9348 30.0146C55.9349 29.9977 55.9346 29.9805 55.9343 29.9634L55.9338 29.9194C55.8891 26.469 54.6095 25.5839 51.7896 24.7925C50.7554 24.5023 49.1698 24.3074 47.6177 24.1781C46.4265 24.0789 45.8308 22.6413 46.6024 21.7284C47.6008 20.547 48.5739 19.2995 49.0961 18.3698C50.5305 15.8162 50.8094 14.2855 48.4012 11.814L48.3705 11.7826C48.3586 11.7703 48.3467 11.758 48.3346 11.7461L48.2675 11.6785C45.796 9.27034 44.2644 9.55014 41.7108 10.9845C40.7581 11.5197 39.4715 12.5284 38.2644 13.5526C37.3518 14.327 35.9113 13.7304 35.8134 12.5375C35.6841 10.9617 35.4877 9.34171 35.1929 8.29102C34.4015 5.4711 33.5163 4.19024 30.0659 4.14551L29.9707 4.14581C29.9537 4.1457 29.9366 4.14598 29.9195 4.14625L29.8755 4.14672C26.4251 4.19145 25.5399 5.4711 24.7485 8.29102C24.4616 9.31358 24.2679 10.8754 24.1385 12.4108ZM29.9927 40.1514C35.591 40.1514 40.1294 35.613 40.1294 30.0146C40.1294 24.4163 35.591 19.8779 29.9927 19.8779C24.3943 19.8779 19.856 24.4163 19.856 30.0146C19.856 35.613 24.3943 40.1514 29.9927 40.1514Z" fill="url(#paint2_radial_1215_23976)"/>
<path fill-rule="evenodd" clip-rule="evenodd" d="M24.1385 12.4108C24.0382 13.6019 22.6003 14.1969 21.6881 13.4245C20.4949 12.4141 19.2294 11.4248 18.2892 10.8966C15.7356 9.46225 14.204 9.18245 11.7325 11.5906L11.6654 11.6582C11.6533 11.6701 11.6415 11.6824 11.6295 11.6947L11.5988 11.7261C9.19058 14.1976 9.46952 15.7283 10.9039 18.2819C11.4381 19.2329 12.444 20.5164 13.4662 21.7215C14.2404 22.6341 13.6438 24.0744 12.4511 24.1724C10.8772 24.3017 9.25985 24.498 8.21045 24.7925C5.39054 25.5839 4.10967 26.469 4.06494 29.9194L4.06524 30.0146C4.06513 30.0317 4.06541 30.0487 4.06569 30.0659L4.06616 30.1099C4.11089 33.5603 5.39054 34.4454 8.21045 35.2368C9.24456 35.527 10.8302 35.7219 12.3823 35.8512C13.5735 35.9504 14.1692 37.388 13.3976 38.3009C12.3992 39.4823 11.4261 40.7298 10.9039 41.6595C9.46952 44.2131 9.19058 45.7438 11.5988 48.2153L11.6295 48.2467C11.6415 48.259 11.6533 48.2713 11.6654 48.2832L11.7325 48.3508C14.204 50.759 15.7356 50.4792 18.2892 49.0448C19.2419 48.5096 20.5285 47.5009 21.7356 46.4767C22.6482 45.7023 24.0887 46.2989 24.1866 47.4918C24.3159 49.0676 24.5123 50.6876 24.8071 51.7383C25.5985 54.5582 26.4837 55.8391 29.9341 55.8838L30.0293 55.8835C30.0608 55.8837 30.0926 55.8826 30.1245 55.8826C33.5749 55.8378 34.4601 54.5582 35.2515 51.7383C35.5384 50.7157 35.7321 49.1539 35.8615 47.6185C35.9618 46.4274 37.3997 45.8324 38.3119 46.6048C39.5051 47.6152 40.7706 48.6045 41.7108 49.1327C44.2644 50.5671 45.796 50.8468 48.2675 48.4387L48.3346 48.3711L48.3569 48.3486L48.3705 48.3346L48.4012 48.3032C50.8094 45.8317 50.5305 44.301 49.0961 41.7474C48.5619 40.7964 47.556 39.5129 46.5338 38.3078C45.7596 37.3952 46.3562 35.9549 47.5489 35.8569C49.1228 35.7276 50.7402 35.5313 51.7896 35.2368C54.6095 34.4454 55.8903 33.5603 55.9351 30.1099L55.9348 30.0146C55.9349 29.9977 55.9346 29.9805 55.9343 29.9634L55.9338 29.9194C55.8891 26.469 54.6095 25.5839 51.7896 24.7925C50.7554 24.5023 49.1698 24.3074 47.6177 24.1781C46.4265 24.0789 45.8308 22.6413 46.6024 21.7284C47.6008 20.547 48.5739 19.2995 49.0961 18.3698C50.5305 15.8162 50.8094 14.2855 48.4012 11.814L48.3705 11.7826C48.3586 11.7703 48.3467 11.758 48.3346 11.7461L48.2675 11.6785C45.796 9.27034 44.2644 9.55014 41.7108 10.9845C40.7581 11.5197 39.4715 12.5284 38.2644 13.5526C37.3518 14.327 35.9113 13.7304 35.8134 12.5375C35.6841 10.9617 35.4877 9.34171 35.1929 8.29102C34.4015 5.4711 33.5163 4.19024 30.0659 4.14551L29.9707 4.14581C29.9537 4.1457 29.9366 4.14598 29.9195 4.14625L29.8755 4.14672C26.4251 4.19145 25.5399 5.4711 24.7485 8.29102C24.4616 9.31358 24.2679 10.8754 24.1385 12.4108ZM29.9927 40.1514C35.591 40.1514 40.1294 35.613 40.1294 30.0146C40.1294 24.4163 35.591 19.8779 29.9927 19.8779C24.3943 19.8779 19.856 24.4163 19.856 30.0146C19.856 35.613 24.3943 40.1514 29.9927 40.1514Z" fill="url(#paint3_radial_1215_23976)"/>
<path fill-rule="evenodd" clip-rule="evenodd" d="M24.1385 12.4108C24.0382 13.6019 22.6003 14.1969 21.6881 13.4245C20.4949 12.4141 19.2294 11.4248 18.2892 10.8966C15.7356 9.46225 14.204 9.18245 11.7325 11.5906L11.6654 11.6582C11.6533 11.6701 11.6415 11.6824 11.6295 11.6947L11.5988 11.7261C9.19058 14.1976 9.46952 15.7283 10.9039 18.2819C11.4381 19.2329 12.444 20.5164 13.4662 21.7215C14.2404 22.6341 13.6438 24.0744 12.4511 24.1724C10.8772 24.3017 9.25985 24.498 8.21045 24.7925C5.39054 25.5839 4.10967 26.469 4.06494 29.9194L4.06524 30.0146C4.06513 30.0317 4.06541 30.0487 4.06569 30.0659L4.06616 30.1099C4.11089 33.5603 5.39054 34.4454 8.21045 35.2368C9.24456 35.527 10.8302 35.7219 12.3823 35.8512C13.5735 35.9504 14.1692 37.388 13.3976 38.3009C12.3992 39.4823 11.4261 40.7298 10.9039 41.6595C9.46952 44.2131 9.19058 45.7438 11.5988 48.2153L11.6295 48.2467C11.6415 48.259 11.6533 48.2713 11.6654 48.2832L11.7325 48.3508C14.204 50.759 15.7356 50.4792 18.2892 49.0448C19.2419 48.5096 20.5285 47.5009 21.7356 46.4767C22.6482 45.7023 24.0887 46.2989 24.1866 47.4918C24.3159 49.0676 24.5123 50.6876 24.8071 51.7383C25.5985 54.5582 26.4837 55.8391 29.9341 55.8838L30.0293 55.8835C30.0608 55.8837 30.0926 55.8826 30.1245 55.8826C33.5749 55.8378 34.4601 54.5582 35.2515 51.7383C35.5384 50.7157 35.7321 49.1539 35.8615 47.6185C35.9618 46.4274 37.3997 45.8324 38.3119 46.6048C39.5051 47.6152 40.7706 48.6045 41.7108 49.1327C44.2644 50.5671 45.796 50.8468 48.2675 48.4387L48.3346 48.3711L48.3569 48.3486L48.3705 48.3346L48.4012 48.3032C50.8094 45.8317 50.5305 44.301 49.0961 41.7474C48.5619 40.7964 47.556 39.5129 46.5338 38.3078C45.7596 37.3952 46.3562 35.9549 47.5489 35.8569C49.1228 35.7276 50.7402 35.5313 51.7896 35.2368C54.6095 34.4454 55.8903 33.5603 55.9351 30.1099L55.9348 30.0146C55.9349 29.9977 55.9346 29.9805 55.9343 29.9634L55.9338 29.9194C55.8891 26.469 54.6095 25.5839 51.7896 24.7925C50.7554 24.5023 49.1698 24.3074 47.6177 24.1781C46.4265 24.0789 45.8308 22.6413 46.6024 21.7284C47.6008 20.547 48.5739 19.2995 49.0961 18.3698C50.5305 15.8162 50.8094 14.2855 48.4012 11.814L48.3705 11.7826C48.3586 11.7703 48.3467 11.758 48.3346 11.7461L48.2675 11.6785C45.796 9.27034 44.2644 9.55014 41.7108 10.9845C40.7581 11.5197 39.4715 12.5284 38.2644 13.5526C37.3518 14.327 35.9113 13.7304 35.8134 12.5375C35.6841 10.9617 35.4877 9.34171 35.1929 8.29102C34.4015 5.4711 33.5163 4.19024 30.0659 4.14551L29.9707 4.14581C29.9537 4.1457 29.9366 4.14598 29.9195 4.14625L29.8755 4.14672C26.4251 4.19145 25.5399 5.4711 24.7485 8.29102C24.4616 9.31358 24.2679 10.8754 24.1385 12.4108ZM29.9927 40.1514C35.591 40.1514 40.1294 35.613 40.1294 30.0146C40.1294 24.4163 35.591 19.8779 29.9927 19.8779C24.3943 19.8779 19.856 24.4163 19.856 30.0146C19.856 35.613 24.3943 40.1514 29.9927 40.1514Z" fill="url(#paint4_radial_1215_23976)"/>
<path fill-rule="evenodd" clip-rule="evenodd" d="M24.1385 12.4108C24.0382 13.6019 22.6003 14.1969 21.6881 13.4245C20.4949 12.4141 19.2294 11.4248 18.2892 10.8966C15.7356 9.46225 14.204 9.18245 11.7325 11.5906L11.6654 11.6582C11.6533 11.6701 11.6415 11.6824 11.6295 11.6947L11.5988 11.7261C9.19058 14.1976 9.46952 15.7283 10.9039 18.2819C11.4381 19.2329 12.444 20.5164 13.4662 21.7215C14.2404 22.6341 13.6438 24.0744 12.4511 24.1724C10.8772 24.3017 9.25985 24.498 8.21045 24.7925C5.39054 25.5839 4.10967 26.469 4.06494 29.9194L4.06524 30.0146C4.06513 30.0317 4.06541 30.0487 4.06569 30.0659L4.06616 30.1099C4.11089 33.5603 5.39054 34.4454 8.21045 35.2368C9.24456 35.527 10.8302 35.7219 12.3823 35.8512C13.5735 35.9504 14.1692 37.388 13.3976 38.3009C12.3992 39.4823 11.4261 40.7298 10.9039 41.6595C9.46952 44.2131 9.19058 45.7438 11.5988 48.2153L11.6295 48.2467C11.6415 48.259 11.6533 48.2713 11.6654 48.2832L11.7325 48.3508C14.204 50.759 15.7356 50.4792 18.2892 49.0448C19.2419 48.5096 20.5285 47.5009 21.7356 46.4767C22.6482 45.7023 24.0887 46.2989 24.1866 47.4918C24.3159 49.0676 24.5123 50.6876 24.8071 51.7383C25.5985 54.5582 26.4837 55.8391 29.9341 55.8838L30.0293 55.8835C30.0608 55.8837 30.0926 55.8826 30.1245 55.8826C33.5749 55.8378 34.4601 54.5582 35.2515 51.7383C35.5384 50.7157 35.7321 49.1539 35.8615 47.6185C35.9618 46.4274 37.3997 45.8324 38.3119 46.6048C39.5051 47.6152 40.7706 48.6045 41.7108 49.1327C44.2644 50.5671 45.796 50.8468 48.2675 48.4387L48.3346 48.3711L48.3569 48.3486L48.3705 48.3346L48.4012 48.3032C50.8094 45.8317 50.5305 44.301 49.0961 41.7474C48.5619 40.7964 47.556 39.5129 46.5338 38.3078C45.7596 37.3952 46.3562 35.9549 47.5489 35.8569C49.1228 35.7276 50.7402 35.5313 51.7896 35.2368C54.6095 34.4454 55.8903 33.5603 55.9351 30.1099L55.9348 30.0146C55.9349 29.9977 55.9346 29.9805 55.9343 29.9634L55.9338 29.9194C55.8891 26.469 54.6095 25.5839 51.7896 24.7925C50.7554 24.5023 49.1698 24.3074 47.6177 24.1781C46.4265 24.0789 45.8308 22.6413 46.6024 21.7284C47.6008 20.547 48.5739 19.2995 49.0961 18.3698C50.5305 15.8162 50.8094 14.2855 48.4012 11.814L48.3705 11.7826C48.3586 11.7703 48.3467 11.758 48.3346 11.7461L48.2675 11.6785C45.796 9.27034 44.2644 9.55014 41.7108 10.9845C40.7581 11.5197 39.4715 12.5284 38.2644 13.5526C37.3518 14.327 35.9113 13.7304 35.8134 12.5375C35.6841 10.9617 35.4877 9.34171 35.1929 8.29102C34.4015 5.4711 33.5163 4.19024 30.0659 4.14551L29.9707 4.14581C29.9537 4.1457 29.9366 4.14598 29.9195 4.14625L29.8755 4.14672C26.4251 4.19145 25.5399 5.4711 24.7485 8.29102C24.4616 9.31358 24.2679 10.8754 24.1385 12.4108ZM29.9927 40.1514C35.591 40.1514 40.1294 35.613 40.1294 30.0146C40.1294 24.4163 35.591 19.8779 29.9927 19.8779C24.3943 19.8779 19.856 24.4163 19.856 30.0146C19.856 35.613 24.3943 40.1514 29.9927 40.1514Z" fill="url(#paint5_radial_1215_23976)"/>
<path fill-rule="evenodd" clip-rule="evenodd" d="M24.1385 12.4108C24.0382 13.6019 22.6003 14.1969 21.6881 13.4245C20.4949 12.4141 19.2294 11.4248 18.2892 10.8966C15.7356 9.46225 14.204 9.18245 11.7325 11.5906L11.6654 11.6582C11.6533 11.6701 11.6415 11.6824 11.6295 11.6947L11.5988 11.7261C9.19058 14.1976 9.46952 15.7283 10.9039 18.2819C11.4381 19.2329 12.444 20.5164 13.4662 21.7215C14.2404 22.6341 13.6438 24.0744 12.4511 24.1724C10.8772 24.3017 9.25985 24.498 8.21045 24.7925C5.39054 25.5839 4.10967 26.469 4.06494 29.9194L4.06524 30.0146C4.06513 30.0317 4.06541 30.0487 4.06569 30.0659L4.06616 30.1099C4.11089 33.5603 5.39054 34.4454 8.21045 35.2368C9.24456 35.527 10.8302 35.7219 12.3823 35.8512C13.5735 35.9504 14.1692 37.388 13.3976 38.3009C12.3992 39.4823 11.4261 40.7298 10.9039 41.6595C9.46952 44.2131 9.19058 45.7438 11.5988 48.2153L11.6295 48.2467C11.6415 48.259 11.6533 48.2713 11.6654 48.2832L11.7325 48.3508C14.204 50.759 15.7356 50.4792 18.2892 49.0448C19.2419 48.5096 20.5285 47.5009 21.7356 46.4767C22.6482 45.7023 24.0887 46.2989 24.1866 47.4918C24.3159 49.0676 24.5123 50.6876 24.8071 51.7383C25.5985 54.5582 26.4837 55.8391 29.9341 55.8838L30.0293 55.8835C30.0608 55.8837 30.0926 55.8826 30.1245 55.8826C33.5749 55.8378 34.4601 54.5582 35.2515 51.7383C35.5384 50.7157 35.7321 49.1539 35.8615 47.6185C35.9618 46.4274 37.3997 45.8324 38.3119 46.6048C39.5051 47.6152 40.7706 48.6045 41.7108 49.1327C44.2644 50.5671 45.796 50.8468 48.2675 48.4387L48.3346 48.3711L48.3569 48.3486L48.3705 48.3346L48.4012 48.3032C50.8094 45.8317 50.5305 44.301 49.0961 41.7474C48.5619 40.7964 47.556 39.5129 46.5338 38.3078C45.7596 37.3952 46.3562 35.9549 47.5489 35.8569C49.1228 35.7276 50.7402 35.5313 51.7896 35.2368C54.6095 34.4454 55.8903 33.5603 55.9351 30.1099L55.9348 30.0146C55.9349 29.9977 55.9346 29.9805 55.9343 29.9634L55.9338 29.9194C55.8891 26.469 54.6095 25.5839 51.7896 24.7925C50.7554 24.5023 49.1698 24.3074 47.6177 24.1781C46.4265 24.0789 45.8308 22.6413 46.6024 21.7284C47.6008 20.547 48.5739 19.2995 49.0961 18.3698C50.5305 15.8162 50.8094 14.2855 48.4012 11.814L48.3705 11.7826C48.3586 11.7703 48.3467 11.758 48.3346 11.7461L48.2675 11.6785C45.796 9.27034 44.2644 9.55014 41.7108 10.9845C40.7581 11.5197 39.4715 12.5284 38.2644 13.5526C37.3518 14.327 35.9113 13.7304 35.8134 12.5375C35.6841 10.9617 35.4877 9.34171 35.1929 8.29102C34.4015 5.4711 33.5163 4.19024 30.0659 4.14551L29.9707 4.14581C29.9537 4.1457 29.9366 4.14598 29.9195 4.14625L29.8755 4.14672C26.4251 4.19145 25.5399 5.4711 24.7485 8.29102C24.4616 9.31358 24.2679 10.8754 24.1385 12.4108ZM29.9927 40.1514C35.591 40.1514 40.1294 35.613 40.1294 30.0146C40.1294 24.4163 35.591 19.8779 29.9927 19.8779C24.3943 19.8779 19.856 24.4163 19.856 30.0146C19.856 35.613 24.3943 40.1514 29.9927 40.1514Z" fill="url(#paint6_radial_1215_23976)"/>
<path fill-rule="evenodd" clip-rule="evenodd" d="M24.1385 12.4108C24.0382 13.6019 22.6003 14.1969 21.6881 13.4245C20.4949 12.4141 19.2294 11.4248 18.2892 10.8966C15.7356 9.46225 14.204 9.18245 11.7325 11.5906L11.6654 11.6582C11.6533 11.6701 11.6415 11.6824 11.6295 11.6947L11.5988 11.7261C9.19058 14.1976 9.46952 15.7283 10.9039 18.2819C11.4381 19.2329 12.444 20.5164 13.4662 21.7215C14.2404 22.6341 13.6438 24.0744 12.4511 24.1724C10.8772 24.3017 9.25985 24.498 8.21045 24.7925C5.39054 25.5839 4.10967 26.469 4.06494 29.9194L4.06524 30.0146C4.06513 30.0317 4.06541 30.0487 4.06569 30.0659L4.06616 30.1099C4.11089 33.5603 5.39054 34.4454 8.21045 35.2368C9.24456 35.527 10.8302 35.7219 12.3823 35.8512C13.5735 35.9504 14.1692 37.388 13.3976 38.3009C12.3992 39.4823 11.4261 40.7298 10.9039 41.6595C9.46952 44.2131 9.19058 45.7438 11.5988 48.2153L11.6295 48.2467C11.6415 48.259 11.6533 48.2713 11.6654 48.2832L11.7325 48.3508C14.204 50.759 15.7356 50.4792 18.2892 49.0448C19.2419 48.5096 20.5285 47.5009 21.7356 46.4767C22.6482 45.7023 24.0887 46.2989 24.1866 47.4918C24.3159 49.0676 24.5123 50.6876 24.8071 51.7383C25.5985 54.5582 26.4837 55.8391 29.9341 55.8838L30.0293 55.8835C30.0608 55.8837 30.0926 55.8826 30.1245 55.8826C33.5749 55.8378 34.4601 54.5582 35.2515 51.7383C35.5384 50.7157 35.7321 49.1539 35.8615 47.6185C35.9618 46.4274 37.3997 45.8324 38.3119 46.6048C39.5051 47.6152 40.7706 48.6045 41.7108 49.1327C44.2644 50.5671 45.796 50.8468 48.2675 48.4387L48.3346 48.3711L48.3569 48.3486L48.3705 48.3346L48.4012 48.3032C50.8094 45.8317 50.5305 44.301 49.0961 41.7474C48.5619 40.7964 47.556 39.5129 46.5338 38.3078C45.7596 37.3952 46.3562 35.9549 47.5489 35.8569C49.1228 35.7276 50.7402 35.5313 51.7896 35.2368C54.6095 34.4454 55.8903 33.5603 55.9351 30.1099L55.9348 30.0146C55.9349 29.9977 55.9346 29.9805 55.9343 29.9634L55.9338 29.9194C55.8891 26.469 54.6095 25.5839 51.7896 24.7925C50.7554 24.5023 49.1698 24.3074 47.6177 24.1781C46.4265 24.0789 45.8308 22.6413 46.6024 21.7284C47.6008 20.547 48.5739 19.2995 49.0961 18.3698C50.5305 15.8162 50.8094 14.2855 48.4012 11.814L48.3705 11.7826C48.3586 11.7703 48.3467 11.758 48.3346 11.7461L48.2675 11.6785C45.796 9.27034 44.2644 9.55014 41.7108 10.9845C40.7581 11.5197 39.4715 12.5284 38.2644 13.5526C37.3518 14.327 35.9113 13.7304 35.8134 12.5375C35.6841 10.9617 35.4877 9.34171 35.1929 8.29102C34.4015 5.4711 33.5163 4.19024 30.0659 4.14551L29.9707 4.14581C29.9537 4.1457 29.9366 4.14598 29.9195 4.14625L29.8755 4.14672C26.4251 4.19145 25.5399 5.4711 24.7485 8.29102C24.4616 9.31358 24.2679 10.8754 24.1385 12.4108ZM29.9927 40.1514C35.591 40.1514 40.1294 35.613 40.1294 30.0146C40.1294 24.4163 35.591 19.8779 29.9927 19.8779C24.3943 19.8779 19.856 24.4163 19.856 30.0146C19.856 35.613 24.3943 40.1514 29.9927 40.1514Z" fill="url(#paint7_radial_1215_23976)"/>
<path fill-rule="evenodd" clip-rule="evenodd" d="M24.1385 12.4108C24.0382 13.6019 22.6003 14.1969 21.6881 13.4245C20.4949 12.4141 19.2294 11.4248 18.2892 10.8966C15.7356 9.46225 14.204 9.18245 11.7325 11.5906L11.6654 11.6582C11.6533 11.6701 11.6415 11.6824 11.6295 11.6947L11.5988 11.7261C9.19058 14.1976 9.46952 15.7283 10.9039 18.2819C11.4381 19.2329 12.444 20.5164 13.4662 21.7215C14.2404 22.6341 13.6438 24.0744 12.4511 24.1724C10.8772 24.3017 9.25985 24.498 8.21045 24.7925C5.39054 25.5839 4.10967 26.469 4.06494 29.9194L4.06524 30.0146C4.06513 30.0317 4.06541 30.0487 4.06569 30.0659L4.06616 30.1099C4.11089 33.5603 5.39054 34.4454 8.21045 35.2368C9.24456 35.527 10.8302 35.7219 12.3823 35.8512C13.5735 35.9504 14.1692 37.388 13.3976 38.3009C12.3992 39.4823 11.4261 40.7298 10.9039 41.6595C9.46952 44.2131 9.19058 45.7438 11.5988 48.2153L11.6295 48.2467C11.6415 48.259 11.6533 48.2713 11.6654 48.2832L11.7325 48.3508C14.204 50.759 15.7356 50.4792 18.2892 49.0448C19.2419 48.5096 20.5285 47.5009 21.7356 46.4767C22.6482 45.7023 24.0887 46.2989 24.1866 47.4918C24.3159 49.0676 24.5123 50.6876 24.8071 51.7383C25.5985 54.5582 26.4837 55.8391 29.9341 55.8838L30.0293 55.8835C30.0608 55.8837 30.0926 55.8826 30.1245 55.8826C33.5749 55.8378 34.4601 54.5582 35.2515 51.7383C35.5384 50.7157 35.7321 49.1539 35.8615 47.6185C35.9618 46.4274 37.3997 45.8324 38.3119 46.6048C39.5051 47.6152 40.7706 48.6045 41.7108 49.1327C44.2644 50.5671 45.796 50.8468 48.2675 48.4387L48.3346 48.3711L48.3569 48.3486L48.3705 48.3346L48.4012 48.3032C50.8094 45.8317 50.5305 44.301 49.0961 41.7474C48.5619 40.7964 47.556 39.5129 46.5338 38.3078C45.7596 37.3952 46.3562 35.9549 47.5489 35.8569C49.1228 35.7276 50.7402 35.5313 51.7896 35.2368C54.6095 34.4454 55.8903 33.5603 55.9351 30.1099L55.9348 30.0146C55.9349 29.9977 55.9346 29.9805 55.9343 29.9634L55.9338 29.9194C55.8891 26.469 54.6095 25.5839 51.7896 24.7925C50.7554 24.5023 49.1698 24.3074 47.6177 24.1781C46.4265 24.0789 45.8308 22.6413 46.6024 21.7284C47.6008 20.547 48.5739 19.2995 49.0961 18.3698C50.5305 15.8162 50.8094 14.2855 48.4012 11.814L48.3705 11.7826C48.3586 11.7703 48.3467 11.758 48.3346 11.7461L48.2675 11.6785C45.796 9.27034 44.2644 9.55014 41.7108 10.9845C40.7581 11.5197 39.4715 12.5284 38.2644 13.5526C37.3518 14.327 35.9113 13.7304 35.8134 12.5375C35.6841 10.9617 35.4877 9.34171 35.1929 8.29102C34.4015 5.4711 33.5163 4.19024 30.0659 4.14551L29.9707 4.14581C29.9537 4.1457 29.9366 4.14598 29.9195 4.14625L29.8755 4.14672C26.4251 4.19145 25.5399 5.4711 24.7485 8.29102C24.4616 9.31358 24.2679 10.8754 24.1385 12.4108ZM29.9927 40.1514C35.591 40.1514 40.1294 35.613 40.1294 30.0146C40.1294 24.4163 35.591 19.8779 29.9927 19.8779C24.3943 19.8779 19.856 24.4163 19.856 30.0146C19.856 35.613 24.3943 40.1514 29.9927 40.1514Z" fill="url(#paint8_radial_1215_23976)"/>
<path fill-rule="evenodd" clip-rule="evenodd" d="M24.1385 12.4108C24.0382 13.6019 22.6003 14.1969 21.6881 13.4245C20.4949 12.4141 19.2294 11.4248 18.2892 10.8966C15.7356 9.46225 14.204 9.18245 11.7325 11.5906L11.6654 11.6582C11.6533 11.6701 11.6415 11.6824 11.6295 11.6947L11.5988 11.7261C9.19058 14.1976 9.46952 15.7283 10.9039 18.2819C11.4381 19.2329 12.444 20.5164 13.4662 21.7215C14.2404 22.6341 13.6438 24.0744 12.4511 24.1724C10.8772 24.3017 9.25985 24.498 8.21045 24.7925C5.39054 25.5839 4.10967 26.469 4.06494 29.9194L4.06524 30.0146C4.06513 30.0317 4.06541 30.0487 4.06569 30.0659L4.06616 30.1099C4.11089 33.5603 5.39054 34.4454 8.21045 35.2368C9.24456 35.527 10.8302 35.7219 12.3823 35.8512C13.5735 35.9504 14.1692 37.388 13.3976 38.3009C12.3992 39.4823 11.4261 40.7298 10.9039 41.6595C9.46952 44.2131 9.19058 45.7438 11.5988 48.2153L11.6295 48.2467C11.6415 48.259 11.6533 48.2713 11.6654 48.2832L11.7325 48.3508C14.204 50.759 15.7356 50.4792 18.2892 49.0448C19.2419 48.5096 20.5285 47.5009 21.7356 46.4767C22.6482 45.7023 24.0887 46.2989 24.1866 47.4918C24.3159 49.0676 24.5123 50.6876 24.8071 51.7383C25.5985 54.5582 26.4837 55.8391 29.9341 55.8838L30.0293 55.8835C30.0608 55.8837 30.0926 55.8826 30.1245 55.8826C33.5749 55.8378 34.4601 54.5582 35.2515 51.7383C35.5384 50.7157 35.7321 49.1539 35.8615 47.6185C35.9618 46.4274 37.3997 45.8324 38.3119 46.6048C39.5051 47.6152 40.7706 48.6045 41.7108 49.1327C44.2644 50.5671 45.796 50.8468 48.2675 48.4387L48.3346 48.3711L48.3569 48.3486L48.3705 48.3346L48.4012 48.3032C50.8094 45.8317 50.5305 44.301 49.0961 41.7474C48.5619 40.7964 47.556 39.5129 46.5338 38.3078C45.7596 37.3952 46.3562 35.9549 47.5489 35.8569C49.1228 35.7276 50.7402 35.5313 51.7896 35.2368C54.6095 34.4454 55.8903 33.5603 55.9351 30.1099L55.9348 30.0146C55.9349 29.9977 55.9346 29.9805 55.9343 29.9634L55.9338 29.9194C55.8891 26.469 54.6095 25.5839 51.7896 24.7925C50.7554 24.5023 49.1698 24.3074 47.6177 24.1781C46.4265 24.0789 45.8308 22.6413 46.6024 21.7284C47.6008 20.547 48.5739 19.2995 49.0961 18.3698C50.5305 15.8162 50.8094 14.2855 48.4012 11.814L48.3705 11.7826C48.3586 11.7703 48.3467 11.758 48.3346 11.7461L48.2675 11.6785C45.796 9.27034 44.2644 9.55014 41.7108 10.9845C40.7581 11.5197 39.4715 12.5284 38.2644 13.5526C37.3518 14.327 35.9113 13.7304 35.8134 12.5375C35.6841 10.9617 35.4877 9.34171 35.1929 8.29102C34.4015 5.4711 33.5163 4.19024 30.0659 4.14551L29.9707 4.14581C29.9537 4.1457 29.9366 4.14598 29.9195 4.14625L29.8755 4.14672C26.4251 4.19145 25.5399 5.4711 24.7485 8.29102C24.4616 9.31358 24.2679 10.8754 24.1385 12.4108ZM29.9927 40.1514C35.591 40.1514 40.1294 35.613 40.1294 30.0146C40.1294 24.4163 35.591 19.8779 29.9927 19.8779C24.3943 19.8779 19.856 24.4163 19.856 30.0146C19.856 35.613 24.3943 40.1514 29.9927 40.1514Z" fill="url(#paint9_radial_1215_23976)"/>
<path fill-rule="evenodd" clip-rule="evenodd" d="M24.1385 12.4108C24.0382 13.6019 22.6003 14.1969 21.6881 13.4245C20.4949 12.4141 19.2294 11.4248 18.2892 10.8966C15.7356 9.46225 14.204 9.18245 11.7325 11.5906L11.6654 11.6582C11.6533 11.6701 11.6415 11.6824 11.6295 11.6947L11.5988 11.7261C9.19058 14.1976 9.46952 15.7283 10.9039 18.2819C11.4381 19.2329 12.444 20.5164 13.4662 21.7215C14.2404 22.6341 13.6438 24.0744 12.4511 24.1724C10.8772 24.3017 9.25985 24.498 8.21045 24.7925C5.39054 25.5839 4.10967 26.469 4.06494 29.9194L4.06524 30.0146C4.06513 30.0317 4.06541 30.0487 4.06569 30.0659L4.06616 30.1099C4.11089 33.5603 5.39054 34.4454 8.21045 35.2368C9.24456 35.527 10.8302 35.7219 12.3823 35.8512C13.5735 35.9504 14.1692 37.388 13.3976 38.3009C12.3992 39.4823 11.4261 40.7298 10.9039 41.6595C9.46952 44.2131 9.19058 45.7438 11.5988 48.2153L11.6295 48.2467C11.6415 48.259 11.6533 48.2713 11.6654 48.2832L11.7325 48.3508C14.204 50.759 15.7356 50.4792 18.2892 49.0448C19.2419 48.5096 20.5285 47.5009 21.7356 46.4767C22.6482 45.7023 24.0887 46.2989 24.1866 47.4918C24.3159 49.0676 24.5123 50.6876 24.8071 51.7383C25.5985 54.5582 26.4837 55.8391 29.9341 55.8838L30.0293 55.8835C30.0608 55.8837 30.0926 55.8826 30.1245 55.8826C33.5749 55.8378 34.4601 54.5582 35.2515 51.7383C35.5384 50.7157 35.7321 49.1539 35.8615 47.6185C35.9618 46.4274 37.3997 45.8324 38.3119 46.6048C39.5051 47.6152 40.7706 48.6045 41.7108 49.1327C44.2644 50.5671 45.796 50.8468 48.2675 48.4387L48.3346 48.3711L48.3569 48.3486L48.3705 48.3346L48.4012 48.3032C50.8094 45.8317 50.5305 44.301 49.0961 41.7474C48.5619 40.7964 47.556 39.5129 46.5338 38.3078C45.7596 37.3952 46.3562 35.9549 47.5489 35.8569C49.1228 35.7276 50.7402 35.5313 51.7896 35.2368C54.6095 34.4454 55.8903 33.5603 55.9351 30.1099L55.9348 30.0146C55.9349 29.9977 55.9346 29.9805 55.9343 29.9634L55.9338 29.9194C55.8891 26.469 54.6095 25.5839 51.7896 24.7925C50.7554 24.5023 49.1698 24.3074 47.6177 24.1781C46.4265 24.0789 45.8308 22.6413 46.6024 21.7284C47.6008 20.547 48.5739 19.2995 49.0961 18.3698C50.5305 15.8162 50.8094 14.2855 48.4012 11.814L48.3705 11.7826C48.3586 11.7703 48.3467 11.758 48.3346 11.7461L48.2675 11.6785C45.796 9.27034 44.2644 9.55014 41.7108 10.9845C40.7581 11.5197 39.4715 12.5284 38.2644 13.5526C37.3518 14.327 35.9113 13.7304 35.8134 12.5375C35.6841 10.9617 35.4877 9.34171 35.1929 8.29102C34.4015 5.4711 33.5163 4.19024 30.0659 4.14551L29.9707 4.14581C29.9537 4.1457 29.9366 4.14598 29.9195 4.14625L29.8755 4.14672C26.4251 4.19145 25.5399 5.4711 24.7485 8.29102C24.4616 9.31358 24.2679 10.8754 24.1385 12.4108ZM29.9927 40.1514C35.591 40.1514 40.1294 35.613 40.1294 30.0146C40.1294 24.4163 35.591 19.8779 29.9927 19.8779C24.3943 19.8779 19.856 24.4163 19.856 30.0146C19.856 35.613 24.3943 40.1514 29.9927 40.1514Z" fill="url(#paint10_radial_1215_23976)"/>
<path fill-rule="evenodd" clip-rule="evenodd" d="M24.1385 12.4108C24.0382 13.6019 22.6003 14.1969 21.6881 13.4245C20.4949 12.4141 19.2294 11.4248 18.2892 10.8966C15.7356 9.46225 14.204 9.18245 11.7325 11.5906L11.6654 11.6582C11.6533 11.6701 11.6415 11.6824 11.6295 11.6947L11.5988 11.7261C9.19058 14.1976 9.46952 15.7283 10.9039 18.2819C11.4381 19.2329 12.444 20.5164 13.4662 21.7215C14.2404 22.6341 13.6438 24.0744 12.4511 24.1724C10.8772 24.3017 9.25985 24.498 8.21045 24.7925C5.39054 25.5839 4.10967 26.469 4.06494 29.9194L4.06524 30.0146C4.06513 30.0317 4.06541 30.0487 4.06569 30.0659L4.06616 30.1099C4.11089 33.5603 5.39054 34.4454 8.21045 35.2368C9.24456 35.527 10.8302 35.7219 12.3823 35.8512C13.5735 35.9504 14.1692 37.388 13.3976 38.3009C12.3992 39.4823 11.4261 40.7298 10.9039 41.6595C9.46952 44.2131 9.19058 45.7438 11.5988 48.2153L11.6295 48.2467C11.6415 48.259 11.6533 48.2713 11.6654 48.2832L11.7325 48.3508C14.204 50.759 15.7356 50.4792 18.2892 49.0448C19.2419 48.5096 20.5285 47.5009 21.7356 46.4767C22.6482 45.7023 24.0887 46.2989 24.1866 47.4918C24.3159 49.0676 24.5123 50.6876 24.8071 51.7383C25.5985 54.5582 26.4837 55.8391 29.9341 55.8838L30.0293 55.8835C30.0608 55.8837 30.0926 55.8826 30.1245 55.8826C33.5749 55.8378 34.4601 54.5582 35.2515 51.7383C35.5384 50.7157 35.7321 49.1539 35.8615 47.6185C35.9618 46.4274 37.3997 45.8324 38.3119 46.6048C39.5051 47.6152 40.7706 48.6045 41.7108 49.1327C44.2644 50.5671 45.796 50.8468 48.2675 48.4387L48.3346 48.3711L48.3569 48.3486L48.3705 48.3346L48.4012 48.3032C50.8094 45.8317 50.5305 44.301 49.0961 41.7474C48.5619 40.7964 47.556 39.5129 46.5338 38.3078C45.7596 37.3952 46.3562 35.9549 47.5489 35.8569C49.1228 35.7276 50.7402 35.5313 51.7896 35.2368C54.6095 34.4454 55.8903 33.5603 55.9351 30.1099L55.9348 30.0146C55.9349 29.9977 55.9346 29.9805 55.9343 29.9634L55.9338 29.9194C55.8891 26.469 54.6095 25.5839 51.7896 24.7925C50.7554 24.5023 49.1698 24.3074 47.6177 24.1781C46.4265 24.0789 45.8308 22.6413 46.6024 21.7284C47.6008 20.547 48.5739 19.2995 49.0961 18.3698C50.5305 15.8162 50.8094 14.2855 48.4012 11.814L48.3705 11.7826C48.3586 11.7703 48.3467 11.758 48.3346 11.7461L48.2675 11.6785C45.796 9.27034 44.2644 9.55014 41.7108 10.9845C40.7581 11.5197 39.4715 12.5284 38.2644 13.5526C37.3518 14.327 35.9113 13.7304 35.8134 12.5375C35.6841 10.9617 35.4877 9.34171 35.1929 8.29102C34.4015 5.4711 33.5163 4.19024 30.0659 4.14551L29.9707 4.14581C29.9537 4.1457 29.9366 4.14598 29.9195 4.14625L29.8755 4.14672C26.4251 4.19145 25.5399 5.4711 24.7485 8.29102C24.4616 9.31358 24.2679 10.8754 24.1385 12.4108ZM29.9927 40.1514C35.591 40.1514 40.1294 35.613 40.1294 30.0146C40.1294 24.4163 35.591 19.8779 29.9927 19.8779C24.3943 19.8779 19.856 24.4163 19.856 30.0146C19.856 35.613 24.3943 40.1514 29.9927 40.1514Z" fill="url(#paint11_radial_1215_23976)"/>
<path d="M11.7718 11.7639L11.7708 11.7649C11.7601 11.7755 11.7494 11.7865 11.7373 11.799L11.7367 11.7996L11.7062 11.8308C10.5129 13.0555 10.0094 14.0231 9.96017 14.9809C9.91057 15.9452 10.3184 16.9332 11.0347 18.2084C11.5611 19.1456 12.5584 20.4194 13.5806 21.6245C14.4338 22.6302 13.7778 24.2139 12.4634 24.3219C10.8895 24.4512 9.2851 24.6467 8.25098 24.9369C6.84272 25.3321 5.85546 25.7424 5.20835 26.4593C4.56576 27.1713 4.23725 28.2112 4.21494 29.9202L4.21524 30.0142L4.21525 30.0156C4.21514 30.0306 4.21539 30.046 4.21567 30.0635L4.21568 30.0643L4.21615 30.1079C4.23831 31.8177 4.56653 32.8579 5.20898 33.57C5.85578 34.2869 6.84273 34.6972 8.25098 35.0924C9.26994 35.3784 10.8428 35.5724 12.3947 35.7017C13.7074 35.8111 14.3624 37.3917 13.5122 38.3977C12.5139 39.5789 11.5492 40.8169 11.0347 41.733C10.3184 43.0082 9.91057 43.9962 9.96017 44.9605C10.0094 45.9183 10.5129 46.8859 11.7062 48.1106L11.7367 48.1418L11.7373 48.1424C11.7494 48.1549 11.7601 48.1659 11.7708 48.1765L11.7718 48.1775L11.8372 48.2433C11.8375 48.2436 11.8378 48.2439 11.8381 48.2442C13.0623 49.4369 14.0299 49.9399 14.9877 49.9889C15.9523 50.0383 16.9405 49.6303 18.2157 48.914C19.1546 48.3866 20.4315 47.3865 21.6385 46.3623C22.6442 45.5089 24.2282 46.165 24.3361 47.4796C24.4654 49.0552 24.661 50.6623 24.9515 51.6978C25.3468 53.106 25.757 54.0933 26.474 54.7404C27.1859 55.383 28.2258 55.7115 29.9348 55.7338L30.0288 55.7335L30.0303 55.7335C30.0689 55.7337 30.0774 55.7326 30.1237 55.7326M11.7718 11.7639L30.1245 55.8826M11.7718 11.7639L11.8381 11.6972C13.0623 10.5045 14.0299 10.0015 14.9877 9.95247C15.9523 9.90308 16.9405 10.3111 18.2157 11.0274C19.1422 11.5479 20.398 12.5287 21.5912 13.5389C22.5965 14.3902 24.1774 13.7359 24.288 12.4234C24.4173 10.8882 24.6102 9.33907 24.893 8.33155C25.2882 6.92329 25.6984 5.93635 26.4154 5.28955C27.1275 4.6471 28.1677 4.31888 29.8774 4.29671L29.9211 4.29625L29.9219 4.29623C29.9393 4.29595 29.9547 4.29571 29.9698 4.29581L29.9712 4.29581L30.0652 4.29551L11.7718 11.7639ZM30.1237 55.7326C30.124 55.7326 30.1243 55.7326 30.1245 55.7326V55.8826M30.1237 55.7326C30.1233 55.7326 30.123 55.7326 30.1226 55.7326L30.1245 55.8826M30.1237 55.7326C31.8328 55.7103 32.8727 55.3821 33.5846 54.7397C34.3016 54.0929 34.7118 53.106 35.107 51.6978C35.3898 50.6902 35.5827 49.1411 35.712 47.6059C35.8226 46.2934 37.4035 45.6391 38.4088 46.4904C39.602 47.5006 40.8578 48.4814 41.7843 49.0019C43.0595 49.7182 44.0477 50.1262 45.0123 50.0768C45.9701 50.0278 46.9377 49.5248 48.162 48.332L48.161 48.3329L48.2675 48.4387M30.1245 55.8826C33.5749 55.8378 34.4601 54.5582 35.2515 51.7383C35.5384 50.7157 35.7321 49.1539 35.8615 47.6185C35.9618 46.4274 37.3997 45.8324 38.3119 46.6048C39.5051 47.6152 40.7706 48.6045 41.7108 49.1327C44.2644 50.5671 45.796 50.8468 48.2675 48.4387M48.2675 48.4387L48.1628 48.3312M48.2675 48.4387L48.1628 48.3312M48.1628 48.3312L48.228 48.2656L48.3346 48.3711L48.2282 48.2654L48.1628 48.3312ZM48.2504 48.243L48.2492 48.2441L48.3569 48.3486L48.2504 48.243ZM48.2941 48.1982L48.2938 48.1985L48.4012 48.3032L48.2941 48.1982ZM55.7851 30.1091L55.7851 30.1103L55.9351 30.1099L55.7851 30.1079C55.7851 30.1083 55.7851 30.1087 55.7851 30.1091ZM55.7839 29.921L55.7839 29.9214L55.9338 29.9194L55.7839 29.921ZM48.2938 11.9187L48.294 11.9189L48.4012 11.814L48.2938 11.9187ZM48.1619 11.7851C48.1622 11.7854 48.1625 11.7857 48.1628 11.7859L48.161 11.7842L48.1619 11.7851ZM29.9927 40.3014C35.6739 40.3014 40.2794 35.6958 40.2794 30.0146C40.2794 24.3335 35.6739 19.7279 29.9927 19.7279C24.3115 19.7279 19.706 24.3335 19.706 30.0146C19.706 35.6958 24.3115 40.3014 29.9927 40.3014Z" stroke="url(#paint12_radial_1215_23976)" stroke-width="0.3"/>
<path d="M11.7718 11.7639L11.7708 11.7649C11.7601 11.7755 11.7494 11.7865 11.7373 11.799L11.7367 11.7996L11.7062 11.8308C10.5129 13.0555 10.0094 14.0231 9.96017 14.9809C9.91057 15.9452 10.3184 16.9332 11.0347 18.2084C11.5611 19.1456 12.5584 20.4194 13.5806 21.6245C14.4338 22.6302 13.7778 24.2139 12.4634 24.3219C10.8895 24.4512 9.2851 24.6467 8.25098 24.9369C6.84272 25.3321 5.85546 25.7424 5.20835 26.4593C4.56576 27.1713 4.23725 28.2112 4.21494 29.9202L4.21524 30.0142L4.21525 30.0156C4.21514 30.0306 4.21539 30.046 4.21567 30.0635L4.21568 30.0643L4.21615 30.1079C4.23831 31.8177 4.56653 32.8579 5.20898 33.57C5.85578 34.2869 6.84273 34.6972 8.25098 35.0924C9.26994 35.3784 10.8428 35.5724 12.3947 35.7017C13.7074 35.8111 14.3624 37.3917 13.5122 38.3977C12.5139 39.5789 11.5492 40.8169 11.0347 41.733C10.3184 43.0082 9.91057 43.9962 9.96017 44.9605C10.0094 45.9183 10.5129 46.8859 11.7062 48.1106L11.7367 48.1418L11.7373 48.1424C11.7494 48.1549 11.7601 48.1659 11.7708 48.1765L11.7718 48.1775L11.8372 48.2433C11.8375 48.2436 11.8378 48.2439 11.8381 48.2442C13.0623 49.4369 14.0299 49.9399 14.9877 49.9889C15.9523 50.0383 16.9405 49.6303 18.2157 48.914C19.1546 48.3866 20.4315 47.3865 21.6385 46.3623C22.6442 45.5089 24.2282 46.165 24.3361 47.4796C24.4654 49.0552 24.661 50.6623 24.9515 51.6978C25.3468 53.106 25.757 54.0933 26.474 54.7404C27.1859 55.383 28.2258 55.7115 29.9348 55.7338L30.0288 55.7335L30.0303 55.7335C30.0689 55.7337 30.0774 55.7326 30.1237 55.7326M11.7718 11.7639L30.1245 55.8826M11.7718 11.7639L11.8381 11.6972C13.0623 10.5045 14.0299 10.0015 14.9877 9.95247C15.9523 9.90308 16.9405 10.3111 18.2157 11.0274C19.1422 11.5479 20.398 12.5287 21.5912 13.5389C22.5965 14.3902 24.1774 13.7359 24.288 12.4234C24.4173 10.8882 24.6102 9.33907 24.893 8.33155C25.2882 6.92329 25.6984 5.93635 26.4154 5.28955C27.1275 4.6471 28.1677 4.31888 29.8774 4.29671L29.9211 4.29625L29.9219 4.29623C29.9393 4.29595 29.9547 4.29571 29.9698 4.29581L29.9712 4.29581L30.0652 4.29551L11.7718 11.7639ZM30.1237 55.7326C30.124 55.7326 30.1243 55.7326 30.1245 55.7326V55.8826M30.1237 55.7326C30.1233 55.7326 30.123 55.7326 30.1226 55.7326L30.1245 55.8826M30.1237 55.7326C31.8328 55.7103 32.8727 55.3821 33.5846 54.7397C34.3016 54.0929 34.7118 53.106 35.107 51.6978C35.3898 50.6902 35.5827 49.1411 35.712 47.6059C35.8226 46.2934 37.4035 45.6391 38.4088 46.4904C39.602 47.5006 40.8578 48.4814 41.7843 49.0019C43.0595 49.7182 44.0477 50.1262 45.0123 50.0768C45.9701 50.0278 46.9377 49.5248 48.162 48.332L48.161 48.3329L48.2675 48.4387M30.1245 55.8826C33.5749 55.8378 34.4601 54.5582 35.2515 51.7383C35.5384 50.7157 35.7321 49.1539 35.8615 47.6185C35.9618 46.4274 37.3997 45.8324 38.3119 46.6048C39.5051 47.6152 40.7706 48.6045 41.7108 49.1327C44.2644 50.5671 45.796 50.8468 48.2675 48.4387M48.2675 48.4387L48.1628 48.3312M48.2675 48.4387L48.1628 48.3312M48.1628 48.3312L48.228 48.2656L48.3346 48.3711L48.2282 48.2654L48.1628 48.3312ZM48.2504 48.243L48.2492 48.2441L48.3569 48.3486L48.2504 48.243ZM48.2941 48.1982L48.2938 48.1985L48.4012 48.3032L48.2941 48.1982ZM55.7851 30.1091L55.7851 30.1103L55.9351 30.1099L55.7851 30.1079C55.7851 30.1083 55.7851 30.1087 55.7851 30.1091ZM55.7839 29.921L55.7839 29.9214L55.9338 29.9194L55.7839 29.921ZM48.2938 11.9187L48.294 11.9189L48.4012 11.814L48.2938 11.9187ZM48.1619 11.7851C48.1622 11.7854 48.1625 11.7857 48.1628 11.7859L48.161 11.7842L48.1619 11.7851ZM29.9927 40.3014C35.6739 40.3014 40.2794 35.6958 40.2794 30.0146C40.2794 24.3335 35.6739 19.7279 29.9927 19.7279C24.3115 19.7279 19.706 24.3335 19.706 30.0146C19.706 35.6958 24.3115 40.3014 29.9927 40.3014Z" stroke="url(#paint13_radial_1215_23976)" stroke-width="0.3"/>
<path d="M11.7718 11.7639L11.7708 11.7649C11.7601 11.7755 11.7494 11.7865 11.7373 11.799L11.7367 11.7996L11.7062 11.8308C10.5129 13.0555 10.0094 14.0231 9.96017 14.9809C9.91057 15.9452 10.3184 16.9332 11.0347 18.2084C11.5611 19.1456 12.5584 20.4194 13.5806 21.6245C14.4338 22.6302 13.7778 24.2139 12.4634 24.3219C10.8895 24.4512 9.2851 24.6467 8.25098 24.9369C6.84272 25.3321 5.85546 25.7424 5.20835 26.4593C4.56576 27.1713 4.23725 28.2112 4.21494 29.9202L4.21524 30.0142L4.21525 30.0156C4.21514 30.0306 4.21539 30.046 4.21567 30.0635L4.21568 30.0643L4.21615 30.1079C4.23831 31.8177 4.56653 32.8579 5.20898 33.57C5.85578 34.2869 6.84273 34.6972 8.25098 35.0924C9.26994 35.3784 10.8428 35.5724 12.3947 35.7017C13.7074 35.8111 14.3624 37.3917 13.5122 38.3977C12.5139 39.5789 11.5492 40.8169 11.0347 41.733C10.3184 43.0082 9.91057 43.9962 9.96017 44.9605C10.0094 45.9183 10.5129 46.8859 11.7062 48.1106L11.7367 48.1418L11.7373 48.1424C11.7494 48.1549 11.7601 48.1659 11.7708 48.1765L11.7718 48.1775L11.8372 48.2433C11.8375 48.2436 11.8378 48.2439 11.8381 48.2442C13.0623 49.4369 14.0299 49.9399 14.9877 49.9889C15.9523 50.0383 16.9405 49.6303 18.2157 48.914C19.1546 48.3866 20.4315 47.3865 21.6385 46.3623C22.6442 45.5089 24.2282 46.165 24.3361 47.4796C24.4654 49.0552 24.661 50.6623 24.9515 51.6978C25.3468 53.106 25.757 54.0933 26.474 54.7404C27.1859 55.383 28.2258 55.7115 29.9348 55.7338L30.0288 55.7335L30.0303 55.7335C30.0689 55.7337 30.0774 55.7326 30.1237 55.7326M11.7718 11.7639L30.1245 55.8826M11.7718 11.7639L11.8381 11.6972C13.0623 10.5045 14.0299 10.0015 14.9877 9.95247C15.9523 9.90308 16.9405 10.3111 18.2157 11.0274C19.1422 11.5479 20.398 12.5287 21.5912 13.5389C22.5965 14.3902 24.1774 13.7359 24.288 12.4234C24.4173 10.8882 24.6102 9.33907 24.893 8.33155C25.2882 6.92329 25.6984 5.93635 26.4154 5.28955C27.1275 4.6471 28.1677 4.31888 29.8774 4.29671L29.9211 4.29625L29.9219 4.29623C29.9393 4.29595 29.9547 4.29571 29.9698 4.29581L29.9712 4.29581L30.0652 4.29551L11.7718 11.7639ZM30.1237 55.7326C30.124 55.7326 30.1243 55.7326 30.1245 55.7326V55.8826M30.1237 55.7326C30.1233 55.7326 30.123 55.7326 30.1226 55.7326L30.1245 55.8826M30.1237 55.7326C31.8328 55.7103 32.8727 55.3821 33.5846 54.7397C34.3016 54.0929 34.7118 53.106 35.107 51.6978C35.3898 50.6902 35.5827 49.1411 35.712 47.6059C35.8226 46.2934 37.4035 45.6391 38.4088 46.4904C39.602 47.5006 40.8578 48.4814 41.7843 49.0019C43.0595 49.7182 44.0477 50.1262 45.0123 50.0768C45.9701 50.0278 46.9377 49.5248 48.162 48.332L48.161 48.3329L48.2675 48.4387M30.1245 55.8826C33.5749 55.8378 34.4601 54.5582 35.2515 51.7383C35.5384 50.7157 35.7321 49.1539 35.8615 47.6185C35.9618 46.4274 37.3997 45.8324 38.3119 46.6048C39.5051 47.6152 40.7706 48.6045 41.7108 49.1327C44.2644 50.5671 45.796 50.8468 48.2675 48.4387M48.2675 48.4387L48.1628 48.3312M48.2675 48.4387L48.1628 48.3312M48.1628 48.3312L48.228 48.2656L48.3346 48.3711L48.2282 48.2654L48.1628 48.3312ZM48.2504 48.243L48.2492 48.2441L48.3569 48.3486L48.2504 48.243ZM48.2941 48.1982L48.2938 48.1985L48.4012 48.3032L48.2941 48.1982ZM55.7851 30.1091L55.7851 30.1103L55.9351 30.1099L55.7851 30.1079C55.7851 30.1083 55.7851 30.1087 55.7851 30.1091ZM55.7839 29.921L55.7839 29.9214L55.9338 29.9194L55.7839 29.921ZM48.2938 11.9187L48.294 11.9189L48.4012 11.814L48.2938 11.9187ZM48.1619 11.7851C48.1622 11.7854 48.1625 11.7857 48.1628 11.7859L48.161 11.7842L48.1619 11.7851ZM29.9927 40.3014C35.6739 40.3014 40.2794 35.6958 40.2794 30.0146C40.2794 24.3335 35.6739 19.7279 29.9927 19.7279C24.3115 19.7279 19.706 24.3335 19.706 30.0146C19.706 35.6958 24.3115 40.3014 29.9927 40.3014Z" stroke="url(#paint14_radial_1215_23976)" stroke-width="0.3"/>
<path d="M11.7718 11.7639L11.7708 11.7649C11.7601 11.7755 11.7494 11.7865 11.7373 11.799L11.7367 11.7996L11.7062 11.8308C10.5129 13.0555 10.0094 14.0231 9.96017 14.9809C9.91057 15.9452 10.3184 16.9332 11.0347 18.2084C11.5611 19.1456 12.5584 20.4194 13.5806 21.6245C14.4338 22.6302 13.7778 24.2139 12.4634 24.3219C10.8895 24.4512 9.2851 24.6467 8.25098 24.9369C6.84272 25.3321 5.85546 25.7424 5.20835 26.4593C4.56576 27.1713 4.23725 28.2112 4.21494 29.9202L4.21524 30.0142L4.21525 30.0156C4.21514 30.0306 4.21539 30.046 4.21567 30.0635L4.21568 30.0643L4.21615 30.1079C4.23831 31.8177 4.56653 32.8579 5.20898 33.57C5.85578 34.2869 6.84273 34.6972 8.25098 35.0924C9.26994 35.3784 10.8428 35.5724 12.3947 35.7017C13.7074 35.8111 14.3624 37.3917 13.5122 38.3977C12.5139 39.5789 11.5492 40.8169 11.0347 41.733C10.3184 43.0082 9.91057 43.9962 9.96017 44.9605C10.0094 45.9183 10.5129 46.8859 11.7062 48.1106L11.7367 48.1418L11.7373 48.1424C11.7494 48.1549 11.7601 48.1659 11.7708 48.1765L11.7718 48.1775L11.8372 48.2433C11.8375 48.2436 11.8378 48.2439 11.8381 48.2442C13.0623 49.4369 14.0299 49.9399 14.9877 49.9889C15.9523 50.0383 16.9405 49.6303 18.2157 48.914C19.1546 48.3866 20.4315 47.3865 21.6385 46.3623C22.6442 45.5089 24.2282 46.165 24.3361 47.4796C24.4654 49.0552 24.661 50.6623 24.9515 51.6978C25.3468 53.106 25.757 54.0933 26.474 54.7404C27.1859 55.383 28.2258 55.7115 29.9348 55.7338L30.0288 55.7335L30.0303 55.7335C30.0689 55.7337 30.0774 55.7326 30.1237 55.7326M11.7718 11.7639L30.1245 55.8826M11.7718 11.7639L11.8381 11.6972C13.0623 10.5045 14.0299 10.0015 14.9877 9.95247C15.9523 9.90308 16.9405 10.3111 18.2157 11.0274C19.1422 11.5479 20.398 12.5287 21.5912 13.5389C22.5965 14.3902 24.1774 13.7359 24.288 12.4234C24.4173 10.8882 24.6102 9.33907 24.893 8.33155C25.2882 6.92329 25.6984 5.93635 26.4154 5.28955C27.1275 4.6471 28.1677 4.31888 29.8774 4.29671L29.9211 4.29625L29.9219 4.29623C29.9393 4.29595 29.9547 4.29571 29.9698 4.29581L29.9712 4.29581L30.0652 4.29551L11.7718 11.7639ZM30.1237 55.7326C30.124 55.7326 30.1243 55.7326 30.1245 55.7326V55.8826M30.1237 55.7326C30.1233 55.7326 30.123 55.7326 30.1226 55.7326L30.1245 55.8826M30.1237 55.7326C31.8328 55.7103 32.8727 55.3821 33.5846 54.7397C34.3016 54.0929 34.7118 53.106 35.107 51.6978C35.3898 50.6902 35.5827 49.1411 35.712 47.6059C35.8226 46.2934 37.4035 45.6391 38.4088 46.4904C39.602 47.5006 40.8578 48.4814 41.7843 49.0019C43.0595 49.7182 44.0477 50.1262 45.0123 50.0768C45.9701 50.0278 46.9377 49.5248 48.162 48.332L48.161 48.3329L48.2675 48.4387M30.1245 55.8826C33.5749 55.8378 34.4601 54.5582 35.2515 51.7383C35.5384 50.7157 35.7321 49.1539 35.8615 47.6185C35.9618 46.4274 37.3997 45.8324 38.3119 46.6048C39.5051 47.6152 40.7706 48.6045 41.7108 49.1327C44.2644 50.5671 45.796 50.8468 48.2675 48.4387M48.2675 48.4387L48.1628 48.3312M48.2675 48.4387L48.1628 48.3312M48.1628 48.3312L48.228 48.2656L48.3346 48.3711L48.2282 48.2654L48.1628 48.3312ZM48.2504 48.243L48.2492 48.2441L48.3569 48.3486L48.2504 48.243ZM48.2941 48.1982L48.2938 48.1985L48.4012 48.3032L48.2941 48.1982ZM55.7851 30.1091L55.7851 30.1103L55.9351 30.1099L55.7851 30.1079C55.7851 30.1083 55.7851 30.1087 55.7851 30.1091ZM55.7839 29.921L55.7839 29.9214L55.9338 29.9194L55.7839 29.921ZM48.2938 11.9187L48.294 11.9189L48.4012 11.814L48.2938 11.9187ZM48.1619 11.7851C48.1622 11.7854 48.1625 11.7857 48.1628 11.7859L48.161 11.7842L48.1619 11.7851ZM29.9927 40.3014C35.6739 40.3014 40.2794 35.6958 40.2794 30.0146C40.2794 24.3335 35.6739 19.7279 29.9927 19.7279C24.3115 19.7279 19.706 24.3335 19.706 30.0146C19.706 35.6958 24.3115 40.3014 29.9927 40.3014Z" stroke="url(#paint15_radial_1215_23976)" stroke-width="0.3"/>
<path d="M11.7718 11.7639L11.7708 11.7649C11.7601 11.7755 11.7494 11.7865 11.7373 11.799L11.7367 11.7996L11.7062 11.8308C10.5129 13.0555 10.0094 14.0231 9.96017 14.9809C9.91057 15.9452 10.3184 16.9332 11.0347 18.2084C11.5611 19.1456 12.5584 20.4194 13.5806 21.6245C14.4338 22.6302 13.7778 24.2139 12.4634 24.3219C10.8895 24.4512 9.2851 24.6467 8.25098 24.9369C6.84272 25.3321 5.85546 25.7424 5.20835 26.4593C4.56576 27.1713 4.23725 28.2112 4.21494 29.9202L4.21524 30.0142L4.21525 30.0156C4.21514 30.0306 4.21539 30.046 4.21567 30.0635L4.21568 30.0643L4.21615 30.1079C4.23831 31.8177 4.56653 32.8579 5.20898 33.57C5.85578 34.2869 6.84273 34.6972 8.25098 35.0924C9.26994 35.3784 10.8428 35.5724 12.3947 35.7017C13.7074 35.8111 14.3624 37.3917 13.5122 38.3977C12.5139 39.5789 11.5492 40.8169 11.0347 41.733C10.3184 43.0082 9.91057 43.9962 9.96017 44.9605C10.0094 45.9183 10.5129 46.8859 11.7062 48.1106L11.7367 48.1418L11.7373 48.1424C11.7494 48.1549 11.7601 48.1659 11.7708 48.1765L11.7718 48.1775L11.8372 48.2433C11.8375 48.2436 11.8378 48.2439 11.8381 48.2442C13.0623 49.4369 14.0299 49.9399 14.9877 49.9889C15.9523 50.0383 16.9405 49.6303 18.2157 48.914C19.1546 48.3866 20.4315 47.3865 21.6385 46.3623C22.6442 45.5089 24.2282 46.165 24.3361 47.4796C24.4654 49.0552 24.661 50.6623 24.9515 51.6978C25.3468 53.106 25.757 54.0933 26.474 54.7404C27.1859 55.383 28.2258 55.7115 29.9348 55.7338L30.0288 55.7335L30.0303 55.7335C30.0689 55.7337 30.0774 55.7326 30.1237 55.7326M11.7718 11.7639L30.1245 55.8826M11.7718 11.7639L11.8381 11.6972C13.0623 10.5045 14.0299 10.0015 14.9877 9.95247C15.9523 9.90308 16.9405 10.3111 18.2157 11.0274C19.1422 11.5479 20.398 12.5287 21.5912 13.5389C22.5965 14.3902 24.1774 13.7359 24.288 12.4234C24.4173 10.8882 24.6102 9.33907 24.893 8.33155C25.2882 6.92329 25.6984 5.93635 26.4154 5.28955C27.1275 4.6471 28.1677 4.31888 29.8774 4.29671L29.9211 4.29625L29.9219 4.29623C29.9393 4.29595 29.9547 4.29571 29.9698 4.29581L29.9712 4.29581L30.0652 4.29551L11.7718 11.7639ZM30.1237 55.7326C30.124 55.7326 30.1243 55.7326 30.1245 55.7326V55.8826M30.1237 55.7326C30.1233 55.7326 30.123 55.7326 30.1226 55.7326L30.1245 55.8826M30.1237 55.7326C31.8328 55.7103 32.8727 55.3821 33.5846 54.7397C34.3016 54.0929 34.7118 53.106 35.107 51.6978C35.3898 50.6902 35.5827 49.1411 35.712 47.6059C35.8226 46.2934 37.4035 45.6391 38.4088 46.4904C39.602 47.5006 40.8578 48.4814 41.7843 49.0019C43.0595 49.7182 44.0477 50.1262 45.0123 50.0768C45.9701 50.0278 46.9377 49.5248 48.162 48.332L48.161 48.3329L48.2675 48.4387M30.1245 55.8826C33.5749 55.8378 34.4601 54.5582 35.2515 51.7383C35.5384 50.7157 35.7321 49.1539 35.8615 47.6185C35.9618 46.4274 37.3997 45.8324 38.3119 46.6048C39.5051 47.6152 40.7706 48.6045 41.7108 49.1327C44.2644 50.5671 45.796 50.8468 48.2675 48.4387M48.2675 48.4387L48.1628 48.3312M48.2675 48.4387L48.1628 48.3312M48.1628 48.3312L48.228 48.2656L48.3346 48.3711L48.2282 48.2654L48.1628 48.3312ZM48.2504 48.243L48.2492 48.2441L48.3569 48.3486L48.2504 48.243ZM48.2941 48.1982L48.2938 48.1985L48.4012 48.3032L48.2941 48.1982ZM55.7851 30.1091L55.7851 30.1103L55.9351 30.1099L55.7851 30.1079C55.7851 30.1083 55.7851 30.1087 55.7851 30.1091ZM55.7839 29.921L55.7839 29.9214L55.9338 29.9194L55.7839 29.921ZM48.2938 11.9187L48.294 11.9189L48.4012 11.814L48.2938 11.9187ZM48.1619 11.7851C48.1622 11.7854 48.1625 11.7857 48.1628 11.7859L48.161 11.7842L48.1619 11.7851ZM29.9927 40.3014C35.6739 40.3014 40.2794 35.6958 40.2794 30.0146C40.2794 24.3335 35.6739 19.7279 29.9927 19.7279C24.3115 19.7279 19.706 24.3335 19.706 30.0146C19.706 35.6958 24.3115 40.3014 29.9927 40.3014Z" stroke="url(#paint16_radial_1215_23976)" stroke-width="0.3"/>
<path d="M11.7718 11.7639L11.7708 11.7649C11.7601 11.7755 11.7494 11.7865 11.7373 11.799L11.7367 11.7996L11.7062 11.8308C10.5129 13.0555 10.0094 14.0231 9.96017 14.9809C9.91057 15.9452 10.3184 16.9332 11.0347 18.2084C11.5611 19.1456 12.5584 20.4194 13.5806 21.6245C14.4338 22.6302 13.7778 24.2139 12.4634 24.3219C10.8895 24.4512 9.2851 24.6467 8.25098 24.9369C6.84272 25.3321 5.85546 25.7424 5.20835 26.4593C4.56576 27.1713 4.23725 28.2112 4.21494 29.9202L4.21524 30.0142L4.21525 30.0156C4.21514 30.0306 4.21539 30.046 4.21567 30.0635L4.21568 30.0643L4.21615 30.1079C4.23831 31.8177 4.56653 32.8579 5.20898 33.57C5.85578 34.2869 6.84273 34.6972 8.25098 35.0924C9.26994 35.3784 10.8428 35.5724 12.3947 35.7017C13.7074 35.8111 14.3624 37.3917 13.5122 38.3977C12.5139 39.5789 11.5492 40.8169 11.0347 41.733C10.3184 43.0082 9.91057 43.9962 9.96017 44.9605C10.0094 45.9183 10.5129 46.8859 11.7062 48.1106L11.7367 48.1418L11.7373 48.1424C11.7494 48.1549 11.7601 48.1659 11.7708 48.1765L11.7718 48.1775L11.8372 48.2433C11.8375 48.2436 11.8378 48.2439 11.8381 48.2442C13.0623 49.4369 14.0299 49.9399 14.9877 49.9889C15.9523 50.0383 16.9405 49.6303 18.2157 48.914C19.1546 48.3866 20.4315 47.3865 21.6385 46.3623C22.6442 45.5089 24.2282 46.165 24.3361 47.4796C24.4654 49.0552 24.661 50.6623 24.9515 51.6978C25.3468 53.106 25.757 54.0933 26.474 54.7404C27.1859 55.383 28.2258 55.7115 29.9348 55.7338L30.0288 55.7335L30.0303 55.7335C30.0689 55.7337 30.0774 55.7326 30.1237 55.7326M11.7718 11.7639L30.1245 55.8826M11.7718 11.7639L11.8381 11.6972C13.0623 10.5045 14.0299 10.0015 14.9877 9.95247C15.9523 9.90308 16.9405 10.3111 18.2157 11.0274C19.1422 11.5479 20.398 12.5287 21.5912 13.5389C22.5965 14.3902 24.1774 13.7359 24.288 12.4234C24.4173 10.8882 24.6102 9.33907 24.893 8.33155C25.2882 6.92329 25.6984 5.93635 26.4154 5.28955C27.1275 4.6471 28.1677 4.31888 29.8774 4.29671L29.9211 4.29625L29.9219 4.29623C29.9393 4.29595 29.9547 4.29571 29.9698 4.29581L29.9712 4.29581L30.0652 4.29551L11.7718 11.7639ZM30.1237 55.7326C30.124 55.7326 30.1243 55.7326 30.1245 55.7326V55.8826M30.1237 55.7326C30.1233 55.7326 30.123 55.7326 30.1226 55.7326L30.1245 55.8826M30.1237 55.7326C31.8328 55.7103 32.8727 55.3821 33.5846 54.7397C34.3016 54.0929 34.7118 53.106 35.107 51.6978C35.3898 50.6902 35.5827 49.1411 35.712 47.6059C35.8226 46.2934 37.4035 45.6391 38.4088 46.4904C39.602 47.5006 40.8578 48.4814 41.7843 49.0019C43.0595 49.7182 44.0477 50.1262 45.0123 50.0768C45.9701 50.0278 46.9377 49.5248 48.162 48.332L48.161 48.3329L48.2675 48.4387M30.1245 55.8826C33.5749 55.8378 34.4601 54.5582 35.2515 51.7383C35.5384 50.7157 35.7321 49.1539 35.8615 47.6185C35.9618 46.4274 37.3997 45.8324 38.3119 46.6048C39.5051 47.6152 40.7706 48.6045 41.7108 49.1327C44.2644 50.5671 45.796 50.8468 48.2675 48.4387M48.2675 48.4387L48.1628 48.3312M48.2675 48.4387L48.1628 48.3312M48.1628 48.3312L48.228 48.2656L48.3346 48.3711L48.2282 48.2654L48.1628 48.3312ZM48.2504 48.243L48.2492 48.2441L48.3569 48.3486L48.2504 48.243ZM48.2941 48.1982L48.2938 48.1985L48.4012 48.3032L48.2941 48.1982ZM55.7851 30.1091L55.7851 30.1103L55.9351 30.1099L55.7851 30.1079C55.7851 30.1083 55.7851 30.1087 55.7851 30.1091ZM55.7839 29.921L55.7839 29.9214L55.9338 29.9194L55.7839 29.921ZM48.2938 11.9187L48.294 11.9189L48.4012 11.814L48.2938 11.9187ZM48.1619 11.7851C48.1622 11.7854 48.1625 11.7857 48.1628 11.7859L48.161 11.7842L48.1619 11.7851ZM29.9927 40.3014C35.6739 40.3014 40.2794 35.6958 40.2794 30.0146C40.2794 24.3335 35.6739 19.7279 29.9927 19.7279C24.3115 19.7279 19.706 24.3335 19.706 30.0146C19.706 35.6958 24.3115 40.3014 29.9927 40.3014Z" stroke="url(#paint17_radial_1215_23976)" stroke-width="0.3"/>
<path d="M11.7718 11.7639L11.7708 11.7649C11.7601 11.7755 11.7494 11.7865 11.7373 11.799L11.7367 11.7996L11.7062 11.8308C10.5129 13.0555 10.0094 14.0231 9.96017 14.9809C9.91057 15.9452 10.3184 16.9332 11.0347 18.2084C11.5611 19.1456 12.5584 20.4194 13.5806 21.6245C14.4338 22.6302 13.7778 24.2139 12.4634 24.3219C10.8895 24.4512 9.2851 24.6467 8.25098 24.9369C6.84272 25.3321 5.85546 25.7424 5.20835 26.4593C4.56576 27.1713 4.23725 28.2112 4.21494 29.9202L4.21524 30.0142L4.21525 30.0156C4.21514 30.0306 4.21539 30.046 4.21567 30.0635L4.21568 30.0643L4.21615 30.1079C4.23831 31.8177 4.56653 32.8579 5.20898 33.57C5.85578 34.2869 6.84273 34.6972 8.25098 35.0924C9.26994 35.3784 10.8428 35.5724 12.3947 35.7017C13.7074 35.8111 14.3624 37.3917 13.5122 38.3977C12.5139 39.5789 11.5492 40.8169 11.0347 41.733C10.3184 43.0082 9.91057 43.9962 9.96017 44.9605C10.0094 45.9183 10.5129 46.8859 11.7062 48.1106L11.7367 48.1418L11.7373 48.1424C11.7494 48.1549 11.7601 48.1659 11.7708 48.1765L11.7718 48.1775L11.8372 48.2433C11.8375 48.2436 11.8378 48.2439 11.8381 48.2442C13.0623 49.4369 14.0299 49.9399 14.9877 49.9889C15.9523 50.0383 16.9405 49.6303 18.2157 48.914C19.1546 48.3866 20.4315 47.3865 21.6385 46.3623C22.6442 45.5089 24.2282 46.165 24.3361 47.4796C24.4654 49.0552 24.661 50.6623 24.9515 51.6978C25.3468 53.106 25.757 54.0933 26.474 54.7404C27.1859 55.383 28.2258 55.7115 29.9348 55.7338L30.0288 55.7335L30.0303 55.7335C30.0689 55.7337 30.0774 55.7326 30.1237 55.7326M11.7718 11.7639L30.1245 55.8826M11.7718 11.7639L11.8381 11.6972C13.0623 10.5045 14.0299 10.0015 14.9877 9.95247C15.9523 9.90308 16.9405 10.3111 18.2157 11.0274C19.1422 11.5479 20.398 12.5287 21.5912 13.5389C22.5965 14.3902 24.1774 13.7359 24.288 12.4234C24.4173 10.8882 24.6102 9.33907 24.893 8.33155C25.2882 6.92329 25.6984 5.93635 26.4154 5.28955C27.1275 4.6471 28.1677 4.31888 29.8774 4.29671L29.9211 4.29625L29.9219 4.29623C29.9393 4.29595 29.9547 4.29571 29.9698 4.29581L29.9712 4.29581L30.0652 4.29551L11.7718 11.7639ZM30.1237 55.7326C30.124 55.7326 30.1243 55.7326 30.1245 55.7326V55.8826M30.1237 55.7326C30.1233 55.7326 30.123 55.7326 30.1226 55.7326L30.1245 55.8826M30.1237 55.7326C31.8328 55.7103 32.8727 55.3821 33.5846 54.7397C34.3016 54.0929 34.7118 53.106 35.107 51.6978C35.3898 50.6902 35.5827 49.1411 35.712 47.6059C35.8226 46.2934 37.4035 45.6391 38.4088 46.4904C39.602 47.5006 40.8578 48.4814 41.7843 49.0019C43.0595 49.7182 44.0477 50.1262 45.0123 50.0768C45.9701 50.0278 46.9377 49.5248 48.162 48.332L48.161 48.3329L48.2675 48.4387M30.1245 55.8826C33.5749 55.8378 34.4601 54.5582 35.2515 51.7383C35.5384 50.7157 35.7321 49.1539 35.8615 47.6185C35.9618 46.4274 37.3997 45.8324 38.3119 46.6048C39.5051 47.6152 40.7706 48.6045 41.7108 49.1327C44.2644 50.5671 45.796 50.8468 48.2675 48.4387M48.2675 48.4387L48.1628 48.3312M48.2675 48.4387L48.1628 48.3312M48.1628 48.3312L48.228 48.2656L48.3346 48.3711L48.2282 48.2654L48.1628 48.3312ZM48.2504 48.243L48.2492 48.2441L48.3569 48.3486L48.2504 48.243ZM48.2941 48.1982L48.2938 48.1985L48.4012 48.3032L48.2941 48.1982ZM55.7851 30.1091L55.7851 30.1103L55.9351 30.1099L55.7851 30.1079C55.7851 30.1083 55.7851 30.1087 55.7851 30.1091ZM55.7839 29.921L55.7839 29.9214L55.9338 29.9194L55.7839 29.921ZM48.2938 11.9187L48.294 11.9189L48.4012 11.814L48.2938 11.9187ZM48.1619 11.7851C48.1622 11.7854 48.1625 11.7857 48.1628 11.7859L48.161 11.7842L48.1619 11.7851ZM29.9927 40.3014C35.6739 40.3014 40.2794 35.6958 40.2794 30.0146C40.2794 24.3335 35.6739 19.7279 29.9927 19.7279C24.3115 19.7279 19.706 24.3335 19.706 30.0146C19.706 35.6958 24.3115 40.3014 29.9927 40.3014Z" stroke="url(#paint18_radial_1215_23976)" stroke-width="0.3"/>
<path d="M11.7718 11.7639L11.7708 11.7649C11.7601 11.7755 11.7494 11.7865 11.7373 11.799L11.7367 11.7996L11.7062 11.8308C10.5129 13.0555 10.0094 14.0231 9.96017 14.9809C9.91057 15.9452 10.3184 16.9332 11.0347 18.2084C11.5611 19.1456 12.5584 20.4194 13.5806 21.6245C14.4338 22.6302 13.7778 24.2139 12.4634 24.3219C10.8895 24.4512 9.2851 24.6467 8.25098 24.9369C6.84272 25.3321 5.85546 25.7424 5.20835 26.4593C4.56576 27.1713 4.23725 28.2112 4.21494 29.9202L4.21524 30.0142L4.21525 30.0156C4.21514 30.0306 4.21539 30.046 4.21567 30.0635L4.21568 30.0643L4.21615 30.1079C4.23831 31.8177 4.56653 32.8579 5.20898 33.57C5.85578 34.2869 6.84273 34.6972 8.25098 35.0924C9.26994 35.3784 10.8428 35.5724 12.3947 35.7017C13.7074 35.8111 14.3624 37.3917 13.5122 38.3977C12.5139 39.5789 11.5492 40.8169 11.0347 41.733C10.3184 43.0082 9.91057 43.9962 9.96017 44.9605C10.0094 45.9183 10.5129 46.8859 11.7062 48.1106L11.7367 48.1418L11.7373 48.1424C11.7494 48.1549 11.7601 48.1659 11.7708 48.1765L11.7718 48.1775L11.8372 48.2433C11.8375 48.2436 11.8378 48.2439 11.8381 48.2442C13.0623 49.4369 14.0299 49.9399 14.9877 49.9889C15.9523 50.0383 16.9405 49.6303 18.2157 48.914C19.1546 48.3866 20.4315 47.3865 21.6385 46.3623C22.6442 45.5089 24.2282 46.165 24.3361 47.4796C24.4654 49.0552 24.661 50.6623 24.9515 51.6978C25.3468 53.106 25.757 54.0933 26.474 54.7404C27.1859 55.383 28.2258 55.7115 29.9348 55.7338L30.0288 55.7335L30.0303 55.7335C30.0689 55.7337 30.0774 55.7326 30.1237 55.7326M11.7718 11.7639L30.1245 55.8826M11.7718 11.7639L11.8381 11.6972C13.0623 10.5045 14.0299 10.0015 14.9877 9.95247C15.9523 9.90308 16.9405 10.3111 18.2157 11.0274C19.1422 11.5479 20.398 12.5287 21.5912 13.5389C22.5965 14.3902 24.1774 13.7359 24.288 12.4234C24.4173 10.8882 24.6102 9.33907 24.893 8.33155C25.2882 6.92329 25.6984 5.93635 26.4154 5.28955C27.1275 4.6471 28.1677 4.31888 29.8774 4.29671L29.9211 4.29625L29.9219 4.29623C29.9393 4.29595 29.9547 4.29571 29.9698 4.29581L29.9712 4.29581L30.0652 4.29551L11.7718 11.7639ZM30.1237 55.7326C30.124 55.7326 30.1243 55.7326 30.1245 55.7326V55.8826M30.1237 55.7326C30.1233 55.7326 30.123 55.7326 30.1226 55.7326L30.1245 55.8826M30.1237 55.7326C31.8328 55.7103 32.8727 55.3821 33.5846 54.7397C34.3016 54.0929 34.7118 53.106 35.107 51.6978C35.3898 50.6902 35.5827 49.1411 35.712 47.6059C35.8226 46.2934 37.4035 45.6391 38.4088 46.4904C39.602 47.5006 40.8578 48.4814 41.7843 49.0019C43.0595 49.7182 44.0477 50.1262 45.0123 50.0768C45.9701 50.0278 46.9377 49.5248 48.162 48.332L48.161 48.3329L48.2675 48.4387M30.1245 55.8826C33.5749 55.8378 34.4601 54.5582 35.2515 51.7383C35.5384 50.7157 35.7321 49.1539 35.8615 47.6185C35.9618 46.4274 37.3997 45.8324 38.3119 46.6048C39.5051 47.6152 40.7706 48.6045 41.7108 49.1327C44.2644 50.5671 45.796 50.8468 48.2675 48.4387M48.2675 48.4387L48.1628 48.3312M48.2675 48.4387L48.1628 48.3312M48.1628 48.3312L48.228 48.2656L48.3346 48.3711L48.2282 48.2654L48.1628 48.3312ZM48.2504 48.243L48.2492 48.2441L48.3569 48.3486L48.2504 48.243ZM48.2941 48.1982L48.2938 48.1985L48.4012 48.3032L48.2941 48.1982ZM55.7851 30.1091L55.7851 30.1103L55.9351 30.1099L55.7851 30.1079C55.7851 30.1083 55.7851 30.1087 55.7851 30.1091ZM55.7839 29.921L55.7839 29.9214L55.9338 29.9194L55.7839 29.921ZM48.2938 11.9187L48.294 11.9189L48.4012 11.814L48.2938 11.9187ZM48.1619 11.7851C48.1622 11.7854 48.1625 11.7857 48.1628 11.7859L48.161 11.7842L48.1619 11.7851ZM29.9927 40.3014C35.6739 40.3014 40.2794 35.6958 40.2794 30.0146C40.2794 24.3335 35.6739 19.7279 29.9927 19.7279C24.3115 19.7279 19.706 24.3335 19.706 30.0146C19.706 35.6958 24.3115 40.3014 29.9927 40.3014Z" stroke="url(#paint19_radial_1215_23976)" stroke-width="0.3"/>
<path d="M11.7718 11.7639L11.7708 11.7649C11.7601 11.7755 11.7494 11.7865 11.7373 11.799L11.7367 11.7996L11.7062 11.8308C10.5129 13.0555 10.0094 14.0231 9.96017 14.9809C9.91057 15.9452 10.3184 16.9332 11.0347 18.2084C11.5611 19.1456 12.5584 20.4194 13.5806 21.6245C14.4338 22.6302 13.7778 24.2139 12.4634 24.3219C10.8895 24.4512 9.2851 24.6467 8.25098 24.9369C6.84272 25.3321 5.85546 25.7424 5.20835 26.4593C4.56576 27.1713 4.23725 28.2112 4.21494 29.9202L4.21524 30.0142L4.21525 30.0156C4.21514 30.0306 4.21539 30.046 4.21567 30.0635L4.21568 30.0643L4.21615 30.1079C4.23831 31.8177 4.56653 32.8579 5.20898 33.57C5.85578 34.2869 6.84273 34.6972 8.25098 35.0924C9.26994 35.3784 10.8428 35.5724 12.3947 35.7017C13.7074 35.8111 14.3624 37.3917 13.5122 38.3977C12.5139 39.5789 11.5492 40.8169 11.0347 41.733C10.3184 43.0082 9.91057 43.9962 9.96017 44.9605C10.0094 45.9183 10.5129 46.8859 11.7062 48.1106L11.7367 48.1418L11.7373 48.1424C11.7494 48.1549 11.7601 48.1659 11.7708 48.1765L11.7718 48.1775L11.8372 48.2433C11.8375 48.2436 11.8378 48.2439 11.8381 48.2442C13.0623 49.4369 14.0299 49.9399 14.9877 49.9889C15.9523 50.0383 16.9405 49.6303 18.2157 48.914C19.1546 48.3866 20.4315 47.3865 21.6385 46.3623C22.6442 45.5089 24.2282 46.165 24.3361 47.4796C24.4654 49.0552 24.661 50.6623 24.9515 51.6978C25.3468 53.106 25.757 54.0933 26.474 54.7404C27.1859 55.383 28.2258 55.7115 29.9348 55.7338L30.0288 55.7335L30.0303 55.7335C30.0689 55.7337 30.0774 55.7326 30.1237 55.7326M11.7718 11.7639L30.1245 55.8826M11.7718 11.7639L11.8381 11.6972C13.0623 10.5045 14.0299 10.0015 14.9877 9.95247C15.9523 9.90308 16.9405 10.3111 18.2157 11.0274C19.1422 11.5479 20.398 12.5287 21.5912 13.5389C22.5965 14.3902 24.1774 13.7359 24.288 12.4234C24.4173 10.8882 24.6102 9.33907 24.893 8.33155C25.2882 6.92329 25.6984 5.93635 26.4154 5.28955C27.1275 4.6471 28.1677 4.31888 29.8774 4.29671L29.9211 4.29625L29.9219 4.29623C29.9393 4.29595 29.9547 4.29571 29.9698 4.29581L29.9712 4.29581L30.0652 4.29551L11.7718 11.7639ZM30.1237 55.7326C30.124 55.7326 30.1243 55.7326 30.1245 55.7326V55.8826M30.1237 55.7326C30.1233 55.7326 30.123 55.7326 30.1226 55.7326L30.1245 55.8826M30.1237 55.7326C31.8328 55.7103 32.8727 55.3821 33.5846 54.7397C34.3016 54.0929 34.7118 53.106 35.107 51.6978C35.3898 50.6902 35.5827 49.1411 35.712 47.6059C35.8226 46.2934 37.4035 45.6391 38.4088 46.4904C39.602 47.5006 40.8578 48.4814 41.7843 49.0019C43.0595 49.7182 44.0477 50.1262 45.0123 50.0768C45.9701 50.0278 46.9377 49.5248 48.162 48.332L48.161 48.3329L48.2675 48.4387M30.1245 55.8826C33.5749 55.8378 34.4601 54.5582 35.2515 51.7383C35.5384 50.7157 35.7321 49.1539 35.8615 47.6185C35.9618 46.4274 37.3997 45.8324 38.3119 46.6048C39.5051 47.6152 40.7706 48.6045 41.7108 49.1327C44.2644 50.5671 45.796 50.8468 48.2675 48.4387M48.2675 48.4387L48.1628 48.3312M48.2675 48.4387L48.1628 48.3312M48.1628 48.3312L48.228 48.2656L48.3346 48.3711L48.2282 48.2654L48.1628 48.3312ZM48.2504 48.243L48.2492 48.2441L48.3569 48.3486L48.2504 48.243ZM48.2941 48.1982L48.2938 48.1985L48.4012 48.3032L48.2941 48.1982ZM55.7851 30.1091L55.7851 30.1103L55.9351 30.1099L55.7851 30.1079C55.7851 30.1083 55.7851 30.1087 55.7851 30.1091ZM55.7839 29.921L55.7839 29.9214L55.9338 29.9194L55.7839 29.921ZM48.2938 11.9187L48.294 11.9189L48.4012 11.814L48.2938 11.9187ZM48.1619 11.7851C48.1622 11.7854 48.1625 11.7857 48.1628 11.7859L48.161 11.7842L48.1619 11.7851ZM29.9927 40.3014C35.6739 40.3014 40.2794 35.6958 40.2794 30.0146C40.2794 24.3335 35.6739 19.7279 29.9927 19.7279C24.3115 19.7279 19.706 24.3335 19.706 30.0146C19.706 35.6958 24.3115 40.3014 29.9927 40.3014Z" stroke="url(#paint20_radial_1215_23976)" stroke-width="0.3"/>
<path fill-rule="evenodd" clip-rule="evenodd" d="M30 44.8169C38.1751 44.8169 44.8022 38.1897 44.8022 30.0146C44.8022 21.8396 38.1751 15.2124 30 15.2124C21.8249 15.2124 15.1978 21.8396 15.1978 30.0146C15.1978 38.1897 21.8249 44.8169 30 44.8169ZM30 39.1113C35.024 39.1113 39.0967 35.0386 39.0967 30.0146C39.0967 24.9907 35.024 20.918 30 20.918C24.976 20.918 20.9033 24.9907 20.9033 30.0146C20.9033 35.0386 24.976 39.1113 30 39.1113Z" fill="url(#paint21_radial_1215_23976)"/>
<path fill-rule="evenodd" clip-rule="evenodd" d="M30 44.8169C38.1751 44.8169 44.8022 38.1897 44.8022 30.0146C44.8022 21.8396 38.1751 15.2124 30 15.2124C21.8249 15.2124 15.1978 21.8396 15.1978 30.0146C15.1978 38.1897 21.8249 44.8169 30 44.8169ZM30 39.1113C35.024 39.1113 39.0967 35.0386 39.0967 30.0146C39.0967 24.9907 35.024 20.918 30 20.918C24.976 20.918 20.9033 24.9907 20.9033 30.0146C20.9033 35.0386 24.976 39.1113 30 39.1113Z" fill="url(#paint22_radial_1215_23976)"/>
<path fill-rule="evenodd" clip-rule="evenodd" d="M30 44.8169C38.1751 44.8169 44.8022 38.1897 44.8022 30.0146C44.8022 21.8396 38.1751 15.2124 30 15.2124C21.8249 15.2124 15.1978 21.8396 15.1978 30.0146C15.1978 38.1897 21.8249 44.8169 30 44.8169ZM30 39.1113C35.024 39.1113 39.0967 35.0386 39.0967 30.0146C39.0967 24.9907 35.024 20.918 30 20.918C24.976 20.918 20.9033 24.9907 20.9033 30.0146C20.9033 35.0386 24.976 39.1113 30 39.1113Z" fill="url(#paint23_radial_1215_23976)"/>
<path fill-rule="evenodd" clip-rule="evenodd" d="M30 44.8169C38.1751 44.8169 44.8022 38.1897 44.8022 30.0146C44.8022 21.8396 38.1751 15.2124 30 15.2124C21.8249 15.2124 15.1978 21.8396 15.1978 30.0146C15.1978 38.1897 21.8249 44.8169 30 44.8169ZM30 39.1113C35.024 39.1113 39.0967 35.0386 39.0967 30.0146C39.0967 24.9907 35.024 20.918 30 20.918C24.976 20.918 20.9033 24.9907 20.9033 30.0146C20.9033 35.0386 24.976 39.1113 30 39.1113Z" fill="url(#paint24_radial_1215_23976)"/>
<path fill-rule="evenodd" clip-rule="evenodd" d="M30 44.8169C38.1751 44.8169 44.8022 38.1897 44.8022 30.0146C44.8022 21.8396 38.1751 15.2124 30 15.2124C21.8249 15.2124 15.1978 21.8396 15.1978 30.0146C15.1978 38.1897 21.8249 44.8169 30 44.8169ZM30 39.1113C35.024 39.1113 39.0967 35.0386 39.0967 30.0146C39.0967 24.9907 35.024 20.918 30 20.918C24.976 20.918 20.9033 24.9907 20.9033 30.0146C20.9033 35.0386 24.976 39.1113 30 39.1113Z" fill="url(#paint25_radial_1215_23976)"/>
<path fill-rule="evenodd" clip-rule="evenodd" d="M30 40.2686C35.6631 40.2686 40.2539 35.6777 40.2539 30.0146C40.2539 24.3516 35.6631 19.7607 30 19.7607C24.3369 19.7607 19.7461 24.3516 19.7461 30.0146C19.7461 35.6777 24.3369 40.2686 30 40.2686ZM30 38.1299C34.4819 38.1299 38.1152 34.4966 38.1152 30.0146C38.1152 25.5327 34.4819 21.8994 30 21.8994C25.5181 21.8994 21.8848 25.5327 21.8848 30.0146C21.8848 34.4966 25.5181 38.1299 30 38.1299Z" fill="url(#paint26_radial_1215_23976)"/>
<path fill-rule="evenodd" clip-rule="evenodd" d="M30 40.2686C35.6631 40.2686 40.2539 35.6777 40.2539 30.0146C40.2539 24.3516 35.6631 19.7607 30 19.7607C24.3369 19.7607 19.7461 24.3516 19.7461 30.0146C19.7461 35.6777 24.3369 40.2686 30 40.2686ZM30 38.1299C34.4819 38.1299 38.1152 34.4966 38.1152 30.0146C38.1152 25.5327 34.4819 21.8994 30 21.8994C25.5181 21.8994 21.8848 25.5327 21.8848 30.0146C21.8848 34.4966 25.5181 38.1299 30 38.1299Z" fill="url(#paint27_radial_1215_23976)"/>
<path fill-rule="evenodd" clip-rule="evenodd" d="M30 39.2725C35.113 39.2725 39.2578 35.1276 39.2578 30.0146C39.2578 24.9017 35.113 20.7568 30 20.7568C24.887 20.7568 20.7422 24.9017 20.7422 30.0146C20.7422 35.1276 24.887 39.2725 30 39.2725ZM38.1152 30.0146C38.1152 34.4966 34.482 38.1299 30 38.1299C25.518 38.1299 21.8848 34.4966 21.8848 30.0146C21.8848 25.5327 25.518 21.8994 30 21.8994C34.482 21.8994 38.1152 25.5327 38.1152 30.0146Z" fill="url(#paint28_radial_1215_23976)"/>
<path fill-rule="evenodd" clip-rule="evenodd" d="M30 39.2725C35.113 39.2725 39.2578 35.1276 39.2578 30.0146C39.2578 24.9017 35.113 20.7568 30 20.7568C24.887 20.7568 20.7422 24.9017 20.7422 30.0146C20.7422 35.1276 24.887 39.2725 30 39.2725ZM38.1152 30.0146C38.1152 34.4966 34.482 38.1299 30 38.1299C25.518 38.1299 21.8848 34.4966 21.8848 30.0146C21.8848 25.5327 25.518 21.8994 30 21.8994C34.482 21.8994 38.1152 25.5327 38.1152 30.0146Z" fill="url(#paint29_radial_1215_23976)"/>
<path fill-rule="evenodd" clip-rule="evenodd" d="M30 39.2725C35.113 39.2725 39.2578 35.1276 39.2578 30.0146C39.2578 24.9017 35.113 20.7568 30 20.7568C24.887 20.7568 20.7422 24.9017 20.7422 30.0146C20.7422 35.1276 24.887 39.2725 30 39.2725ZM38.1152 30.0146C38.1152 34.4966 34.482 38.1299 30 38.1299C25.518 38.1299 21.8848 34.4966 21.8848 30.0146C21.8848 25.5327 25.518 21.8994 30 21.8994C34.482 21.8994 38.1152 25.5327 38.1152 30.0146Z" fill="url(#paint30_radial_1215_23976)"/>
<defs>
<linearGradient id="paint0_linear_1215_23976" x1="48.3984" y1="11.3672" x2="11.4844" y2="48.1641" gradientUnits="userSpaceOnUse">
<stop stop-color="#DED6EC"/>
<stop offset="0.916008" stop-color="#BCADD3"/>
</linearGradient>
<radialGradient id="paint1_radial_1215_23976" cx="0" cy="0" r="1" gradientUnits="userSpaceOnUse" gradientTransform="translate(31.8586 28.9911) rotate(176.473) scale(16.6388 19.1547)">
<stop offset="0.7" stop-color="#D0CCD9"/>
<stop offset="0.870062" stop-color="#D0CCD9" stop-opacity="0"/>
</radialGradient>
<radialGradient id="paint2_radial_1215_23976" cx="0" cy="0" r="1" gradientUnits="userSpaceOnUse" gradientTransform="translate(29.6283 30.4756) rotate(96.9184) scale(16.1155 16.1155)">
<stop offset="0.876332" stop-color="#9B8BAE"/>
<stop offset="0.952383" stop-color="#9B8BAE" stop-opacity="0"/>
</radialGradient>
<radialGradient id="paint3_radial_1215_23976" cx="0" cy="0" r="1" gradientUnits="userSpaceOnUse" gradientTransform="translate(18.1242 9.74862) rotate(38.976) scale(6.20584 3.54011)">
<stop stop-color="#F0F0F5"/>
<stop offset="1" stop-color="#F0F0F5" stop-opacity="0"/>
</radialGradient>
<radialGradient id="paint4_radial_1215_23976" cx="0" cy="0" r="1" gradientUnits="userSpaceOnUse" gradientTransform="translate(35.9477 7.30265) rotate(82.355) scale(7.64129 2.52373)">
<stop stop-color="#F0F0F5"/>
<stop offset="1" stop-color="#F0F0F5" stop-opacity="0"/>
</radialGradient>
<radialGradient id="paint5_radial_1215_23976" cx="0" cy="0" r="1" gradientUnits="userSpaceOnUse" gradientTransform="translate(46.4809 23.1099) rotate(67.543) scale(2.87657 0.765659)">
<stop stop-color="#F0F0F5"/>
<stop offset="0.895851" stop-color="#F0F0F5" stop-opacity="0"/>
</radialGradient>
<radialGradient id="paint6_radial_1215_23976" cx="0" cy="0" r="1" gradientUnits="userSpaceOnUse" gradientTransform="translate(48.4625 11.5394) rotate(44.7582) scale(5.43504 1.31549)">
<stop stop-color="#F0F0F5"/>
<stop offset="0.895851" stop-color="#F0F0F5" stop-opacity="0"/>
</radialGradient>
<radialGradient id="paint7_radial_1215_23976" cx="0" cy="0" r="1" gradientUnits="userSpaceOnUse" gradientTransform="translate(50.2949 14.416) rotate(71.7005) scale(3.47955 1.06586)">
<stop stop-color="#F0F0F5"/>
<stop offset="0.895851" stop-color="#F0F0F5" stop-opacity="0"/>
</radialGradient>
<radialGradient id="paint8_radial_1215_23976" cx="0" cy="0" r="1" gradientUnits="userSpaceOnUse" gradientTransform="translate(49.2533 41.1757) rotate(53.8646) scale(6.0433 1.85119)">
<stop stop-color="#F0F0F5"/>
<stop offset="0.895851" stop-color="#F0F0F5" stop-opacity="0"/>
</radialGradient>
<radialGradient id="paint9_radial_1215_23976" cx="0" cy="0" r="1" gradientUnits="userSpaceOnUse" gradientTransform="translate(50.4928 44.1196) rotate(81.085) scale(3.99938 1.40613)">
<stop stop-color="#F0F0F5"/>
<stop offset="0.895851" stop-color="#F0F0F5" stop-opacity="0"/>
</radialGradient>
<radialGradient id="paint10_radial_1215_23976" cx="0" cy="0" r="1" gradientUnits="userSpaceOnUse" gradientTransform="translate(52.769 24.1772) rotate(14.9314) scale(6.76907 2.37992)">
<stop stop-color="#F0F0F5"/>
<stop offset="0.895851" stop-color="#F0F0F5" stop-opacity="0"/>
</radialGradient>
<radialGradient id="paint11_radial_1215_23976" cx="0" cy="0" r="1" gradientUnits="userSpaceOnUse" gradientTransform="translate(55.9351 26.1938) rotate(64.4074) scale(7.43332 2.61347)">
<stop stop-color="#F0F0F5"/>
<stop offset="0.895851" stop-color="#F0F0F5" stop-opacity="0"/>
</radialGradient>
<radialGradient id="paint12_radial_1215_23976" cx="0" cy="0" r="1" gradientUnits="userSpaceOnUse" gradientTransform="translate(13.2751 17.1301) rotate(49.4546) scale(16.9557 5.62266)">
<stop stop-color="#A196B2"/>
<stop offset="1" stop-color="#A196B2" stop-opacity="0"/>
</radialGradient>
<radialGradient id="paint13_radial_1215_23976" cx="0" cy="0" r="1" gradientUnits="userSpaceOnUse" gradientTransform="translate(7.88895 31.9324) rotate(6.05418) scale(16.1061 8.211)">
<stop stop-color="#A196B2"/>
<stop offset="1" stop-color="#A196B2" stop-opacity="0"/>
</radialGradient>
<radialGradient id="paint14_radial_1215_23976" cx="0" cy="0" r="1" gradientUnits="userSpaceOnUse" gradientTransform="translate(14.9399 42.3476) rotate(-20.0467) scale(14.8871 4.33371)">
<stop stop-color="#A196B2"/>
<stop offset="1" stop-color="#A196B2" stop-opacity="0"/>
</radialGradient>
<radialGradient id="paint15_radial_1215_23976" cx="0" cy="0" r="1" gradientUnits="userSpaceOnUse" gradientTransform="translate(17.7721 46.31) rotate(-39.1054) scale(14.3725 4.18392)">
<stop stop-color="#A389C1"/>
<stop offset="1" stop-color="#A389C1" stop-opacity="0"/>
</radialGradient>
<radialGradient id="paint16_radial_1215_23976" cx="0" cy="0" r="1" gradientUnits="userSpaceOnUse" gradientTransform="translate(28.68 48.8233) rotate(-88.7877) scale(11.5813 5.58744)">
<stop stop-color="#A389C1"/>
<stop offset="1" stop-color="#A389C1" stop-opacity="0"/>
</radialGradient>
<radialGradient id="paint17_radial_1215_23976" cx="0" cy="0" r="1" gradientUnits="userSpaceOnUse" gradientTransform="translate(42.6041 46.8381) rotate(-127.786) scale(11.0489 5.33055)">
<stop stop-color="#A389C1"/>
<stop offset="1" stop-color="#A389C1" stop-opacity="0"/>
</radialGradient>
<radialGradient id="paint18_radial_1215_23976" cx="0" cy="0" r="1" gradientUnits="userSpaceOnUse" gradientTransform="translate(48.5889 32.5137) rotate(-173.863) scale(9.17706 4.42749)">
<stop stop-color="#A389C1"/>
<stop offset="1" stop-color="#A389C1" stop-opacity="0"/>
</radialGradient>
<radialGradient id="paint19_radial_1215_23976" cx="0" cy="0" r="1" gradientUnits="userSpaceOnUse" gradientTransform="translate(27.9465 10.1687) rotate(89.3758) scale(8.0279 5.75133)">
<stop stop-color="#9E9BA3"/>
<stop offset="1" stop-color="#9E9BA3" stop-opacity="0"/>
</radialGradient>
<radialGradient id="paint20_radial_1215_23976" cx="0" cy="0" r="1" gradientUnits="userSpaceOnUse" gradientTransform="translate(41.9405 14.8333) rotate(130.292) scale(6.11554 4.38128)">
<stop stop-color="#9E9BA3"/>
<stop offset="1" stop-color="#9E9BA3" stop-opacity="0"/>
</radialGradient>
<radialGradient id="paint21_radial_1215_23976" cx="0" cy="0" r="1" gradientUnits="userSpaceOnUse" gradientTransform="translate(39.3164 20.918) rotate(133.81) scale(27.9312 36.4393)">
<stop offset="0.032715" stop-color="#E5DFF0"/>
<stop offset="1" stop-color="#9A8BAD"/>
</radialGradient>
<radialGradient id="paint22_radial_1215_23976" cx="0" cy="0" r="1" gradientUnits="userSpaceOnUse" gradientTransform="translate(19.3481 29.0094) rotate(52.3524) scale(14.168)">
<stop stop-color="#A097AC"/>
<stop offset="1" stop-color="#A097AC" stop-opacity="0"/>
</radialGradient>
<radialGradient id="paint23_radial_1215_23976" cx="0" cy="0" r="1" gradientUnits="userSpaceOnUse" gradientTransform="translate(31.6958 28.2628) rotate(134.864) scale(19.694)">
<stop offset="0.770833" stop-color="#A091B3" stop-opacity="0"/>
<stop offset="0.833333" stop-color="#9885AE"/>
</radialGradient>
<radialGradient id="paint24_radial_1215_23976" cx="0" cy="0" r="1" gradientUnits="userSpaceOnUse" gradientTransform="translate(30 30.0146) rotate(90) scale(13.0341)">
<stop offset="0.673149" stop-color="#AEA9B7"/>
<stop offset="0.816075" stop-color="#9888AC" stop-opacity="0"/>
</radialGradient>
<radialGradient id="paint25_radial_1215_23976" cx="0" cy="0" r="1" gradientUnits="userSpaceOnUse" gradientTransform="translate(29.4608 31.6683) rotate(87.2876) scale(11.3933)">
<stop offset="0.676529" stop-color="#9988AE"/>
<stop offset="0.842892" stop-color="#9988AE" stop-opacity="0"/>
</radialGradient>
<radialGradient id="paint26_radial_1215_23976" cx="0" cy="0" r="1" gradientUnits="userSpaceOnUse" gradientTransform="translate(38.3203 23.9648) rotate(128.71) scale(20.8936)">
<stop stop-color="#E6E0F1"/>
<stop offset="1" stop-color="#A89ABA"/>
</radialGradient>
<radialGradient id="paint27_radial_1215_23976" cx="0" cy="0" r="1" gradientUnits="userSpaceOnUse" gradientTransform="translate(20.9766 24.3164) rotate(32.5741) scale(10.0125 20.1841)">
<stop stop-color="#90899A"/>
<stop offset="1" stop-color="#90899A" stop-opacity="0"/>
</radialGradient>
<radialGradient id="paint28_radial_1215_23976" cx="0" cy="0" r="1" gradientUnits="userSpaceOnUse" gradientTransform="translate(36.7383 24.2578) rotate(136.338) scale(17.7378 17.6332)">
<stop offset="0.246219" stop-color="#C9BFD7"/>
<stop offset="1" stop-color="#ADA4BB"/>
</radialGradient>
<radialGradient id="paint29_radial_1215_23976" cx="0" cy="0" r="1" gradientUnits="userSpaceOnUse" gradientTransform="translate(22.6172 36.9141) rotate(-45.5162) scale(9.19829 14.6223)">
<stop offset="0.342773" stop-color="#BCB6C4"/>
<stop offset="1" stop-color="#BCB6C4" stop-opacity="0"/>
</radialGradient>
<radialGradient id="paint30_radial_1215_23976" cx="0" cy="0" r="1" gradientUnits="userSpaceOnUse" gradientTransform="translate(23.9648 21.8555) rotate(49.2589) scale(7.81079 13.8663)">
<stop offset="0.193614" stop-color="#A294B3"/>
<stop offset="1" stop-color="#A294B3" stop-opacity="0"/>
</radialGradient>
</defs>
</svg>
