<svg width="60" height="60" viewBox="0 0 60 60" fill="none" xmlns="http://www.w3.org/2000/svg">
<path d="M30.0621 60C46.5963 60 60 46.5685 60 30C60 13.4315 46.5963 0 30.0621 0C13.5278 0 0.12413 13.4315 0.12413 30C0.12413 46.5685 13.5278 60 30.0621 60Z" fill="url(#paint0_radial_1202_11432)"/>
<g style="mix-blend-mode:soft-light">
<path d="M30.0621 60C46.5963 60 60 46.5685 60 30C60 13.4315 46.5963 0 30.0621 0C13.5278 0 0.12413 13.4315 0.12413 30C0.12413 46.5685 13.5278 60 30.0621 60Z" fill="url(#paint1_radial_1202_11432)"/>
</g>
<g style="mix-blend-mode:soft-light">
<path d="M30.0621 60C46.5963 60 60 46.5685 60 30C60 13.4315 46.5963 0 30.0621 0C13.5278 0 0.12413 13.4315 0.12413 30C0.12413 46.5685 13.5278 60 30.0621 60Z" fill="url(#paint2_radial_1202_11432)"/>
</g>
<g style="mix-blend-mode:overlay">
<path d="M30.0621 60C46.5963 60 60 46.5685 60 30C60 13.4315 46.5963 0 30.0621 0C13.5278 0 0.12413 13.4315 0.12413 30C0.12413 46.5685 13.5278 60 30.0621 60Z" fill="url(#paint3_radial_1202_11432)" fill-opacity="0.7"/>
</g>
<mask id="mask0_1202_11432" style="mask-type:alpha" maskUnits="userSpaceOnUse" x="0" y="0" width="60" height="60">
<path d="M30.0621 60C46.5963 60 60 46.5685 60 30C60 13.4315 46.5963 0 30.0621 0C13.5278 0 0.12413 13.4315 0.12413 30C0.12413 46.5685 13.5278 60 30.0621 60Z" fill="white"/>
</mask>
<g mask="url(#mask0_1202_11432)">
<g filter="url(#filter0_f_1202_11432)">
<path d="M-0.0466636 29.144C-0.0141554 28.7178 0.125829 28.6751 0.166658 29.1079C0.21202 29.5888 0.123841 30.5556 0.145071 31.1387C0.201283 32.6828 0.437487 34.0253 0.680987 35.1174C1.46567 38.6365 2.55234 40.9042 3.56589 42.8255C6.8975 49.141 10.547 52.339 14.1072 54.7492C19.3259 58.2821 24.5869 59.4059 29.8523 59.6443C29.9851 59.6503 30.0072 60.5172 29.8766 60.63C29.641 60.8335 29.3491 60.6316 29.108 60.6231C28.4154 60.5988 27.7228 60.5511 27.0303 60.479C24.9767 60.2652 22.9233 59.8297 20.8741 59.1291C15.3022 57.2241 9.2945 53.9623 4.04781 44.7751C3.71775 44.1971 3.39031 43.5887 3.0675 42.9348C2.80934 42.4119 2.55369 41.8637 2.30254 41.2775C1.47648 39.3492 -0.448517 34.4131 -0.0466636 29.144ZM29.856 60.6393C29.7293 60.6432 29.6972 59.8351 29.818 59.6673C30.0005 59.4137 30.2741 59.6226 30.4666 59.6105C31.2658 59.5605 32.0649 59.4862 32.8637 59.3857C35.054 59.11 37.2428 58.6394 39.4266 57.9147C44.8432 56.1173 50.6666 53.3769 55.7727 44.9578C56.0977 44.422 56.4198 43.8536 56.7377 43.2425C57.7035 41.3855 60.1243 36.4563 59.8444 30.3285C59.8209 29.8119 59.9778 29.5025 60.0481 29.9457C60.1375 30.5099 60.1012 31.6862 60.0765 32.3121C59.9977 34.3167 59.6905 36.0119 59.3665 37.3809C58.34 41.7197 56.8987 44.2354 55.5789 46.3359C51.289 53.1632 46.6296 55.9156 42.0997 57.8934C38.0368 59.6673 33.9429 60.5129 29.856 60.6393Z" fill="#401C02"/>
</g>
<g filter="url(#filter1_f_1202_11432)">
<path d="M-0.0466636 29.144C-0.0141554 28.7178 0.125829 28.6751 0.166658 29.1079C0.21202 29.5888 0.123841 30.5556 0.145071 31.1387C0.201283 32.6828 0.437487 34.0253 0.680987 35.1174C1.46567 38.6365 2.55234 40.9042 3.56589 42.8255C6.8975 49.141 10.547 52.339 14.1072 54.7492C19.3259 58.2821 24.5869 59.4059 29.8523 59.6443C29.9851 59.6503 30.0072 60.5172 29.8766 60.63C29.641 60.8335 29.3491 60.6316 29.108 60.6231C28.4154 60.5988 27.7228 60.5511 27.0303 60.479C24.9767 60.2652 22.9233 59.8297 20.8741 59.1291C15.3022 57.2241 9.2945 53.9623 4.04781 44.7751C3.71775 44.1971 3.39031 43.5887 3.0675 42.9348C2.80934 42.4119 2.55369 41.8637 2.30254 41.2775C1.47648 39.3492 -0.448517 34.4131 -0.0466636 29.144ZM29.856 60.6393C29.7293 60.6432 29.6972 59.8351 29.818 59.6673C30.0005 59.4137 30.2741 59.6226 30.4666 59.6105C31.2658 59.5605 32.0649 59.4862 32.8637 59.3857C35.054 59.11 37.2428 58.6394 39.4266 57.9147C44.8432 56.1173 50.6666 53.3769 55.7727 44.9578C56.0977 44.422 56.4198 43.8536 56.7377 43.2425C57.7035 41.3855 60.1243 36.4563 59.8444 30.3285C59.8209 29.8119 59.9778 29.5025 60.0481 29.9457C60.1375 30.5099 60.1012 31.6862 60.0765 32.3121C59.9977 34.3167 59.6905 36.0119 59.3665 37.3809C58.34 41.7197 56.8987 44.2354 55.5789 46.3359C51.289 53.1632 46.6296 55.9156 42.0997 57.8934C38.0368 59.6673 33.9429 60.5129 29.856 60.6393Z" fill="#401C02"/>
</g>
</g>
<path d="M26.1307 28.7922C26.0342 28.8568 25.9181 28.8854 25.8027 28.8731C25.6872 28.8609 25.5797 28.8085 25.4989 28.725L25.4467 28.6703C25.3363 28.5559 25.2233 28.4427 25.1091 28.3295L24.7789 28.0061C24.6722 27.9041 24.5629 27.8033 24.4524 27.7013C24.342 27.5993 24.2402 27.5085 24.1334 27.414C24.0267 27.3194 23.9249 27.2336 23.8181 27.144C23.7114 27.0545 23.6133 26.9736 23.5103 26.8953C23.4073 26.8169 23.3092 26.7348 23.2062 26.6564C23.1031 26.5781 23.0088 26.5084 22.9095 26.435C22.8102 26.3616 22.7171 26.2957 22.6178 26.2285C22.5185 26.1614 22.4279 26.1042 22.3323 26.037C22.2367 25.9698 22.1461 25.9126 22.0517 25.8591C21.9574 25.8056 21.8705 25.7497 21.7774 25.6949C21.6843 25.6402 21.5999 25.5929 21.5093 25.5444C21.4187 25.4959 21.3343 25.4511 21.2474 25.4063L20.9892 25.282C20.906 25.2434 20.8216 25.2048 20.7409 25.1688C20.6602 25.1327 20.5771 25.0991 20.4927 25.0655C20.4083 25.0319 20.335 25.0033 20.2543 24.9747C20.1736 24.9461 20.0992 24.92 20.021 24.8939C19.9428 24.8677 19.8683 24.8453 19.7926 24.823C19.7168 24.8006 19.6461 24.7807 19.5716 24.7608C19.4971 24.7409 19.4289 24.7247 19.3556 24.7085L19.1471 24.6637C19.0788 24.6501 19.0105 24.6389 18.9435 24.6277C18.8765 24.6165 18.8107 24.6065 18.7449 24.5991C18.6791 24.5916 18.6208 24.5829 18.5537 24.5779C18.4867 24.5729 18.4296 24.5667 18.3688 24.5617L18.19 24.5518C18.1317 24.5518 18.0746 24.5518 18.0162 24.5518C17.9579 24.5518 17.9058 24.5518 17.8487 24.5518H17.6885L17.5396 24.5617L17.3894 24.5754L17.2441 24.5916L17.1796 24.6015C16.4187 24.7098 16.0835 24.4299 15.9482 24.0741C15.7372 23.5181 16.1121 22.9148 16.693 22.7892C21.194 21.8103 24.5133 25.4586 26.266 28.1068C26.3378 28.216 26.3639 28.349 26.3386 28.4773C26.3133 28.6056 26.2386 28.7187 26.1307 28.7922Z" fill="#42210B"/>
<path d="M21.6668 36.5652C23.6529 36.5652 25.2629 34.4752 25.2629 31.8969C25.2629 29.3187 23.6529 27.2286 21.6668 27.2286C19.6808 27.2286 18.0708 29.3187 18.0708 31.8969C18.0708 34.4752 19.6808 36.5652 21.6668 36.5652Z" fill="url(#paint4_radial_1202_11432)"/>
<path d="M21.6668 36.5652C23.6529 36.5652 25.2629 34.4752 25.2629 31.8969C25.2629 29.3187 23.6529 27.2286 21.6668 27.2286C19.6808 27.2286 18.0708 29.3187 18.0708 31.8969C18.0708 34.4752 19.6808 36.5652 21.6668 36.5652Z" stroke="url(#paint5_linear_1202_11432)" stroke-width="0.2" stroke-miterlimit="10"/>
<path d="M33.9807 28.7922C34.0774 28.8571 34.1937 28.8859 34.3094 28.8737C34.4251 28.8614 34.5329 28.8088 34.6138 28.725L34.666 28.6703C34.7764 28.5559 34.8894 28.4427 35.0023 28.3295C35.1153 28.2163 35.2221 28.113 35.3338 28.0061C35.4455 27.8991 35.5498 27.8033 35.659 27.7013C35.7682 27.5993 35.8713 27.5085 35.9793 27.414C36.0873 27.3194 36.1878 27.2336 36.2946 27.144C36.4013 27.0545 36.4994 26.9736 36.6024 26.8953C36.7054 26.8169 36.8035 26.7348 36.9053 26.6564C37.0071 26.5781 37.1026 26.5084 37.2019 26.435C37.3013 26.3616 37.3956 26.2957 37.4949 26.2285C37.5942 26.1614 37.6836 26.1042 37.7804 26.037C37.8772 25.9698 37.9666 25.9126 38.0609 25.8591C38.1553 25.8056 38.2422 25.7497 38.3353 25.6949C38.4284 25.6402 38.5128 25.5929 38.6034 25.5444C38.694 25.4959 38.7784 25.4511 38.8653 25.4063L39.1223 25.282C39.2054 25.2434 39.2898 25.2048 39.3705 25.1688C39.4512 25.1327 39.5331 25.0991 39.6188 25.0655C39.7044 25.0319 39.7764 25.0033 39.8571 24.9747C39.9378 24.9461 40.0123 24.92 40.0905 24.8939C40.1687 24.8677 40.2419 24.8453 40.3189 24.823C40.3958 24.8006 40.4654 24.7807 40.5386 24.7608C40.6118 24.7409 40.6826 24.7247 40.7558 24.7085L40.9644 24.6637C41.0326 24.6501 41.1009 24.6389 41.1679 24.6277C41.235 24.6165 41.3008 24.6065 41.3653 24.5991C41.4299 24.5916 41.4894 24.5829 41.5565 24.5779C41.6235 24.5729 41.6806 24.5667 41.7427 24.5617L41.9214 24.5518H42.094C42.1511 24.5518 42.2057 24.5518 42.2615 24.5518H42.4229L42.5719 24.5617L42.7221 24.5754L42.8673 24.5916L42.9306 24.6015C43.6915 24.7098 44.0279 24.4299 44.1632 24.0741C44.3742 23.5181 43.9994 22.9148 43.4184 22.7892C38.9174 21.8103 35.5982 25.4586 33.8454 28.1068C33.7736 28.216 33.7475 28.349 33.7729 28.4773C33.7982 28.6056 33.8729 28.7187 33.9807 28.7922Z" fill="#42210B"/>
<path d="M38.4444 36.5652C40.4305 36.5652 42.0405 34.4752 42.0405 31.8969C42.0405 29.3187 40.4305 27.2286 38.4444 27.2286C36.4584 27.2286 34.8483 29.3187 34.8483 31.8969C34.8483 34.4752 36.4584 36.5652 38.4444 36.5652Z" fill="url(#paint6_radial_1202_11432)"/>
<path d="M38.4444 36.5652C40.4305 36.5652 42.0405 34.4752 42.0405 31.8969C42.0405 29.3187 40.4305 27.2286 38.4444 27.2286C36.4584 27.2286 34.8483 29.3187 34.8483 31.8969C34.8483 34.4752 36.4584 36.5652 38.4444 36.5652Z" stroke="url(#paint7_linear_1202_11432)" stroke-width="0.2" stroke-miterlimit="10"/>
<path d="M21.1945 48.4045C21.1471 48.4414 21.0893 48.4625 21.0293 48.4649C20.9693 48.4673 20.91 48.4508 20.8598 48.4178C20.8096 48.3848 20.7709 48.3368 20.7493 48.2807C20.7276 48.2245 20.724 48.163 20.739 48.1047C21.768 44.2574 25.5044 41.4064 29.9569 41.4064C34.4095 41.4064 38.1496 44.2599 39.1762 48.1097C39.1914 48.1682 39.188 48.23 39.1663 48.2865C39.1446 48.3429 39.1058 48.3911 39.0553 48.4242C39.0049 48.4573 38.9453 48.4737 38.885 48.4711C38.8247 48.4684 38.7668 48.4469 38.7194 48.4095C36.5049 46.7476 33.3966 45.7127 29.9569 45.7127C26.5173 45.7127 23.4115 46.7476 21.1945 48.4045Z" fill="url(#paint8_radial_1202_11432)"/>
<path d="M21.1945 48.4045C21.1471 48.4414 21.0893 48.4625 21.0293 48.4649C20.9693 48.4673 20.91 48.4508 20.8598 48.4178C20.8096 48.3848 20.7709 48.3368 20.7493 48.2807C20.7276 48.2245 20.724 48.163 20.739 48.1047C21.768 44.2574 25.5044 41.4064 29.9569 41.4064C34.4095 41.4064 38.1496 44.2599 39.1762 48.1097C39.1914 48.1682 39.188 48.23 39.1663 48.2865C39.1446 48.3429 39.1058 48.3911 39.0553 48.4242C39.0049 48.4573 38.9453 48.4737 38.885 48.4711C38.8247 48.4684 38.7668 48.4469 38.7194 48.4095C36.5049 46.7476 33.3966 45.7127 29.9569 45.7127C26.5173 45.7127 23.4115 46.7476 21.1945 48.4045Z" stroke="url(#paint9_linear_1202_11432)" stroke-width="0.2" stroke-miterlimit="10"/>
<defs>
<filter id="filter0_f_1202_11432" x="-25.1012" y="3.80315" width="110.206" height="81.9174" filterUnits="userSpaceOnUse" color-interpolation-filters="sRGB">
<feFlood flood-opacity="0" result="BackgroundImageFix"/>
<feBlend mode="normal" in="SourceGraphic" in2="BackgroundImageFix" result="shape"/>
<feGaussianBlur stdDeviation="12.5" result="effect1_foregroundBlur_1202_11432"/>
</filter>
<filter id="filter1_f_1202_11432" x="-40.1012" y="-11.1969" width="140.206" height="111.917" filterUnits="userSpaceOnUse" color-interpolation-filters="sRGB">
<feFlood flood-opacity="0" result="BackgroundImageFix"/>
<feBlend mode="normal" in="SourceGraphic" in2="BackgroundImageFix" result="shape"/>
<feGaussianBlur stdDeviation="20" result="effect1_foregroundBlur_1202_11432"/>
</filter>
<radialGradient id="paint0_radial_1202_11432" cx="0" cy="0" r="1" gradientUnits="userSpaceOnUse" gradientTransform="translate(30.0397) rotate(90) scale(59.9552 59.8312)">
<stop stop-color="#FFDE43"/>
<stop offset="1" stop-color="#FFBC00"/>
</radialGradient>
<radialGradient id="paint1_radial_1202_11432" cx="0" cy="0" r="1" gradientUnits="userSpaceOnUse" gradientTransform="translate(30.0397 8.02305) rotate(90) scale(51.9322 51.8247)">
<stop stop-color="white" stop-opacity="0.5"/>
<stop offset="0.782278"/>
</radialGradient>
<radialGradient id="paint2_radial_1202_11432" cx="0" cy="0" r="1" gradientUnits="userSpaceOnUse" gradientTransform="translate(30.0397 8.02305) rotate(90) scale(51.9322 51.8247)">
<stop stop-color="white" stop-opacity="0.5"/>
<stop offset="0.782278"/>
</radialGradient>
<radialGradient id="paint3_radial_1202_11432" cx="0" cy="0" r="1" gradientUnits="userSpaceOnUse" gradientTransform="translate(30.0397 -6.53039) rotate(90) scale(66.4856 89.7263)">
<stop offset="0.0922635" stop-color="white"/>
<stop offset="0.670207" stop-color="white" stop-opacity="0"/>
</radialGradient>
<radialGradient id="paint4_radial_1202_11432" cx="0" cy="0" r="1" gradientUnits="userSpaceOnUse" gradientTransform="translate(21.6619 31.8938) scale(4.58412 4.6764)">
<stop stop-color="#743C1C"/>
<stop offset="1" stop-color="#401C02"/>
</radialGradient>
<linearGradient id="paint5_linear_1202_11432" x1="21.6668" y1="36.8279" x2="21.6668" y2="26.9282" gradientUnits="userSpaceOnUse">
<stop offset="0.265625" stop-color="#FFDE43"/>
<stop offset="1" stop-color="#F79D14"/>
</linearGradient>
<radialGradient id="paint6_radial_1202_11432" cx="0" cy="0" r="1" gradientUnits="userSpaceOnUse" gradientTransform="translate(38.4394 31.8938) scale(4.58412 4.6764)">
<stop stop-color="#743C1C"/>
<stop offset="1" stop-color="#401C02"/>
</radialGradient>
<linearGradient id="paint7_linear_1202_11432" x1="38.4444" y1="36.8279" x2="38.4444" y2="26.9282" gradientUnits="userSpaceOnUse">
<stop offset="0.265625" stop-color="#FFDE43"/>
<stop offset="1" stop-color="#F79D14"/>
</linearGradient>
<radialGradient id="paint8_radial_1202_11432" cx="0" cy="0" r="1" gradientUnits="userSpaceOnUse" gradientTransform="translate(29.9577 44.9246) scale(6.96538 7.136)">
<stop stop-color="#743C1C"/>
<stop offset="1" stop-color="#401C02"/>
</radialGradient>
<linearGradient id="paint9_linear_1202_11432" x1="29.9577" y1="48.6702" x2="29.9577" y2="41.1791" gradientUnits="userSpaceOnUse">
<stop offset="0.265625" stop-color="#FFDE43"/>
<stop offset="1" stop-color="#F79D14"/>
</linearGradient>
</defs>
</svg>
