<svg width="60" height="60" viewBox="0 0 60 60" fill="none" xmlns="http://www.w3.org/2000/svg">
<path d="M30 60C46.5685 60 60 46.5685 60 30C60 13.4315 46.5685 0 30 0C13.4315 0 0 13.4315 0 30C0 46.5685 13.4315 60 30 60Z" fill="url(#paint0_radial_1202_22611)"/>
<g style="mix-blend-mode:soft-light">
<path d="M30 60C46.5685 60 60 46.5685 60 30C60 13.4315 46.5685 0 30 0C13.4315 0 0 13.4315 0 30C0 46.5685 13.4315 60 30 60Z" fill="url(#paint1_radial_1202_22611)"/>
</g>
<g style="mix-blend-mode:soft-light">
<path d="M30 60C46.5685 60 60 46.5685 60 30C60 13.4315 46.5685 0 30 0C13.4315 0 0 13.4315 0 30C0 46.5685 13.4315 60 30 60Z" fill="url(#paint2_radial_1202_22611)"/>
</g>
<g style="mix-blend-mode:overlay">
<path d="M30 60C46.5685 60 60 46.5685 60 30C60 13.4315 46.5685 0 30 0C13.4315 0 0 13.4315 0 30C0 46.5685 13.4315 60 30 60Z" fill="url(#paint3_radial_1202_22611)" fill-opacity="0.7"/>
</g>
<mask id="mask0_1202_22611" style="mask-type:alpha" maskUnits="userSpaceOnUse" x="0" y="0" width="60" height="60">
<path d="M30 60C46.5685 60 60 46.5685 60 30C60 13.4315 46.5685 0 30 0C13.4315 0 0 13.4315 0 30C0 46.5685 13.4315 60 30 60Z" fill="white"/>
</mask>
<g mask="url(#mask0_1202_22611)">
<g filter="url(#filter0_f_1202_22611)">
<path d="M-0.171146 29.144C-0.138571 28.7178 0.00170434 28.6751 0.042618 29.1079C0.0880739 29.5888 -0.000287995 30.5556 0.0209856 31.1387C0.0773142 32.6828 0.314008 34.0253 0.558012 35.1174C1.34433 38.6365 2.43325 40.9042 3.4489 42.8255C6.78742 49.141 10.4445 52.339 14.0121 54.7491C19.2416 58.2821 24.5135 59.4059 29.7898 59.6442C29.9229 59.6503 29.9451 60.5172 29.8141 60.63C29.578 60.8335 29.2856 60.6316 29.044 60.6231C28.3499 60.5988 27.6559 60.5511 26.9619 60.479C24.9041 60.2652 22.8465 59.8297 20.793 59.1291C15.2095 57.2241 9.18938 53.9623 3.93182 44.7751C3.60107 44.1971 3.27295 43.5887 2.94947 42.9348C2.69078 42.4119 2.4346 41.8637 2.18293 41.2775C1.35516 39.3492 -0.573832 34.4131 -0.171146 29.144ZM29.7935 60.6393C29.6666 60.6432 29.6344 59.8351 29.7554 59.6673C29.9383 59.4137 30.2125 59.6225 30.4053 59.6105C31.2062 59.5605 32.0069 59.4862 32.8074 59.3857C35.0023 59.11 37.1956 58.6394 39.3839 57.9147C44.8118 56.1173 50.6472 53.3769 55.7639 44.9578C56.0896 44.422 56.4124 43.8536 56.7309 43.2425C57.6988 41.3855 60.1246 36.4563 59.8441 30.3285C59.8205 29.8119 59.9778 29.5025 60.0482 29.9457C60.1378 30.5099 60.1014 31.6862 60.0767 32.3121C59.9977 34.3167 59.6898 36.0119 59.3652 37.3809C58.3365 41.7197 56.8923 44.2354 55.5697 46.3359C51.2709 53.1632 46.6019 55.9156 42.0626 57.8934C37.9912 59.6673 33.8889 60.5129 29.7935 60.6393Z" fill="#401C02"/>
</g>
<g filter="url(#filter1_f_1202_22611)">
<path d="M-0.171146 29.144C-0.138571 28.7178 0.00170434 28.6751 0.042618 29.1079C0.0880739 29.5888 -0.000287995 30.5556 0.0209856 31.1387C0.0773142 32.6828 0.314008 34.0253 0.558012 35.1174C1.34433 38.6365 2.43325 40.9042 3.4489 42.8255C6.78742 49.141 10.4445 52.339 14.0121 54.7491C19.2416 58.2821 24.5135 59.4059 29.7898 59.6442C29.9229 59.6503 29.9451 60.5172 29.8141 60.63C29.578 60.8335 29.2856 60.6316 29.044 60.6231C28.3499 60.5988 27.6559 60.5511 26.9619 60.479C24.9041 60.2652 22.8465 59.8297 20.793 59.1291C15.2095 57.2241 9.18938 53.9623 3.93182 44.7751C3.60107 44.1971 3.27295 43.5887 2.94947 42.9348C2.69078 42.4119 2.4346 41.8637 2.18293 41.2775C1.35516 39.3492 -0.573832 34.4131 -0.171146 29.144ZM29.7935 60.6393C29.6666 60.6432 29.6344 59.8351 29.7554 59.6673C29.9383 59.4137 30.2125 59.6225 30.4053 59.6105C31.2062 59.5605 32.0069 59.4862 32.8074 59.3857C35.0023 59.11 37.1956 58.6394 39.3839 57.9147C44.8118 56.1173 50.6472 53.3769 55.7639 44.9578C56.0896 44.422 56.4124 43.8536 56.7309 43.2425C57.6988 41.3855 60.1246 36.4563 59.8441 30.3285C59.8205 29.8119 59.9778 29.5025 60.0482 29.9457C60.1378 30.5099 60.1014 31.6862 60.0767 32.3121C59.9977 34.3167 59.6898 36.0119 59.3652 37.3809C58.3365 41.7197 56.8923 44.2354 55.5697 46.3359C51.2709 53.1632 46.6019 55.9156 42.0626 57.8934C37.9912 59.6673 33.8889 60.5129 29.7935 60.6393Z" fill="#401C02"/>
</g>
</g>
<path d="M20.4283 27.3455C22.299 27.3455 23.8154 25.4749 23.8154 23.1673C23.8154 20.8598 22.299 18.9891 20.4283 18.9891C18.5577 18.9891 17.0412 20.8598 17.0412 23.1673C17.0412 25.4749 18.5577 27.3455 20.4283 27.3455Z" fill="url(#paint4_radial_1202_22611)"/>
<path d="M20.4283 27.3455C22.299 27.3455 23.8154 25.4749 23.8154 23.1673C23.8154 20.8598 22.299 18.9891 20.4283 18.9891C18.5577 18.9891 17.0412 20.8598 17.0412 23.1673C17.0412 25.4749 18.5577 27.3455 20.4283 27.3455Z" stroke="url(#paint5_linear_1202_22611)" stroke-width="0.2" stroke-miterlimit="10"/>
<path d="M39.507 27.3455C41.3776 27.3455 42.8941 25.4749 42.8941 23.1673C42.8941 20.8598 41.3776 18.9891 39.507 18.9891C37.6364 18.9891 36.1199 20.8598 36.1199 23.1673C36.1199 25.4749 37.6364 27.3455 39.507 27.3455Z" fill="url(#paint6_radial_1202_22611)"/>
<path d="M39.507 27.3455C41.3776 27.3455 42.8941 25.4749 42.8941 23.1673C42.8941 20.8598 41.3776 18.9891 39.507 18.9891C37.6364 18.9891 36.1199 20.8598 36.1199 23.1673C36.1199 25.4749 37.6364 27.3455 39.507 27.3455Z" stroke="url(#paint7_linear_1202_22611)" stroke-width="0.2" stroke-miterlimit="10"/>
<path d="M41.7714 41.9326C42.0487 42.4252 41.4962 42.837 41.0301 42.5172C40.5405 42.1813 40.0459 41.8715 39.5512 41.5826C38.54 40.9921 37.5068 40.4891 36.4516 40.1173C35.3964 39.7236 34.3412 39.4393 33.2421 39.2425C32.1649 39.0675 31.0658 38.9582 29.9666 38.9582C28.8675 38.9582 27.7683 39.0457 26.6912 39.2425C25.614 39.4393 24.5368 39.7236 23.4817 40.1173C22.4265 40.511 21.3933 40.9921 20.3821 41.5826C19.9053 41.8778 19.4286 42.1881 18.9518 42.5186C18.4619 42.8583 17.9199 42.4431 18.2278 41.9326V41.9326C18.5575 41.3858 18.9312 40.8609 19.3709 40.3798C20.2062 39.3956 21.2174 38.5426 22.3605 37.8209C23.4597 37.1211 24.7127 36.5743 26.0097 36.2244C27.3067 35.8744 28.6476 35.6995 29.9886 35.6995C31.3296 35.6995 32.6705 35.8744 33.9675 36.2244C35.2645 36.5962 36.4955 37.1211 37.6387 37.8209C38.7598 38.5208 39.771 39.3956 40.6283 40.3798C41.046 40.8828 41.4417 41.3858 41.7714 41.9326V41.9326Z" stroke="url(#paint8_linear_1202_22611)" stroke-width="0.2"/>
<path d="M41.7714 41.9326C42.0487 42.4252 41.4962 42.837 41.0301 42.5172C40.5405 42.1813 40.0459 41.8715 39.5512 41.5826C38.54 40.9921 37.5068 40.4891 36.4516 40.1173C35.3964 39.7236 34.3412 39.4393 33.2421 39.2425C32.1649 39.0675 31.0658 38.9582 29.9666 38.9582C28.8675 38.9582 27.7683 39.0457 26.6912 39.2425C25.614 39.4393 24.5368 39.7236 23.4817 40.1173C22.4265 40.511 21.3933 40.9921 20.3821 41.5826C19.9053 41.8778 19.4286 42.1881 18.9518 42.5186C18.4619 42.8583 17.9199 42.4431 18.2278 41.9326C18.5575 41.3858 18.9312 40.8609 19.3709 40.3798C20.2062 39.3956 21.2174 38.5426 22.3605 37.8209C23.4597 37.1211 24.7127 36.5743 26.0097 36.2244C27.3067 35.8744 28.6476 35.6995 29.9886 35.6995C31.3296 35.6995 32.6705 35.8744 33.9675 36.2244C35.2645 36.5962 36.4955 37.1211 37.6387 37.8209C38.7598 38.5208 39.771 39.3956 40.6283 40.3798C41.046 40.8828 41.4417 41.3858 41.7714 41.9326Z" fill="url(#paint9_radial_1202_22611)"/>
<defs>
<filter id="filter0_f_1202_22611" x="-25.2258" y="3.80315" width="110.331" height="81.9174" filterUnits="userSpaceOnUse" color-interpolation-filters="sRGB">
<feFlood flood-opacity="0" result="BackgroundImageFix"/>
<feBlend mode="normal" in="SourceGraphic" in2="BackgroundImageFix" result="shape"/>
<feGaussianBlur stdDeviation="12.5" result="effect1_foregroundBlur_1202_22611"/>
</filter>
<filter id="filter1_f_1202_22611" x="-40.2258" y="-11.1969" width="140.331" height="111.917" filterUnits="userSpaceOnUse" color-interpolation-filters="sRGB">
<feFlood flood-opacity="0" result="BackgroundImageFix"/>
<feBlend mode="normal" in="SourceGraphic" in2="BackgroundImageFix" result="shape"/>
<feGaussianBlur stdDeviation="20" result="effect1_foregroundBlur_1202_22611"/>
</filter>
<radialGradient id="paint0_radial_1202_22611" cx="0" cy="0" r="1" gradientUnits="userSpaceOnUse" gradientTransform="translate(29.9776) rotate(90) scale(59.9552)">
<stop stop-color="#FFDE43"/>
<stop offset="1" stop-color="#FFBC00"/>
</radialGradient>
<radialGradient id="paint1_radial_1202_22611" cx="0" cy="0" r="1" gradientUnits="userSpaceOnUse" gradientTransform="translate(29.9776 8.02305) rotate(90) scale(51.9322)">
<stop stop-color="white" stop-opacity="0.5"/>
<stop offset="0.782278"/>
</radialGradient>
<radialGradient id="paint2_radial_1202_22611" cx="0" cy="0" r="1" gradientUnits="userSpaceOnUse" gradientTransform="translate(29.9776 8.02305) rotate(90) scale(51.9322)">
<stop stop-color="white" stop-opacity="0.5"/>
<stop offset="0.782278"/>
</radialGradient>
<radialGradient id="paint3_radial_1202_22611" cx="0" cy="0" r="1" gradientUnits="userSpaceOnUse" gradientTransform="translate(29.9776 -6.53039) rotate(90) scale(66.4856 89.9123)">
<stop offset="0.0922635" stop-color="white"/>
<stop offset="0.670207" stop-color="white" stop-opacity="0"/>
</radialGradient>
<radialGradient id="paint4_radial_1202_22611" cx="0" cy="0" r="1" gradientUnits="userSpaceOnUse" gradientTransform="translate(20.4236 23.1645) scale(4.31773 4.18546)">
<stop stop-color="#743C1C"/>
<stop offset="1" stop-color="#401C02"/>
</radialGradient>
<linearGradient id="paint5_linear_1202_22611" x1="20.4283" y1="27.5807" x2="20.4283" y2="18.7202" gradientUnits="userSpaceOnUse">
<stop stop-color="#FFDE43"/>
<stop offset="0.22" stop-color="#FED93F"/>
<stop offset="0.51" stop-color="#FCC934"/>
<stop offset="0.82" stop-color="#F9AF21"/>
<stop offset="1" stop-color="#F79D14"/>
</linearGradient>
<radialGradient id="paint6_radial_1202_22611" cx="0" cy="0" r="1" gradientUnits="userSpaceOnUse" gradientTransform="translate(39.5023 23.1645) scale(4.31773 4.18546)">
<stop stop-color="#743C1C"/>
<stop offset="1" stop-color="#401C02"/>
</radialGradient>
<linearGradient id="paint7_linear_1202_22611" x1="39.507" y1="27.5807" x2="39.507" y2="18.7202" gradientUnits="userSpaceOnUse">
<stop stop-color="#FFDE43"/>
<stop offset="0.22" stop-color="#FED93F"/>
<stop offset="0.51" stop-color="#FCC934"/>
<stop offset="0.82" stop-color="#F9AF21"/>
<stop offset="1" stop-color="#F79D14"/>
</linearGradient>
<linearGradient id="paint8_linear_1202_22611" x1="29.9776" y1="43.8843" x2="29.9776" y2="35.4433" gradientUnits="userSpaceOnUse">
<stop offset="0.265625" stop-color="#FFDE43"/>
<stop offset="1" stop-color="#F79D14"/>
</linearGradient>
<radialGradient id="paint9_radial_1202_22611" cx="0" cy="0" r="1" gradientUnits="userSpaceOnUse" gradientTransform="translate(29.9776 39.6638) scale(9.48302 8.04091)">
<stop stop-color="#743C1C"/>
<stop offset="1" stop-color="#401C02"/>
</radialGradient>
</defs>
</svg>
