<svg width="60" height="60" viewBox="0 0 60 60" fill="none" xmlns="http://www.w3.org/2000/svg">
<path d="M30 60C46.5685 60 60 46.5685 60 30C60 13.4315 46.5685 0 30 0C13.4315 0 0 13.4315 0 30C0 46.5685 13.4315 60 30 60Z" fill="url(#paint0_radial_1202_22631)"/>
<g style="mix-blend-mode:soft-light">
<path d="M30 60C46.5685 60 60 46.5685 60 30C60 13.4315 46.5685 0 30 0C13.4315 0 0 13.4315 0 30C0 46.5685 13.4315 60 30 60Z" fill="url(#paint1_radial_1202_22631)"/>
</g>
<g style="mix-blend-mode:soft-light">
<path d="M30 60C46.5685 60 60 46.5685 60 30C60 13.4315 46.5685 0 30 0C13.4315 0 0 13.4315 0 30C0 46.5685 13.4315 60 30 60Z" fill="url(#paint2_radial_1202_22631)"/>
</g>
<g style="mix-blend-mode:overlay">
<path d="M30 60C46.5685 60 60 46.5685 60 30C60 13.4315 46.5685 0 30 0C13.4315 0 0 13.4315 0 30C0 46.5685 13.4315 60 30 60Z" fill="url(#paint3_radial_1202_22631)" fill-opacity="0.7"/>
</g>
<mask id="mask0_1202_22631" style="mask-type:alpha" maskUnits="userSpaceOnUse" x="0" y="0" width="60" height="60">
<path d="M30 60C46.5685 60 60 46.5685 60 30C60 13.4315 46.5685 0 30 0C13.4315 0 0 13.4315 0 30C0 46.5685 13.4315 60 30 60Z" fill="white"/>
</mask>
<g mask="url(#mask0_1202_22631)">
<g filter="url(#filter0_f_1202_22631)">
<path d="M-0.171146 29.144C-0.138571 28.7178 0.00170434 28.6751 0.042618 29.1079C0.0880739 29.5888 -0.000287995 30.5556 0.0209856 31.1387C0.0773142 32.6828 0.314008 34.0253 0.558012 35.1174C1.34433 38.6365 2.43325 40.9042 3.4489 42.8255C6.78742 49.141 10.4445 52.339 14.0121 54.7491C19.2416 58.2821 24.5135 59.4059 29.7898 59.6442C29.9229 59.6503 29.9451 60.5172 29.8141 60.63C29.578 60.8335 29.2856 60.6316 29.044 60.6231C28.3499 60.5988 27.6559 60.5511 26.9619 60.479C24.9041 60.2652 22.8465 59.8297 20.793 59.1291C15.2095 57.2241 9.18938 53.9623 3.93182 44.7751C3.60107 44.1971 3.27295 43.5887 2.94947 42.9348C2.69078 42.4119 2.4346 41.8637 2.18293 41.2775C1.35516 39.3492 -0.573832 34.4131 -0.171146 29.144ZM29.7935 60.6393C29.6666 60.6432 29.6344 59.8351 29.7554 59.6673C29.9383 59.4137 30.2125 59.6225 30.4053 59.6105C31.2062 59.5605 32.0069 59.4862 32.8074 59.3857C35.0023 59.11 37.1956 58.6394 39.3839 57.9147C44.8118 56.1173 50.6472 53.3769 55.7639 44.9578C56.0896 44.422 56.4124 43.8536 56.7309 43.2425C57.6988 41.3855 60.1246 36.4563 59.8441 30.3285C59.8205 29.8119 59.9778 29.5025 60.0482 29.9457C60.1378 30.5099 60.1014 31.6862 60.0767 32.3121C59.9977 34.3167 59.6898 36.0119 59.3652 37.3809C58.3365 41.7197 56.8923 44.2354 55.5697 46.3359C51.2709 53.1632 46.6019 55.9156 42.0626 57.8934C37.9912 59.6673 33.8889 60.5129 29.7935 60.6393Z" fill="#401C02"/>
</g>
<g filter="url(#filter1_f_1202_22631)">
<path d="M-0.171146 29.144C-0.138571 28.7178 0.00170434 28.6751 0.042618 29.1079C0.0880739 29.5888 -0.000287995 30.5556 0.0209856 31.1387C0.0773142 32.6828 0.314008 34.0253 0.558012 35.1174C1.34433 38.6365 2.43325 40.9042 3.4489 42.8255C6.78742 49.141 10.4445 52.339 14.0121 54.7491C19.2416 58.2821 24.5135 59.4059 29.7898 59.6442C29.9229 59.6503 29.9451 60.5172 29.8141 60.63C29.578 60.8335 29.2856 60.6316 29.044 60.6231C28.3499 60.5988 27.6559 60.5511 26.9619 60.479C24.9041 60.2652 22.8465 59.8297 20.793 59.1291C15.2095 57.2241 9.18938 53.9623 3.93182 44.7751C3.60107 44.1971 3.27295 43.5887 2.94947 42.9348C2.69078 42.4119 2.4346 41.8637 2.18293 41.2775C1.35516 39.3492 -0.573832 34.4131 -0.171146 29.144ZM29.7935 60.6393C29.6666 60.6432 29.6344 59.8351 29.7554 59.6673C29.9383 59.4137 30.2125 59.6225 30.4053 59.6105C31.2062 59.5605 32.0069 59.4862 32.8074 59.3857C35.0023 59.11 37.1956 58.6394 39.3839 57.9147C44.8118 56.1173 50.6472 53.3769 55.7639 44.9578C56.0896 44.422 56.4124 43.8536 56.7309 43.2425C57.6988 41.3855 60.1246 36.4563 59.8441 30.3285C59.8205 29.8119 59.9778 29.5025 60.0482 29.9457C60.1378 30.5099 60.1014 31.6862 60.0767 32.3121C59.9977 34.3167 59.6898 36.0119 59.3652 37.3809C58.3365 41.7197 56.8923 44.2354 55.5697 46.3359C51.2709 53.1632 46.6019 55.9156 42.0626 57.8934C37.9912 59.6673 33.8889 60.5129 29.7935 60.6393Z" fill="#401C02"/>
</g>
</g>
<path d="M21.0179 27.6254C23.0081 27.6254 24.6214 25.2218 24.6214 22.2568C24.6214 19.2918 23.0081 16.8882 21.0179 16.8882C19.0277 16.8882 17.4144 19.2918 17.4144 22.2568C17.4144 25.2218 19.0277 27.6254 21.0179 27.6254Z" fill="url(#paint4_radial_1202_22631)"/>
<path d="M21.0179 27.6254C23.0081 27.6254 24.6214 25.2218 24.6214 22.2568C24.6214 19.2918 23.0081 16.8882 21.0179 16.8882C19.0277 16.8882 17.4144 19.2918 17.4144 22.2568C17.4144 25.2218 19.0277 27.6254 21.0179 27.6254Z" stroke="url(#paint5_linear_1202_22631)" stroke-width="0.2" stroke-miterlimit="10"/>
<path d="M39.0318 27.6254C41.0219 27.6254 42.6353 25.2218 42.6353 22.2568C42.6353 19.2918 41.0219 16.8882 39.0318 16.8882C37.0416 16.8882 35.4282 19.2918 35.4282 22.2568C35.4282 25.2218 37.0416 27.6254 39.0318 27.6254Z" fill="url(#paint6_radial_1202_22631)"/>
<path d="M39.0318 27.6254C41.0219 27.6254 42.6353 25.2218 42.6353 22.2568C42.6353 19.2918 41.0219 16.8882 39.0318 16.8882C37.0416 16.8882 35.4282 19.2918 35.4282 22.2568C35.4282 25.2218 37.0416 27.6254 39.0318 27.6254Z" stroke="url(#paint7_linear_1202_22631)" stroke-width="0.2" stroke-miterlimit="10"/>
<path d="M43.6106 37.4558H16.2974C15.4029 37.4558 14.6778 38.1809 14.6778 39.0754C14.6778 39.9698 15.4029 40.6949 16.2974 40.6949H43.6106C44.505 40.6949 45.2301 39.9698 45.2301 39.0754C45.2301 38.1809 44.505 37.4558 43.6106 37.4558Z" fill="url(#paint8_radial_1202_22631)"/>
<path d="M43.6106 37.4558H16.2974C15.4029 37.4558 14.6778 38.1809 14.6778 39.0754C14.6778 39.9698 15.4029 40.6949 16.2974 40.6949H43.6106C44.505 40.6949 45.2301 39.9698 45.2301 39.0754C45.2301 38.1809 44.505 37.4558 43.6106 37.4558Z" stroke="url(#paint9_linear_1202_22631)" stroke-width="0.2" stroke-miterlimit="10"/>
<defs>
<filter id="filter0_f_1202_22631" x="-25.2258" y="3.80315" width="110.331" height="81.9174" filterUnits="userSpaceOnUse" color-interpolation-filters="sRGB">
<feFlood flood-opacity="0" result="BackgroundImageFix"/>
<feBlend mode="normal" in="SourceGraphic" in2="BackgroundImageFix" result="shape"/>
<feGaussianBlur stdDeviation="12.5" result="effect1_foregroundBlur_1202_22631"/>
</filter>
<filter id="filter1_f_1202_22631" x="-40.2258" y="-11.1969" width="140.331" height="111.917" filterUnits="userSpaceOnUse" color-interpolation-filters="sRGB">
<feFlood flood-opacity="0" result="BackgroundImageFix"/>
<feBlend mode="normal" in="SourceGraphic" in2="BackgroundImageFix" result="shape"/>
<feGaussianBlur stdDeviation="20" result="effect1_foregroundBlur_1202_22631"/>
</filter>
<radialGradient id="paint0_radial_1202_22631" cx="0" cy="0" r="1" gradientUnits="userSpaceOnUse" gradientTransform="translate(29.9776) rotate(90) scale(59.9552)">
<stop stop-color="#FFDE43"/>
<stop offset="1" stop-color="#FFBC00"/>
</radialGradient>
<radialGradient id="paint1_radial_1202_22631" cx="0" cy="0" r="1" gradientUnits="userSpaceOnUse" gradientTransform="translate(29.9776 8.02305) rotate(90) scale(51.9322)">
<stop stop-color="white" stop-opacity="0.5"/>
<stop offset="0.782278"/>
</radialGradient>
<radialGradient id="paint2_radial_1202_22631" cx="0" cy="0" r="1" gradientUnits="userSpaceOnUse" gradientTransform="translate(29.9776 8.02305) rotate(90) scale(51.9322)">
<stop stop-color="white" stop-opacity="0.5"/>
<stop offset="0.782278"/>
</radialGradient>
<radialGradient id="paint3_radial_1202_22631" cx="0" cy="0" r="1" gradientUnits="userSpaceOnUse" gradientTransform="translate(29.9776 -6.53039) rotate(90) scale(66.4856 89.9123)">
<stop offset="0.0922635" stop-color="white"/>
<stop offset="0.670207" stop-color="white" stop-opacity="0"/>
</radialGradient>
<radialGradient id="paint4_radial_1202_22631" cx="0" cy="0" r="1" gradientUnits="userSpaceOnUse" gradientTransform="translate(21.0129 22.2532) scale(4.59363 5.37792)">
<stop stop-color="#743C1C"/>
<stop offset="1" stop-color="#401C02"/>
</radialGradient>
<linearGradient id="paint5_linear_1202_22631" x1="21.0179" y1="27.9276" x2="21.0179" y2="16.5427" gradientUnits="userSpaceOnUse">
<stop stop-color="#FFDE43"/>
<stop offset="0.22" stop-color="#FED93F"/>
<stop offset="0.51" stop-color="#FCC934"/>
<stop offset="0.82" stop-color="#F9AF21"/>
<stop offset="1" stop-color="#F79D14"/>
</linearGradient>
<radialGradient id="paint6_radial_1202_22631" cx="0" cy="0" r="1" gradientUnits="userSpaceOnUse" gradientTransform="translate(39.0268 22.2532) scale(4.59363 5.37792)">
<stop stop-color="#743C1C"/>
<stop offset="1" stop-color="#401C02"/>
</radialGradient>
<linearGradient id="paint7_linear_1202_22631" x1="39.0318" y1="27.9276" x2="39.0318" y2="16.5427" gradientUnits="userSpaceOnUse">
<stop stop-color="#FFDE43"/>
<stop offset="0.22" stop-color="#FED93F"/>
<stop offset="0.51" stop-color="#FCC934"/>
<stop offset="0.82" stop-color="#F9AF21"/>
<stop offset="1" stop-color="#F79D14"/>
</linearGradient>
<radialGradient id="paint8_radial_1202_22631" cx="0" cy="0" r="1" gradientUnits="userSpaceOnUse" gradientTransform="translate(29.954 39.0688) scale(11.5308 3.27164)">
<stop stop-color="#743C1C"/>
<stop offset="1" stop-color="#401C02"/>
</radialGradient>
<linearGradient id="paint9_linear_1202_22631" x1="29.954" y1="40.786" x2="29.954" y2="37.3516" gradientUnits="userSpaceOnUse">
<stop offset="0.265625" stop-color="#FFDE43"/>
<stop offset="1" stop-color="#F79D14"/>
</linearGradient>
</defs>
</svg>
