<svg width="60" height="60" viewBox="0 0 60 60" fill="none" xmlns="http://www.w3.org/2000/svg">
<path d="M30 60C46.5685 60 60 46.5685 60 30C60 13.4315 46.5685 0 30 0C13.4315 0 0 13.4315 0 30C0 46.5685 13.4315 60 30 60Z" fill="url(#paint0_radial_1202_22651)"/>
<g style="mix-blend-mode:soft-light">
<path d="M30 60C46.5685 60 60 46.5685 60 30C60 13.4315 46.5685 0 30 0C13.4315 0 0 13.4315 0 30C0 46.5685 13.4315 60 30 60Z" fill="url(#paint1_radial_1202_22651)"/>
</g>
<g style="mix-blend-mode:soft-light">
<path d="M30 60C46.5685 60 60 46.5685 60 30C60 13.4315 46.5685 0 30 0C13.4315 0 0 13.4315 0 30C0 46.5685 13.4315 60 30 60Z" fill="url(#paint2_radial_1202_22651)"/>
</g>
<g style="mix-blend-mode:overlay">
<path d="M30 60C46.5685 60 60 46.5685 60 30C60 13.4315 46.5685 0 30 0C13.4315 0 0 13.4315 0 30C0 46.5685 13.4315 60 30 60Z" fill="url(#paint3_radial_1202_22651)" fill-opacity="0.7"/>
</g>
<mask id="mask0_1202_22651" style="mask-type:alpha" maskUnits="userSpaceOnUse" x="0" y="0" width="60" height="60">
<path d="M30 60C46.5685 60 60 46.5685 60 30C60 13.4315 46.5685 0 30 0C13.4315 0 0 13.4315 0 30C0 46.5685 13.4315 60 30 60Z" fill="white"/>
</mask>
<g mask="url(#mask0_1202_22651)">
<g filter="url(#filter0_f_1202_22651)">
<path d="M-0.171146 29.144C-0.138571 28.7178 0.00170434 28.6751 0.042618 29.1079C0.0880739 29.5888 -0.000287995 30.5556 0.0209856 31.1387C0.0773142 32.6828 0.314008 34.0253 0.558012 35.1174C1.34433 38.6365 2.43325 40.9042 3.4489 42.8255C6.78742 49.141 10.4445 52.339 14.0121 54.7492C19.2416 58.2821 24.5135 59.4059 29.7898 59.6443C29.9229 59.6503 29.9451 60.5172 29.8141 60.63C29.578 60.8335 29.2856 60.6316 29.044 60.6231C28.3499 60.5988 27.6559 60.5511 26.9619 60.479C24.9041 60.2652 22.8465 59.8297 20.793 59.1291C15.2095 57.2241 9.18938 53.9623 3.93182 44.7751C3.60107 44.1971 3.27295 43.5887 2.94947 42.9348C2.69078 42.4119 2.4346 41.8637 2.18293 41.2775C1.35516 39.3492 -0.573832 34.4131 -0.171146 29.144ZM29.7935 60.6393C29.6666 60.6432 29.6344 59.8351 29.7554 59.6673C29.9383 59.4137 30.2125 59.6226 30.4053 59.6105C31.2062 59.5605 32.0069 59.4862 32.8074 59.3857C35.0023 59.11 37.1956 58.6394 39.3839 57.9147C44.8118 56.1173 50.6472 53.3769 55.7639 44.9578C56.0896 44.422 56.4124 43.8536 56.7309 43.2425C57.6988 41.3855 60.1246 36.4563 59.8441 30.3285C59.8205 29.8119 59.9778 29.5025 60.0482 29.9457C60.1378 30.5099 60.1014 31.6862 60.0767 32.3121C59.9977 34.3167 59.6898 36.0119 59.3652 37.3809C58.3365 41.7197 56.8923 44.2354 55.5697 46.3359C51.2709 53.1632 46.6019 55.9156 42.0626 57.8934C37.9912 59.6673 33.8889 60.5129 29.7935 60.6393Z" fill="#401C02"/>
</g>
<g filter="url(#filter1_f_1202_22651)">
<path d="M-0.171146 29.144C-0.138571 28.7178 0.00170434 28.6751 0.042618 29.1079C0.0880739 29.5888 -0.000287995 30.5556 0.0209856 31.1387C0.0773142 32.6828 0.314008 34.0253 0.558012 35.1174C1.34433 38.6365 2.43325 40.9042 3.4489 42.8255C6.78742 49.141 10.4445 52.339 14.0121 54.7492C19.2416 58.2821 24.5135 59.4059 29.7898 59.6443C29.9229 59.6503 29.9451 60.5172 29.8141 60.63C29.578 60.8335 29.2856 60.6316 29.044 60.6231C28.3499 60.5988 27.6559 60.5511 26.9619 60.479C24.9041 60.2652 22.8465 59.8297 20.793 59.1291C15.2095 57.2241 9.18938 53.9623 3.93182 44.7751C3.60107 44.1971 3.27295 43.5887 2.94947 42.9348C2.69078 42.4119 2.4346 41.8637 2.18293 41.2775C1.35516 39.3492 -0.573832 34.4131 -0.171146 29.144ZM29.7935 60.6393C29.6666 60.6432 29.6344 59.8351 29.7554 59.6673C29.9383 59.4137 30.2125 59.6226 30.4053 59.6105C31.2062 59.5605 32.0069 59.4862 32.8074 59.3857C35.0023 59.11 37.1956 58.6394 39.3839 57.9147C44.8118 56.1173 50.6472 53.3769 55.7639 44.9578C56.0896 44.422 56.4124 43.8536 56.7309 43.2425C57.6988 41.3855 60.1246 36.4563 59.8441 30.3285C59.8205 29.8119 59.9778 29.5025 60.0482 29.9457C60.1378 30.5099 60.1014 31.6862 60.0767 32.3121C59.9977 34.3167 59.6898 36.0119 59.3652 37.3809C58.3365 41.7197 56.8923 44.2354 55.5697 46.3359C51.2709 53.1632 46.6019 55.9156 42.0626 57.8934C37.9912 59.6673 33.8889 60.5129 29.7935 60.6393Z" fill="#401C02"/>
</g>
</g>
<path d="M41.9957 40.2844C42.0198 40.2696 42.0482 40.2635 42.0762 40.267C42.1043 40.2705 42.1303 40.2834 42.15 40.3037C42.1697 40.324 42.1819 40.3504 42.1846 40.3785C42.1873 40.4067 42.1803 40.4349 42.1648 40.4586C41.932 40.7912 41.675 41.1063 41.3961 41.4014C41.2941 41.5084 41.1921 41.6154 41.0876 41.7199C40.9831 41.8243 40.8712 41.9201 40.763 42.0209C40.6548 42.1216 40.5428 42.2224 40.4284 42.3157L40.0801 42.5918C39.1287 43.3145 38.0912 43.9161 36.9915 44.383C32.5012 46.175 27.4943 46.175 23.004 44.383C21.9065 43.9166 20.8712 43.3158 19.9217 42.5943L19.5734 42.3182C19.459 42.2236 19.3483 42.1229 19.2388 42.0234C19.1293 41.9239 19.0199 41.8268 18.9141 41.7223C18.8084 41.6179 18.7077 41.5096 18.6057 41.4039C18.3263 41.1071 18.069 40.7903 17.8357 40.4561C17.8202 40.4324 17.8132 40.4042 17.8159 40.3761C17.8186 40.3479 17.8308 40.3215 17.8505 40.3012C17.8702 40.281 17.8963 40.268 17.9243 40.2645C17.9524 40.261 17.9808 40.2671 18.0049 40.2819C18.8144 40.7673 19.6617 41.1866 20.5387 41.5358C21.5447 41.9399 22.578 42.2724 23.631 42.5309C27.8281 43.4745 32.1824 43.4745 36.3795 42.5309C37.4327 42.2732 38.466 41.9406 39.4718 41.5358C40.3455 41.1874 41.1895 40.7689 41.9957 40.2844Z" fill="url(#paint4_radial_1202_22651)"/>
<path d="M41.9695 40.2844C41.9936 40.2702 42.0218 40.2646 42.0495 40.2684C42.0772 40.2722 42.1028 40.2852 42.1222 40.3053C42.1416 40.3254 42.1536 40.3515 42.1564 40.3793C42.1592 40.4071 42.1525 40.435 42.1375 40.4586C41.9046 40.7912 41.6477 41.1063 41.3687 41.4014C41.2667 41.5084 41.166 41.6154 41.0603 41.7199C40.9545 41.8243 40.8438 41.9201 40.7356 42.0209C40.6274 42.1216 40.5167 42.2224 40.401 42.3157L40.0527 42.5918C39.1011 43.3148 38.0632 43.9165 36.9629 44.383C32.4722 46.175 27.4649 46.175 22.9742 44.383C21.8745 43.9156 20.837 43.3136 19.8856 42.5906L19.5373 42.3144C19.4229 42.2199 19.3134 42.1191 19.204 42.0196C19.0945 41.9201 18.9838 41.8231 18.8793 41.7186C18.7748 41.6141 18.6728 41.5059 18.5708 41.4002C18.2934 41.1047 18.0381 40.7891 17.8071 40.4561C17.7921 40.4325 17.7854 40.4046 17.7882 40.3768C17.7909 40.349 17.803 40.3229 17.8224 40.3028C17.8418 40.2827 17.8674 40.2697 17.8951 40.2659C17.9228 40.2621 17.9509 40.2677 17.975 40.2819C18.7849 40.7673 19.6327 41.1866 20.5101 41.5358C21.5156 41.9401 22.5485 42.2726 23.6011 42.5309C27.7982 43.4745 32.1525 43.4745 36.3497 42.5309C37.4029 42.2733 38.4363 41.9408 39.442 41.5358C40.3169 41.1875 41.1621 40.769 41.9695 40.2844Z" stroke="url(#paint5_linear_1202_22651)" stroke-width="0.2" stroke-miterlimit="10"/>
<path d="M38.8142 29.2698C40.6072 29.2698 42.0608 27.0895 42.0608 24.4C42.0608 21.7105 40.6072 19.5302 38.8142 19.5302C37.0212 19.5302 35.5677 21.7105 35.5677 24.4C35.5677 27.0895 37.0212 29.2698 38.8142 29.2698Z" fill="url(#paint6_radial_1202_22651)"/>
<path d="M38.8142 29.2698C40.6072 29.2698 42.0608 27.0895 42.0608 24.4C42.0608 21.7105 40.6072 19.5302 38.8142 19.5302C37.0212 19.5302 35.5677 21.7105 35.5677 24.4C35.5677 27.0895 37.0212 29.2698 38.8142 29.2698Z" stroke="url(#paint7_linear_1202_22651)" stroke-width="0.2" stroke-miterlimit="10"/>
<path d="M21.2829 29.2698C23.0759 29.2698 24.5294 27.0895 24.5294 24.4C24.5294 21.7105 23.0759 19.5302 21.2829 19.5302C19.4898 19.5302 18.0363 21.7105 18.0363 24.4C18.0363 27.0895 19.4898 29.2698 21.2829 29.2698Z" fill="url(#paint8_radial_1202_22651)"/>
<path d="M21.2829 29.2698C23.0759 29.2698 24.5294 27.0895 24.5294 24.4C24.5294 21.7105 23.0759 19.5302 21.2829 19.5302C19.4898 19.5302 18.0363 21.7105 18.0363 24.4C18.0363 27.0895 19.4898 29.2698 21.2829 29.2698Z" stroke="url(#paint9_linear_1202_22651)" stroke-width="0.2" stroke-miterlimit="10"/>
<defs>
<filter id="filter0_f_1202_22651" x="-25.2258" y="3.80315" width="110.331" height="81.9174" filterUnits="userSpaceOnUse" color-interpolation-filters="sRGB">
<feFlood flood-opacity="0" result="BackgroundImageFix"/>
<feBlend mode="normal" in="SourceGraphic" in2="BackgroundImageFix" result="shape"/>
<feGaussianBlur stdDeviation="12.5" result="effect1_foregroundBlur_1202_22651"/>
</filter>
<filter id="filter1_f_1202_22651" x="-40.2258" y="-11.1969" width="140.331" height="111.917" filterUnits="userSpaceOnUse" color-interpolation-filters="sRGB">
<feFlood flood-opacity="0" result="BackgroundImageFix"/>
<feBlend mode="normal" in="SourceGraphic" in2="BackgroundImageFix" result="shape"/>
<feGaussianBlur stdDeviation="20" result="effect1_foregroundBlur_1202_22651"/>
</filter>
<radialGradient id="paint0_radial_1202_22651" cx="0" cy="0" r="1" gradientUnits="userSpaceOnUse" gradientTransform="translate(29.9776) rotate(90) scale(59.9552)">
<stop stop-color="#FFDE43"/>
<stop offset="1" stop-color="#FFBC00"/>
</radialGradient>
<radialGradient id="paint1_radial_1202_22651" cx="0" cy="0" r="1" gradientUnits="userSpaceOnUse" gradientTransform="translate(29.9776 8.02305) rotate(90) scale(51.9322)">
<stop stop-color="white" stop-opacity="0.5"/>
<stop offset="0.782278"/>
</radialGradient>
<radialGradient id="paint2_radial_1202_22651" cx="0" cy="0" r="1" gradientUnits="userSpaceOnUse" gradientTransform="translate(29.9776 8.02305) rotate(90) scale(51.9322)">
<stop stop-color="white" stop-opacity="0.5"/>
<stop offset="0.782278"/>
</radialGradient>
<radialGradient id="paint3_radial_1202_22651" cx="0" cy="0" r="1" gradientUnits="userSpaceOnUse" gradientTransform="translate(29.9776 -6.53039) rotate(90) scale(66.4856 89.9123)">
<stop offset="0.0922635" stop-color="white"/>
<stop offset="0.670207" stop-color="white" stop-opacity="0"/>
</radialGradient>
<radialGradient id="paint4_radial_1202_22651" cx="0" cy="0" r="1" gradientUnits="userSpaceOnUse" gradientTransform="translate(30.0003 42.9842) scale(9.19745 5.51844)">
<stop stop-color="#743C1C"/>
<stop offset="1" stop-color="#401C02"/>
</radialGradient>
<linearGradient id="paint5_linear_1202_22651" x1="29.9723" y1="45.8807" x2="29.9723" y2="40.089" gradientUnits="userSpaceOnUse">
<stop offset="0.265625" stop-color="#FFDE43"/>
<stop offset="1" stop-color="#F79D14"/>
</linearGradient>
<radialGradient id="paint6_radial_1202_22651" cx="0" cy="0" r="1" gradientUnits="userSpaceOnUse" gradientTransform="translate(38.8097 24.3968) scale(4.13855 4.87826)">
<stop stop-color="#743C1C"/>
<stop offset="1" stop-color="#401C02"/>
</radialGradient>
<linearGradient id="paint7_linear_1202_22651" x1="38.8142" y1="29.5439" x2="38.8142" y2="19.2168" gradientUnits="userSpaceOnUse">
<stop stop-color="#FFDE43"/>
<stop offset="0.22" stop-color="#FED93F"/>
<stop offset="0.51" stop-color="#FCC934"/>
<stop offset="0.82" stop-color="#F9AF21"/>
<stop offset="1" stop-color="#F79D14"/>
</linearGradient>
<radialGradient id="paint8_radial_1202_22651" cx="0" cy="0" r="1" gradientUnits="userSpaceOnUse" gradientTransform="translate(21.2784 24.3968) scale(4.13855 4.87826)">
<stop stop-color="#743C1C"/>
<stop offset="1" stop-color="#401C02"/>
</radialGradient>
<linearGradient id="paint9_linear_1202_22651" x1="21.2829" y1="29.5439" x2="21.2829" y2="19.2168" gradientUnits="userSpaceOnUse">
<stop stop-color="#FFDE43"/>
<stop offset="0.22" stop-color="#FED93F"/>
<stop offset="0.51" stop-color="#FCC934"/>
<stop offset="0.82" stop-color="#F9AF21"/>
<stop offset="1" stop-color="#F79D14"/>
</linearGradient>
</defs>
</svg>
