<svg width="60" height="60" viewBox="0 0 60 60" fill="none" xmlns="http://www.w3.org/2000/svg">
<path d="M30 60C46.5685 60 60 46.5685 60 30C60 13.4315 46.5685 0 30 0C13.4315 0 0 13.4315 0 30C0 46.5685 13.4315 60 30 60Z" fill="url(#paint0_radial_1202_22673)"/>
<g style="mix-blend-mode:soft-light">
<path d="M30 60C46.5685 60 60 46.5685 60 30C60 13.4315 46.5685 0 30 0C13.4315 0 0 13.4315 0 30C0 46.5685 13.4315 60 30 60Z" fill="url(#paint1_radial_1202_22673)"/>
</g>
<g style="mix-blend-mode:soft-light">
<path d="M30 60C46.5685 60 60 46.5685 60 30C60 13.4315 46.5685 0 30 0C13.4315 0 0 13.4315 0 30C0 46.5685 13.4315 60 30 60Z" fill="url(#paint2_radial_1202_22673)"/>
</g>
<g style="mix-blend-mode:overlay">
<path d="M30 60C46.5685 60 60 46.5685 60 30C60 13.4315 46.5685 0 30 0C13.4315 0 0 13.4315 0 30C0 46.5685 13.4315 60 30 60Z" fill="url(#paint3_radial_1202_22673)" fill-opacity="0.7"/>
</g>
<mask id="mask0_1202_22673" style="mask-type:alpha" maskUnits="userSpaceOnUse" x="0" y="0" width="60" height="60">
<path d="M30 60C46.5685 60 60 46.5685 60 30C60 13.4315 46.5685 0 30 0C13.4315 0 0 13.4315 0 30C0 46.5685 13.4315 60 30 60Z" fill="white"/>
</mask>
<g mask="url(#mask0_1202_22673)">
<g filter="url(#filter0_f_1202_22673)">
<path d="M-0.171146 29.144C-0.138571 28.7178 0.00170434 28.6751 0.042618 29.1079C0.0880739 29.5888 -0.000287995 30.5556 0.0209856 31.1387C0.0773142 32.6828 0.314008 34.0253 0.558012 35.1174C1.34433 38.6365 2.43325 40.9042 3.4489 42.8255C6.78742 49.141 10.4445 52.339 14.0121 54.7491C19.2416 58.2821 24.5135 59.4059 29.7898 59.6442C29.9229 59.6503 29.9451 60.5172 29.8141 60.63C29.578 60.8335 29.2856 60.6316 29.044 60.6231C28.3499 60.5988 27.6559 60.5511 26.9619 60.479C24.9041 60.2652 22.8465 59.8297 20.793 59.1291C15.2095 57.2241 9.18938 53.9623 3.93182 44.7751C3.60107 44.1971 3.27295 43.5887 2.94947 42.9348C2.69078 42.4119 2.4346 41.8637 2.18293 41.2775C1.35516 39.3492 -0.573832 34.4131 -0.171146 29.144ZM29.7935 60.6393C29.6666 60.6432 29.6344 59.8351 29.7554 59.6673C29.9383 59.4137 30.2125 59.6225 30.4053 59.6105C31.2062 59.5605 32.0069 59.4862 32.8074 59.3857C35.0023 59.11 37.1956 58.6394 39.3839 57.9147C44.8118 56.1173 50.6472 53.3769 55.7639 44.9578C56.0896 44.422 56.4124 43.8536 56.7309 43.2425C57.6988 41.3855 60.1246 36.4563 59.8441 30.3285C59.8205 29.8119 59.9778 29.5025 60.0482 29.9457C60.1378 30.5099 60.1014 31.6862 60.0767 32.3121C59.9977 34.3167 59.6898 36.0119 59.3652 37.3809C58.3365 41.7197 56.8923 44.2354 55.5697 46.3359C51.2709 53.1632 46.6019 55.9156 42.0626 57.8934C37.9912 59.6673 33.8889 60.5129 29.7935 60.6393Z" fill="#401C02"/>
</g>
<g filter="url(#filter1_f_1202_22673)">
<path d="M-0.171146 29.144C-0.138571 28.7178 0.00170434 28.6751 0.042618 29.1079C0.0880739 29.5888 -0.000287995 30.5556 0.0209856 31.1387C0.0773142 32.6828 0.314008 34.0253 0.558012 35.1174C1.34433 38.6365 2.43325 40.9042 3.4489 42.8255C6.78742 49.141 10.4445 52.339 14.0121 54.7491C19.2416 58.2821 24.5135 59.4059 29.7898 59.6442C29.9229 59.6503 29.9451 60.5172 29.8141 60.63C29.578 60.8335 29.2856 60.6316 29.044 60.6231C28.3499 60.5988 27.6559 60.5511 26.9619 60.479C24.9041 60.2652 22.8465 59.8297 20.793 59.1291C15.2095 57.2241 9.18938 53.9623 3.93182 44.7751C3.60107 44.1971 3.27295 43.5887 2.94947 42.9348C2.69078 42.4119 2.4346 41.8637 2.18293 41.2775C1.35516 39.3492 -0.573832 34.4131 -0.171146 29.144ZM29.7935 60.6393C29.6666 60.6432 29.6344 59.8351 29.7554 59.6673C29.9383 59.4137 30.2125 59.6225 30.4053 59.6105C31.2062 59.5605 32.0069 59.4862 32.8074 59.3857C35.0023 59.11 37.1956 58.6394 39.3839 57.9147C44.8118 56.1173 50.6472 53.3769 55.7639 44.9578C56.0896 44.422 56.4124 43.8536 56.7309 43.2425C57.6988 41.3855 60.1246 36.4563 59.8441 30.3285C59.8205 29.8119 59.9778 29.5025 60.0482 29.9457C60.1378 30.5099 60.1014 31.6862 60.0767 32.3121C59.9977 34.3167 59.6898 36.0119 59.3652 37.3809C58.3365 41.7197 56.8923 44.2354 55.5697 46.3359C51.2709 53.1632 46.6019 55.9156 42.0626 57.8934C37.9912 59.6673 33.8889 60.5129 29.7935 60.6393Z" fill="#401C02"/>
</g>
</g>
<path d="M25.0768 26.0221C25.0813 27.1094 24.9113 28.1904 24.573 29.2238C24.5379 29.3406 24.4668 29.4433 24.3699 29.5172C24.2729 29.5912 24.1551 29.6326 24.0332 29.6355C23.894 29.6311 23.761 29.5774 23.6578 29.484C23.5546 29.3906 23.4879 29.2636 23.4697 29.1255C23.0866 26.8306 21.5964 25.119 19.8152 25.119C18.0339 25.119 16.5437 26.8306 16.1606 29.1255C16.1424 29.2636 16.0758 29.3906 15.9725 29.484C15.8693 29.5774 15.7363 29.6311 15.5972 29.6355C15.4753 29.6324 15.3576 29.5909 15.2606 29.517C15.1637 29.4431 15.0926 29.3405 15.0573 29.2238C14.7191 28.1904 14.549 27.1094 14.5535 26.0221C14.5535 21.8861 16.9094 18.5339 19.8152 18.5339C22.7209 18.5339 25.0768 21.8861 25.0768 26.0221Z" fill="url(#paint4_radial_1202_22673)"/>
<path d="M25.0768 26.0221C25.0813 27.1094 24.9113 28.1904 24.573 29.2238C24.5379 29.3406 24.4668 29.4433 24.3699 29.5172C24.2729 29.5912 24.1551 29.6326 24.0332 29.6355C23.894 29.6311 23.761 29.5774 23.6578 29.484C23.5546 29.3906 23.4879 29.2636 23.4697 29.1255C23.0866 26.8306 21.5964 25.119 19.8152 25.119C18.0339 25.119 16.5437 26.8306 16.1606 29.1255C16.1424 29.2636 16.0758 29.3906 15.9725 29.484C15.8693 29.5774 15.7363 29.6311 15.5972 29.6355V29.6355C15.4753 29.6324 15.3576 29.5909 15.2606 29.517C15.1637 29.4431 15.0926 29.3405 15.0573 29.2238C14.7191 28.1904 14.549 27.1094 14.5535 26.0221C14.5535 21.8861 16.9094 18.5339 19.8152 18.5339C22.7209 18.5339 25.0768 21.8861 25.0768 26.0221Z" stroke="url(#paint5_linear_1202_22673)" stroke-width="0.2" stroke-miterlimit="10"/>
<path d="M45.5237 26.0221C45.5303 27.1091 45.3623 28.1901 45.0262 29.2238C44.9911 29.3406 44.92 29.4433 44.823 29.5172C44.7261 29.5912 44.6082 29.6326 44.4863 29.6355C44.3472 29.6311 44.2141 29.5774 44.1109 29.484C44.0077 29.3906 43.9411 29.2636 43.9228 29.1255C43.5397 26.8306 42.0496 25.119 40.2683 25.119C38.4871 25.119 36.9969 26.8306 36.6138 29.1255C36.5956 29.2636 36.5289 29.3906 36.4257 29.484C36.3225 29.5774 36.1894 29.6311 36.0503 29.6355C35.9284 29.6326 35.8106 29.5912 35.7136 29.5172C35.6167 29.4433 35.5456 29.3406 35.5105 29.2238C35.1722 28.1904 35.0021 27.1094 35.0067 26.0221C35.0067 21.8861 37.3626 18.5339 40.2683 18.5339C43.174 18.5339 45.5237 21.8861 45.5237 26.0221Z" fill="url(#paint6_radial_1202_22673)"/>
<path d="M45.5237 26.0221C45.5303 27.1091 45.3623 28.1901 45.0262 29.2238C44.9911 29.3406 44.92 29.4433 44.823 29.5172C44.7261 29.5912 44.6082 29.6326 44.4863 29.6355C44.3472 29.6311 44.2141 29.5774 44.1109 29.484C44.0077 29.3906 43.9411 29.2636 43.9228 29.1255C43.5397 26.8306 42.0496 25.119 40.2683 25.119C38.4871 25.119 36.9969 26.8306 36.6138 29.1255C36.5956 29.2636 36.5289 29.3906 36.4257 29.484C36.3225 29.5774 36.1894 29.6311 36.0503 29.6355C35.9284 29.6326 35.8106 29.5912 35.7136 29.5172C35.6167 29.4433 35.5456 29.3406 35.5105 29.2238C35.1722 28.1904 35.0021 27.1094 35.0067 26.0221C35.0067 21.8861 37.3626 18.5339 40.2683 18.5339C43.174 18.5339 45.5237 21.8861 45.5237 26.0221Z" stroke="url(#paint7_linear_1202_22673)" stroke-width="0.2" stroke-miterlimit="10"/>
<path d="M49.8113 38.0542C48.0039 41.77 45.188 44.9026 41.685 47.0941C38.182 49.2857 34.1332 50.4478 30.0012 50.4478C25.8692 50.4478 21.8204 49.2857 18.3174 47.0941C14.8145 44.9026 11.9985 41.77 10.1911 38.0542C15.9689 40.0718 22.7543 41.2336 30.0012 41.2336C37.2481 41.2336 44.0335 40.0718 49.8113 38.0542Z" fill="url(#paint8_linear_1202_22673)"/>
<path d="M51.6846 32.2851C51.6622 32.4095 51.6386 32.5339 51.6137 32.6645C51.5889 32.7951 51.569 32.8934 51.5441 33.0066C51.5441 33.029 51.5354 33.0501 51.5304 33.0712C51.5068 33.1869 51.4806 33.3014 51.4545 33.4158C51.4284 33.5302 51.4048 33.6235 51.3786 33.7268C51.3637 33.789 51.3488 33.8512 51.3314 33.9134C51.3252 33.9407 51.3177 33.9693 51.3102 33.9967C51.2941 34.0614 51.2766 34.1211 51.2592 34.1895C51.2592 34.2144 51.2468 34.2393 51.2393 34.2641C51.2153 34.352 51.1904 34.4403 51.1647 34.5291C51.1311 34.6535 51.095 34.7679 51.059 34.8873V34.8948C51.0241 35.0067 50.9893 35.1199 50.952 35.2319C50.8711 35.4806 50.7866 35.7294 50.7032 35.9782C50.6597 36.1026 50.6149 36.2158 50.5701 36.3327C50.5253 36.4496 50.493 36.5317 50.4532 36.6312C50.3935 36.7805 50.3288 36.9285 50.2691 37.0753C50.228 37.1723 50.1858 37.2694 50.1447 37.3651L50.1385 37.3776C50.0974 37.4709 50.0551 37.5629 50.0141 37.655L49.9469 37.7993C49.9059 37.8863 49.8648 37.9734 49.8225 38.0592C44.0447 40.0768 37.2593 41.2386 30.0124 41.2386C22.7656 41.2386 15.9802 40.0768 10.2023 38.0592C10.16 37.9734 10.119 37.8863 10.0779 37.7993L10.0108 37.655C9.96849 37.5629 9.9262 37.4709 9.88639 37.3776L9.88017 37.3651C9.83788 37.2694 9.79559 37.1723 9.75578 37.0753C9.69235 36.9285 9.6314 36.7805 9.57169 36.6312C9.53189 36.5317 9.49333 36.4322 9.45477 36.3327C9.4162 36.2332 9.3652 36.0976 9.32167 35.9782C9.23211 35.7294 9.14753 35.4869 9.06667 35.2319C9.02936 35.1199 8.99453 35.0067 8.9597 34.8948V34.8873C8.92363 34.7629 8.88755 34.6485 8.85397 34.5291C8.82743 34.4412 8.80256 34.3529 8.77934 34.2641C8.77187 34.2393 8.76565 34.2144 8.75943 34.1895C8.74202 34.1261 8.72461 34.0651 8.70843 33.9967C8.70097 33.9693 8.69351 33.9407 8.68729 33.9134C8.66987 33.8512 8.65495 33.789 8.64002 33.7268C8.6139 33.6235 8.58902 33.519 8.56414 33.4158C8.53927 33.3126 8.5119 33.1869 8.48826 33.0712C8.48826 33.0501 8.47832 33.029 8.47458 33.0066C8.44971 32.8934 8.42732 32.7789 8.40493 32.6645C8.38254 32.5501 8.35641 32.4157 8.33402 32.2851C14.4962 34.7293 21.967 36.1611 30.0174 36.1611C38.0678 36.1611 45.5224 34.7293 51.6846 32.2851Z" fill="url(#paint9_linear_1202_22673)"/>
<path d="M49.8113 38.0542C44.0335 40.0718 37.2481 41.2336 30.0012 41.2336C22.7543 41.2336 15.9689 40.0718 10.1911 38.0542" stroke="url(#paint10_radial_1202_22673)" stroke-width="0.5" stroke-miterlimit="10"/>
<mask id="mask1_1202_22673" style="mask-type:alpha" maskUnits="userSpaceOnUse" x="8" y="32" width="44" height="19">
<path d="M50.9954 32.4282C51.0641 32.402 51.1385 32.3949 51.2109 32.4074C51.2833 32.42 51.3509 32.4518 51.4068 32.4995C51.4626 32.5472 51.5046 32.6091 51.5283 32.6786C51.552 32.7481 51.5566 32.8227 51.5415 32.8946C50.4889 37.8266 47.7757 42.2481 43.8551 45.4202C39.9346 48.5922 35.0442 50.3229 30.0011 50.3229C24.9581 50.3229 20.0677 48.5922 16.1472 45.4202C12.2266 42.2481 9.51341 37.8266 8.4608 32.8946C8.44573 32.8227 8.45029 32.7481 8.474 32.6786C8.4977 32.6091 8.53968 32.5472 8.59553 32.4995C8.65138 32.4518 8.71905 32.42 8.79142 32.4074C8.8638 32.3949 8.93822 32.402 9.00687 32.4282C15.0335 34.7095 22.248 36.0354 30.0011 36.0354C37.7543 36.0354 44.9688 34.7095 50.9954 32.4282Z" fill="url(#paint11_linear_1202_22673)"/>
</mask>
<g mask="url(#mask1_1202_22673)">
<g filter="url(#filter2_f_1202_22673)">
<path d="M50.9954 32.4282C51.0641 32.402 51.1385 32.3949 51.2109 32.4074C51.2832 32.42 51.3509 32.4518 51.4068 32.4995C51.4626 32.5472 51.5046 32.6091 51.5283 32.6786C51.552 32.7481 51.5566 32.8227 51.5415 32.8946C50.4889 37.8266 47.7757 42.2481 43.8551 45.4202C39.9346 48.5922 35.0442 50.3229 30.0011 50.3229C24.9581 50.3229 20.0677 48.5922 16.1472 45.4202C12.2266 42.2481 9.51341 37.8266 8.4608 32.8946C8.44573 32.8227 8.45029 32.7481 8.474 32.6786C8.4977 32.6091 8.53968 32.5472 8.59553 32.4995C8.65138 32.4518 8.71905 32.42 8.79142 32.4074C8.8638 32.3949 8.93822 32.402 9.00687 32.4282C15.0335 34.7095 22.248 36.0354 30.0011 36.0354C37.7543 36.0354 44.9688 34.7095 50.9954 32.4282Z" stroke="url(#paint12_linear_1202_22673)" stroke-width="0.1" stroke-miterlimit="10"/>
</g>
</g>
<path d="M9.09558 32.3188C8.98503 32.2768 8.86523 32.2653 8.74871 32.2855C8.63213 32.3057 8.52313 32.3569 8.43316 32.4338C8.34318 32.5106 8.27556 32.6103 8.23737 32.7223C8.19919 32.8343 8.19184 32.9545 8.21612 33.0703L8.21612 33.0703L8.21631 33.0712C9.28087 38.0592 12.0249 42.5308 15.9899 45.7389C19.955 48.947 24.9008 50.6973 30.0011 50.6973C35.1015 50.6973 40.0473 48.947 44.0124 45.7389C47.9774 42.5308 50.7214 38.0592 51.786 33.0712L51.7862 33.0703C51.8105 32.9545 51.8031 32.8343 51.7649 32.7223C51.7267 32.6103 51.6591 32.5106 51.5691 32.4338C51.4792 32.3569 51.3702 32.3057 51.2536 32.2855C51.1371 32.2653 51.0174 32.2768 50.9069 32.3188C44.911 34.5884 37.7267 35.9098 30.0011 35.9098C22.2756 35.9098 15.0915 34.5884 9.09558 32.3188ZM9.09558 32.3188C9.09564 32.3189 9.09571 32.3189 9.09578 32.3189L9.00687 32.5526L9.09538 32.3188C9.09544 32.3188 9.09551 32.3188 9.09558 32.3188Z" stroke="url(#paint13_linear_1202_22673)" stroke-width="0.5" stroke-miterlimit="10"/>
<path d="M50.9954 32.5526C51.0641 32.5265 51.1385 32.5193 51.2109 32.5319C51.2832 32.5444 51.3509 32.5762 51.4068 32.6239C51.4626 32.6717 51.5046 32.7335 51.5283 32.803C51.552 32.8726 51.5566 32.9472 51.5415 33.0191C50.4889 37.9511 47.7757 42.3725 43.8551 45.5446C39.9346 48.7167 35.0442 50.4473 30.0011 50.4473C24.9581 50.4473 20.0677 48.7167 16.1472 45.5446C12.2266 42.3725 9.51341 37.9511 8.4608 33.0191C8.44573 32.9472 8.45029 32.8726 8.474 32.803C8.4977 32.7335 8.53968 32.6717 8.59553 32.6239C8.65138 32.5762 8.71905 32.5444 8.79142 32.5319C8.8638 32.5193 8.93822 32.5265 9.00687 32.5526C15.0335 34.8339 22.248 36.1599 30.0011 36.1599C37.7543 36.1599 44.9688 34.8339 50.9954 32.5526Z" stroke="url(#paint14_linear_1202_22673)" stroke-miterlimit="10"/>
<defs>
<filter id="filter0_f_1202_22673" x="-25.2258" y="3.80315" width="110.331" height="81.9174" filterUnits="userSpaceOnUse" color-interpolation-filters="sRGB">
<feFlood flood-opacity="0" result="BackgroundImageFix"/>
<feBlend mode="normal" in="SourceGraphic" in2="BackgroundImageFix" result="shape"/>
<feGaussianBlur stdDeviation="12.5" result="effect1_foregroundBlur_1202_22673"/>
</filter>
<filter id="filter1_f_1202_22673" x="-40.2258" y="-11.1969" width="140.331" height="111.917" filterUnits="userSpaceOnUse" color-interpolation-filters="sRGB">
<feFlood flood-opacity="0" result="BackgroundImageFix"/>
<feBlend mode="normal" in="SourceGraphic" in2="BackgroundImageFix" result="shape"/>
<feGaussianBlur stdDeviation="20" result="effect1_foregroundBlur_1202_22673"/>
</filter>
<filter id="filter2_f_1202_22673" x="-1.5979" y="22.3514" width="63.1981" height="38.0214" filterUnits="userSpaceOnUse" color-interpolation-filters="sRGB">
<feFlood flood-opacity="0" result="BackgroundImageFix"/>
<feBlend mode="normal" in="SourceGraphic" in2="BackgroundImageFix" result="shape"/>
<feGaussianBlur stdDeviation="5" result="effect1_foregroundBlur_1202_22673"/>
</filter>
<radialGradient id="paint0_radial_1202_22673" cx="0" cy="0" r="1" gradientUnits="userSpaceOnUse" gradientTransform="translate(29.9776) rotate(90) scale(59.9552)">
<stop stop-color="#FFDE43"/>
<stop offset="1" stop-color="#FFBC00"/>
</radialGradient>
<radialGradient id="paint1_radial_1202_22673" cx="0" cy="0" r="1" gradientUnits="userSpaceOnUse" gradientTransform="translate(29.9776 8.02305) rotate(90) scale(51.9322)">
<stop stop-color="white" stop-opacity="0.5"/>
<stop offset="0.782278"/>
</radialGradient>
<radialGradient id="paint2_radial_1202_22673" cx="0" cy="0" r="1" gradientUnits="userSpaceOnUse" gradientTransform="translate(29.9776 8.02305) rotate(90) scale(51.9322)">
<stop stop-color="white" stop-opacity="0.5"/>
<stop offset="0.782278"/>
</radialGradient>
<radialGradient id="paint3_radial_1202_22673" cx="0" cy="0" r="1" gradientUnits="userSpaceOnUse" gradientTransform="translate(29.9776 -6.53039) rotate(90) scale(66.4856 89.9123)">
<stop offset="0.0922635" stop-color="white"/>
<stop offset="0.670207" stop-color="white" stop-opacity="0"/>
</radialGradient>
<radialGradient id="paint4_radial_1202_22673" cx="0" cy="0" r="1" gradientUnits="userSpaceOnUse" gradientTransform="translate(19.8079 24.081) scale(6.70741 5.56046)">
<stop stop-color="#743C1C"/>
<stop offset="1" stop-color="#401C02"/>
</radialGradient>
<linearGradient id="paint5_linear_1202_22673" x1="19.8152" y1="29.9479" x2="19.8152" y2="18.1766" gradientUnits="userSpaceOnUse">
<stop stop-color="#FFDE43"/>
<stop offset="0.22" stop-color="#FED93F"/>
<stop offset="0.51" stop-color="#FCC934"/>
<stop offset="0.82" stop-color="#F9AF21"/>
<stop offset="1" stop-color="#F79D14"/>
</linearGradient>
<radialGradient id="paint6_radial_1202_22673" cx="0" cy="0" r="1" gradientUnits="userSpaceOnUse" gradientTransform="translate(40.258 24.081) scale(6.70351 5.56046)">
<stop stop-color="#743C1C"/>
<stop offset="1" stop-color="#401C02"/>
</radialGradient>
<linearGradient id="paint7_linear_1202_22673" x1="40.2653" y1="29.9479" x2="40.2653" y2="18.1766" gradientUnits="userSpaceOnUse">
<stop stop-color="#FFDE43"/>
<stop offset="0.22" stop-color="#FED93F"/>
<stop offset="0.51" stop-color="#FCC934"/>
<stop offset="0.82" stop-color="#F9AF21"/>
<stop offset="1" stop-color="#F79D14"/>
</linearGradient>
<linearGradient id="paint8_linear_1202_22673" x1="10.1759" y1="44.2533" x2="49.8113" y2="44.2533" gradientUnits="userSpaceOnUse">
<stop stop-color="#CCCCCC"/>
<stop offset="0.05" stop-color="#D5D5D5"/>
<stop offset="0.2" stop-color="#E9E9E9"/>
<stop offset="0.35" stop-color="#F6F6F6"/>
<stop offset="0.5" stop-color="#FAFAFA"/>
<stop offset="0.65" stop-color="#F6F6F6"/>
<stop offset="0.8" stop-color="#E9E9E9"/>
<stop offset="0.95" stop-color="#D5D5D5"/>
<stop offset="1" stop-color="#CCCCCC"/>
</linearGradient>
<linearGradient id="paint9_linear_1202_22673" x1="8.31741" y1="36.7635" x2="51.6846" y2="36.7635" gradientUnits="userSpaceOnUse">
<stop stop-color="#CCCCCC"/>
<stop offset="0.05" stop-color="#D5D5D5"/>
<stop offset="0.2" stop-color="#E9E9E9"/>
<stop offset="0.35" stop-color="#F6F6F6"/>
<stop offset="0.5" stop-color="#FAFAFA"/>
<stop offset="0.65" stop-color="#F6F6F6"/>
<stop offset="0.8" stop-color="#E9E9E9"/>
<stop offset="0.95" stop-color="#D5D5D5"/>
<stop offset="1" stop-color="#CCCCCC"/>
</linearGradient>
<radialGradient id="paint10_radial_1202_22673" cx="0" cy="0" r="1" gradientUnits="userSpaceOnUse" gradientTransform="translate(30.0012 39.6539) scale(14.1629 14.1629)">
<stop stop-color="#401C02"/>
<stop offset="1" stop-color="#401C02"/>
</radialGradient>
<linearGradient id="paint11_linear_1202_22673" x1="21656.3" y1="11523.1" x2="21656.3" y2="8725.75" gradientUnits="userSpaceOnUse">
<stop stop-color="#401C02"/>
<stop offset="1" stop-color="#401C02"/>
</linearGradient>
<linearGradient id="paint12_linear_1202_22673" x1="21656.3" y1="11523.1" x2="21656.3" y2="8725.75" gradientUnits="userSpaceOnUse">
<stop stop-color="#401C02"/>
<stop offset="1" stop-color="#401C02"/>
</linearGradient>
<linearGradient id="paint13_linear_1202_22673" x1="30.0012" y1="50.9515" x2="30.0012" y2="31.9491" gradientUnits="userSpaceOnUse">
<stop offset="0.265625" stop-color="#FFDE43"/>
<stop offset="1" stop-color="#F79D14"/>
</linearGradient>
<linearGradient id="paint14_linear_1202_22673" x1="21656.3" y1="11523.2" x2="21656.3" y2="8725.88" gradientUnits="userSpaceOnUse">
<stop stop-color="#401C02"/>
<stop offset="1" stop-color="#401C02"/>
</linearGradient>
</defs>
</svg>
